<svg width="22" height="26" viewBox="0 0 22 26" fill="none" xmlns="http://www.w3.org/2000/svg">
<path fill-rule="evenodd" clip-rule="evenodd" d="M17.9673 13.7504C17.9673 11.7373 19.0504 9.92555 20.8228 8.81834C19.6412 7.30848 17.8689 6.40254 15.998 6.3019C14.0287 6.10063 12.0594 7.50975 11.0747 7.50975C9.99163 7.50975 8.41629 6.3019 6.7424 6.40254C4.47773 6.50328 2.5084 7.71113 1.42529 9.62354C-0.839383 13.5491 0.834507 19.3871 3.00073 22.6081C4.08384 24.2186 5.36385 25.9297 7.03774 25.8291C8.71163 25.7283 9.30241 24.8225 11.2717 24.8225C13.241 24.8225 13.8317 25.8291 15.5056 25.8291C17.278 25.8291 18.3611 24.2186 19.4442 22.7087C20.232 21.6015 20.8228 20.3936 21.2166 19.0852C19.3458 18.0786 17.9673 16.0654 17.9673 13.7504Z" fill="black"/>
<path fill-rule="evenodd" clip-rule="evenodd" d="M14.7185 4.18834C15.7032 3.08117 16.1955 1.57135 15.9986 0.0615234C14.5216 0.262838 13.1432 0.866773 12.1585 1.97397C11.1738 3.08117 10.6815 4.49036 10.7799 5.89948C12.3554 6.10086 13.7339 5.3963 14.7185 4.18834Z" fill="black"/>
</svg>
