<svg width="37" height="36" viewBox="0 0 37 36" fill="none" xmlns="http://www.w3.org/2000/svg">
<path d="M0.0078125 18C0.0078125 22.7739 1.90424 27.3523 5.27989 30.7279C8.65555 34.1036 13.2339 36 18.0078 36C22.7817 36 27.3601 34.1036 30.7357 30.7279C34.1114 27.3523 36.0078 22.7739 36.0078 18C36.0078 13.2261 34.1114 8.64773 30.7357 5.27208C27.3601 1.89642 22.7817 0 18.0078 0C13.2339 0 8.65555 1.89642 5.27989 5.27208C1.90424 8.64773 0.0078125 13.2261 0.0078125 18H0.0078125Z" fill="#393939"/>
<path d="M20.4167 11.1844C19.7728 11.9502 18.692 12.5245 17.8296 12.5245C17.7323 12.5245 17.6349 12.5123 17.5744 12.5C17.5508 12.39 17.5387 12.2779 17.5384 12.1654C17.5384 11.1844 18.0358 10.2271 18.5824 9.61755C19.2745 8.81573 20.429 8.21764 21.3887 8.18164C21.4124 8.28964 21.4247 8.42055 21.4247 8.55228C21.4247 9.52182 20.9993 10.4905 20.4167 11.1844ZM16.1933 26.6431C15.7596 26.8264 15.3505 26.9998 14.7942 26.9998C13.6029 26.9998 12.7774 25.9231 11.8299 24.6075C10.7262 23.0521 9.82617 20.6475 9.82617 18.3745C9.82617 14.714 12.2431 12.7757 14.6232 12.7757C15.3186 12.7757 15.9527 13.0261 16.5173 13.2503C16.9689 13.4286 17.3764 13.589 17.7323 13.589C18.0415 13.589 18.4269 13.4393 18.8761 13.2642C19.5028 13.0204 20.2547 12.7275 21.0966 12.7275C21.6309 12.7275 23.5864 12.7757 24.8734 14.5937L24.8275 14.6248C24.5109 14.831 22.8214 15.9298 22.8214 18.1831C22.8214 20.9706 25.2865 21.9631 25.3716 21.9876L25.3561 22.0326C25.0492 22.9632 24.6129 23.8459 24.0601 24.6549C23.246 25.8036 22.3836 26.9761 21.0966 26.9761C20.4625 26.9761 20.0575 26.7994 19.6403 26.6177C19.1952 26.423 18.7345 26.2225 17.963 26.2225C17.1882 26.2225 16.676 26.4385 16.1933 26.6431Z" fill="black"/>
<path d="M18.0078 0C27.9487 0 36.0078 8.05909 36.0078 18C36.0078 27.9409 27.9487 36 18.0078 36C8.0669 36 0.0078125 27.9409 0.0078125 18C0.0078125 8.05909 8.0669 0 18.0078 0ZM18.0078 0.818182C8.51854 0.818182 0.825994 8.51073 0.825994 18C0.825994 27.4893 8.51854 35.1818 18.0078 35.1818C27.4971 35.1818 35.1896 27.4893 35.1896 18C35.1896 8.51073 27.4971 0.818182 18.0078 0.818182Z" fill="#393939"/>
</svg>
