<svg width="30" height="26" viewBox="0 0 30 26" fill="none" xmlns="http://www.w3.org/2000/svg">
<path d="M21.3967 0.0820312C26.2826 0.0820312 29.1663 2.89354 29.1663 7.70625H23.1723V7.75536C20.3904 7.75536 18.1352 9.95406 18.1352 12.6663C18.1352 15.3785 20.3904 17.5772 23.1723 17.5772H29.1663V18.0192C29.1663 22.7705 26.2826 25.582 21.3967 25.582H8.60264C3.71671 25.582 0.833008 22.7705 0.833008 18.0192V7.64486C0.833008 2.89354 3.71671 0.0820312 8.60264 0.0820312H21.3967ZM28.1086 9.81795C28.6928 9.81795 29.1663 10.2797 29.1663 10.8492V14.4342C29.1595 15.001 28.6899 15.4589 28.1086 15.4655H23.2856C21.8773 15.484 20.6458 14.5439 20.3263 13.2065C20.1664 12.3763 20.3909 11.5196 20.9399 10.866C21.4888 10.2124 22.3059 9.8288 23.1723 9.81795H28.1086ZM23.8523 11.4754H23.3863C23.1003 11.4721 22.8248 11.5806 22.6213 11.7767C22.4179 11.9727 22.3034 12.24 22.3034 12.519C22.3033 13.1041 22.7862 13.5804 23.3863 13.5871H23.8523C24.4504 13.5871 24.9352 13.1144 24.9352 12.5312C24.9352 11.9481 24.4504 11.4754 23.8523 11.4754ZM15.5412 5.59455H7.54486C6.95164 5.59451 6.46879 6.05979 6.4619 6.63812C6.4619 7.22327 6.94472 7.69952 7.54486 7.70625H15.5412C16.1393 7.70625 16.6241 7.23353 16.6241 6.6504C16.6241 6.06727 16.1393 5.59455 15.5412 5.59455Z" fill="white"/>
</svg>
