<svg width="118" height="106" viewBox="0 0 118 106" fill="none" xmlns="http://www.w3.org/2000/svg">
<rect width="92" height="92" rx="10" fill="url(#paint0_linear_0_1)"/>
<mask id="mask0_0_1" style="mask-type:alpha" maskUnits="userSpaceOnUse" x="2" y="0" width="92" height="92">
<rect x="2" width="92" height="92" rx="10" fill="url(#paint1_linear_0_1)"/>
</mask>
<g mask="url(#mask0_0_1)">
<path d="M48.1618 70.0131C66.1463 70.0131 81.3235 72.9037 81.3235 84.0558C81.3235 95.212 66.0468 98 48.1618 98C30.1813 98 15 95.1095 15 83.9574C15 72.8011 30.2767 70.0131 48.1618 70.0131ZM48.1618 16C60.345 16 70.1065 25.6515 70.1065 37.6933C70.1065 49.7351 60.345 59.3907 48.1618 59.3907C35.9827 59.3907 26.217 49.7351 26.217 37.6933C26.217 25.6515 35.9827 16 48.1618 16Z" fill="white"/>
</g>
<path d="M105.837 86.64C105.319 87.142 105.081 87.868 105.199 88.58L106.977 98.42C107.127 99.254 106.775 100.098 106.077 100.58C105.393 101.08 104.483 101.14 103.737 100.74L94.8788 96.12C94.5708 95.956 94.2288 95.868 93.8788 95.858H93.3368C93.1488 95.886 92.9648 95.946 92.7968 96.038L83.9368 100.68C83.4988 100.9 83.0028 100.978 82.5168 100.9C81.3328 100.676 80.5428 99.548 80.7368 98.358L82.5168 88.518C82.6348 87.8 82.3968 87.07 81.8788 86.56L74.6568 79.56C74.0528 78.974 73.8428 78.094 74.1188 77.3C74.3868 76.508 75.0708 75.93 75.8968 75.8L85.8368 74.358C86.5928 74.28 87.2568 73.82 87.5968 73.14L91.9768 64.16C92.0808 63.96 92.2148 63.776 92.3768 63.62L92.5568 63.48C92.6508 63.376 92.7588 63.29 92.8788 63.22L93.0968 63.14L93.4368 63H94.2788C95.0308 63.078 95.6928 63.528 96.0388 64.2L100.477 73.14C100.797 73.794 101.419 74.248 102.137 74.358L112.077 75.8C112.917 75.92 113.619 76.5 113.897 77.3C114.159 78.102 113.933 78.982 113.317 79.56L105.837 86.64Z" fill="url(#paint2_linear_0_1)"/>
<path d="M86.6321 89V81.7273H88.1697V87.7322H91.2876V89H86.6321ZM96.3792 83.5455L94.4722 89H92.7676L90.8607 83.5455H92.4587L93.5915 87.4482H93.6483L94.7776 83.5455H96.3792ZM98.3661 81.7273V89H96.8533V81.7273H98.3661ZM102.428 81.7273V89H100.89V83.1868H100.848L99.182 84.2308V82.8672L100.982 81.7273H102.428Z" fill="white"/>
<defs>
<linearGradient id="paint0_linear_0_1" x1="0" y1="0" x2="92" y2="92" gradientUnits="userSpaceOnUse">
<stop stop-color="#DFB154"/>
<stop offset="1" stop-color="#FFDD97"/>
</linearGradient>
<linearGradient id="paint1_linear_0_1" x1="2" y1="0" x2="94" y2="92" gradientUnits="userSpaceOnUse">
<stop stop-color="#DFB154"/>
<stop offset="1" stop-color="#FFDD97"/>
</linearGradient>
<linearGradient id="paint2_linear_0_1" x1="74.6548" y1="63" x2="114.83" y2="68.0718" gradientUnits="userSpaceOnUse">
<stop stop-color="#D1A81F"/>
<stop offset="1" stop-color="#FAC460"/>
</linearGradient>
</defs>
</svg>
