<svg width="18" height="19" viewBox="0 0 18 19" fill="none" xmlns="http://www.w3.org/2000/svg">
<path d="M0 1.0625C0 0.913316 0.0592632 0.770242 0.164752 0.664752C0.270242 0.559263 0.413316 0.5 0.5625 0.5H3.9375C4.08668 0.5 4.22976 0.559263 4.33525 0.664752C4.44074 0.770242 4.5 0.913316 4.5 1.0625C4.5 1.21168 4.44074 1.35476 4.33525 1.46025C4.22976 1.56574 4.08668 1.625 3.9375 1.625H1.125V4.4375C1.125 4.58668 1.06574 4.72976 0.960248 4.83525C0.854758 4.94074 0.711684 5 0.5625 5C0.413316 5 0.270242 4.94074 0.164752 4.83525C0.0592632 4.72976 0 4.58668 0 4.4375V1.0625ZM13.5 1.0625C13.5 0.913316 13.5593 0.770242 13.6648 0.664752C13.7702 0.559263 13.9133 0.5 14.0625 0.5H17.4375C17.5867 0.5 17.7298 0.559263 17.8352 0.664752C17.9407 0.770242 18 0.913316 18 1.0625V4.4375C18 4.58668 17.9407 4.72976 17.8352 4.83525C17.7298 4.94074 17.5867 5 17.4375 5C17.2883 5 17.1452 4.94074 17.0398 4.83525C16.9343 4.72976 16.875 4.58668 16.875 4.4375V1.625H14.0625C13.9133 1.625 13.7702 1.56574 13.6648 1.46025C13.5593 1.35476 13.5 1.21168 13.5 1.0625ZM0.5625 14C0.711684 14 0.854758 14.0593 0.960248 14.1648C1.06574 14.2702 1.125 14.4133 1.125 14.5625V17.375H3.9375C4.08668 17.375 4.22976 17.4343 4.33525 17.5398C4.44074 17.6452 4.5 17.7883 4.5 17.9375C4.5 18.0867 4.44074 18.2298 4.33525 18.3352C4.22976 18.4407 4.08668 18.5 3.9375 18.5H0.5625C0.413316 18.5 0.270242 18.4407 0.164752 18.3352C0.0592632 18.2298 0 18.0867 0 17.9375V14.5625C0 14.4133 0.0592632 14.2702 0.164752 14.1648C0.270242 14.0593 0.413316 14 0.5625 14ZM17.4375 14C17.5867 14 17.7298 14.0593 17.8352 14.1648C17.9407 14.2702 18 14.4133 18 14.5625V17.9375C18 18.0867 17.9407 18.2298 17.8352 18.3352C17.7298 18.4407 17.5867 18.5 17.4375 18.5H14.0625C13.9133 18.5 13.7702 18.4407 13.6648 18.3352C13.5593 18.2298 13.5 18.0867 13.5 17.9375C13.5 17.7883 13.5593 17.6452 13.6648 17.5398C13.7702 17.4343 13.9133 17.375 14.0625 17.375H16.875V14.5625C16.875 14.4133 16.9343 14.2702 17.0398 14.1648C17.1452 14.0593 17.2883 14 17.4375 14ZM4.5 5H5.625V6.125H4.5V5Z" fill="#B9B9B9"/>
<path d="M7.875 2.75H2.25V8.375H7.875V2.75ZM3.375 3.875H6.75V7.25H3.375V3.875ZM5.625 12.875H4.5V14H5.625V12.875Z" fill="#B9B9B9"/>
<path d="M7.875 10.625H2.25V16.25H7.875V10.625ZM3.375 11.75H6.75V15.125H3.375V11.75ZM12.375 5H13.5V6.125H12.375V5Z" fill="#B9B9B9"/>
<path d="M10.125 2.75H15.75V8.375H10.125V2.75ZM11.25 3.875V7.25H14.625V3.875H11.25ZM9 9.5V11.75H10.125V12.875H9V14H11.25V11.75H12.375V14H13.5V12.875H15.75V11.75H12.375V9.5H9ZM11.25 11.75H10.125V10.625H11.25V11.75ZM15.75 14H14.625V15.125H12.375V16.25H15.75V14ZM11.25 16.25V15.125H9V16.25H11.25Z" fill="#B9B9B9"/>
<path d="M13.5 10.625H15.75V9.5H13.5V10.625Z" fill="#B9B9B9"/>
</svg>
