<svg width="23" height="24" viewBox="0 0 23 24" fill="none" xmlns="http://www.w3.org/2000/svg">
<path fill-rule="evenodd" clip-rule="evenodd" d="M19.6154 8.17363C20.0972 8.2133 20.4565 8.63447 20.418 9.1163C20.411 9.19563 19.7787 17.0251 19.4147 20.3093C19.1884 22.3475 17.842 23.5876 15.8097 23.625C14.2545 23.6518 12.7542 23.667 11.2877 23.667C9.70687 23.667 8.1657 23.6495 6.64087 23.618C4.6902 23.5795 3.34037 22.3148 3.11987 20.3175C2.75237 17.0041 2.12353 9.19447 2.1177 9.1163C2.07803 8.63447 2.43737 8.21213 2.9192 8.17363C3.39403 8.1608 3.82337 8.49447 3.86187 8.97514C3.86559 9.02577 4.12266 12.215 4.40281 15.3705L4.45907 16.0002C4.60017 17.5686 4.7432 19.0757 4.85937 20.125C4.9842 21.2601 5.5967 21.8458 6.67703 21.868C9.5937 21.9298 12.5699 21.9333 15.7782 21.875C16.9262 21.8528 17.5469 21.2788 17.6752 20.1168C18.0369 16.8571 18.6669 9.05447 18.6739 8.97514C18.7124 8.49447 19.1382 8.15847 19.6154 8.17363ZM13.7363 0.333984C14.8073 0.333984 15.7488 1.05615 16.0253 2.09098L16.3216 3.56215C16.4174 4.04442 16.8406 4.39662 17.3307 4.40435L21.1593 4.40448C21.6423 4.40448 22.0343 4.79648 22.0343 5.27948C22.0343 5.76248 21.6423 6.15448 21.1593 6.15448L17.3648 6.15431C17.359 6.15443 17.3531 6.15448 17.3471 6.15448L17.3187 6.15332L5.21522 6.15434C5.20581 6.15444 5.19639 6.15448 5.18697 6.15448L5.169 6.15332L1.375 6.15448C0.892 6.15448 0.5 5.76248 0.5 5.27948C0.5 4.79648 0.892 4.40448 1.375 4.40448L5.20283 4.40332L5.32069 4.39586C5.75969 4.3389 6.12454 4.00548 6.21363 3.56215L6.49713 2.14348C6.7853 1.05615 7.7268 0.333984 8.7978 0.333984H13.7363ZM13.7363 2.08398H8.7978C8.5178 2.08398 8.27163 2.27182 8.20047 2.54132L7.92863 3.90632C7.89409 4.07921 7.84378 4.24583 7.7794 4.4048H14.7551C14.6906 4.24583 14.6402 4.07921 14.6055 3.90632L14.322 2.48765C14.2625 2.27182 14.0163 2.08398 13.7363 2.08398Z" fill="#B4B4B4"/>
</svg>
