<svg width="36" height="33" viewBox="0 0 36 33" fill="none" xmlns="http://www.w3.org/2000/svg">
<path d="M0.5 2.38184C0.5 1.91771 0.684374 1.47259 1.01256 1.1444C1.34075 0.81621 1.78587 0.631836 2.25 0.631836H33.75C34.2141 0.631836 34.6592 0.81621 34.9874 1.1444C35.3156 1.47259 35.5 1.91771 35.5 2.38184V12.0068C34.3397 12.0068 33.2269 12.4678 32.4064 13.2882C31.5859 14.1087 31.125 15.2215 31.125 16.3818C31.125 17.5422 31.5859 18.655 32.4064 19.4754C33.2269 20.2959 34.3397 20.7568 35.5 20.7568V30.3818C35.5 30.846 35.3156 31.2911 34.9874 31.6193C34.6592 31.9475 34.2141 32.1318 33.75 32.1318H2.25C1.78587 32.1318 1.34075 31.9475 1.01256 31.6193C0.684374 31.2911 0.5 30.846 0.5 30.3818V2.38184ZM11.1488 28.6318C11.3291 28.1191 11.6642 27.675 12.1078 27.3608C12.5513 27.0467 13.0815 26.8779 13.625 26.8779C14.1685 26.8779 14.6987 27.0467 15.1422 27.3608C15.5858 27.675 15.9209 28.1191 16.1012 28.6318H32V23.4378C30.6854 22.7863 29.5789 21.7805 28.8054 20.5338C28.0318 19.2871 27.6219 17.849 27.6219 16.3818C27.6219 14.9146 28.0318 13.4766 28.8054 12.2299C29.5789 10.9832 30.6854 9.97735 32 9.32584V4.13184H16.1012C15.9209 4.64458 15.5858 5.08868 15.1422 5.40285C14.6987 5.71701 14.1685 5.88574 13.625 5.88574C13.0815 5.88574 12.5513 5.71701 12.1078 5.40285C11.6642 5.08868 11.3291 4.64458 11.1488 4.13184H4V28.6318H11.1488ZM13.625 14.6318C12.9288 14.6318 12.2611 14.3553 11.7688 13.863C11.2766 13.3707 11 12.703 11 12.0068C11 11.3106 11.2766 10.643 11.7688 10.1507C12.2611 9.6584 12.9288 9.38184 13.625 9.38184C14.3212 9.38184 14.9889 9.6584 15.4812 10.1507C15.9734 10.643 16.25 11.3106 16.25 12.0068C16.25 12.703 15.9734 13.3707 15.4812 13.863C14.9889 14.3553 14.3212 14.6318 13.625 14.6318ZM13.625 23.3818C12.9288 23.3818 12.2611 23.1053 11.7688 22.613C11.2766 22.1207 11 21.453 11 20.7568C11 20.0606 11.2766 19.393 11.7688 18.9007C12.2611 18.4084 12.9288 18.1318 13.625 18.1318C14.3212 18.1318 14.9889 18.4084 15.4812 18.9007C15.9734 19.393 16.25 20.0606 16.25 20.7568C16.25 21.453 15.9734 22.1207 15.4812 22.613C14.9889 23.1053 14.3212 23.3818 13.625 23.3818Z" fill="white"/>
</svg>
