<svg width="34" height="26" viewBox="0 0 34 26" fill="none" xmlns="http://www.w3.org/2000/svg">
<path d="M12.8 9.85039C12.8 10.6858 12.4681 11.487 11.8773 12.0778C11.2866 12.6685 10.4854 13.0004 9.64995 13.0004C8.81452 13.0004 8.0133 12.6685 7.42256 12.0778C6.83182 11.487 6.49995 10.6858 6.49995 9.85039C6.49995 9.01496 6.83182 8.21374 7.42256 7.623C8.0133 7.03226 8.81452 6.70039 9.64995 6.70039C10.4854 6.70039 11.2866 7.03226 11.8773 7.623C12.4681 8.21374 12.8 9.01496 12.8 9.85039ZM4.39995 16.5683C4.40051 16.0399 4.61065 15.5333 4.98427 15.1597C5.35789 14.7861 5.86447 14.5759 6.39285 14.5754H12.905C13.4333 14.5759 13.9399 14.7861 14.3135 15.1597C14.6872 15.5333 14.8973 16.0399 14.8979 16.5683C14.8979 18.347 13.6862 19.8968 11.96 20.3294L11.8361 20.3609C10.3997 20.7179 8.89605 20.7179 7.45965 20.3609L7.33365 20.3294C6.49538 20.1192 5.75139 19.6349 5.21986 18.9535C4.68833 18.272 4.39975 17.4325 4.39995 16.5683ZM20.15 8.80039C19.8715 8.80039 19.6044 8.91102 19.4075 9.10793C19.2106 9.30484 19.1 9.57191 19.1 9.85039C19.1 10.1289 19.2106 10.3959 19.4075 10.5929C19.6044 10.7898 19.8715 10.9004 20.15 10.9004H26.4499C26.7284 10.9004 26.9955 10.7898 27.1924 10.5929C27.3893 10.3959 27.5 10.1289 27.5 9.85039C27.5 9.57191 27.3893 9.30484 27.1924 9.10793C26.9955 8.91102 26.7284 8.80039 26.4499 8.80039H20.15ZM20.15 15.1004C19.8715 15.1004 19.6044 15.211 19.4075 15.4079C19.2106 15.6048 19.1 15.8719 19.1 16.1504C19.1 16.4289 19.2106 16.6959 19.4075 16.8929C19.6044 17.0898 19.8715 17.2004 20.15 17.2004H26.4499C26.7284 17.2004 26.9955 17.0898 27.1924 16.8929C27.3893 16.6959 27.5 16.4289 27.5 16.1504C27.5 15.8719 27.3893 15.6048 27.1924 15.4079C26.9955 15.211 26.7284 15.1004 26.4499 15.1004H20.15ZM0.199951 4.07539C0.199951 2.04679 1.84635 0.400391 3.87495 0.400391H30.125C32.1535 0.400391 33.7999 2.04679 33.7999 4.07539V21.9254C33.7999 22.9001 33.4128 23.8348 32.7236 24.524C32.0344 25.2132 31.0996 25.6004 30.125 25.6004H3.87495C2.90028 25.6004 1.96553 25.2132 1.27633 24.524C0.587138 23.8348 0.199951 22.9001 0.199951 21.9254V4.07539ZM3.87495 2.50039C3.45724 2.50039 3.05663 2.66633 2.76126 2.9617C2.46589 3.25707 2.29995 3.65767 2.29995 4.07539V21.9254C2.29995 22.7948 3.00555 23.5004 3.87495 23.5004H30.125C30.5427 23.5004 30.9433 23.3345 31.2386 23.0391C31.534 22.7437 31.6999 22.3431 31.6999 21.9254V4.07539C31.6999 3.65767 31.534 3.25707 31.2386 2.9617C30.9433 2.66633 30.5427 2.50039 30.125 2.50039H3.87495Z" fill="#A7A7A7"/>
</svg>
