<svg width="36" height="33" viewBox="0 0 36 33" fill="none" xmlns="http://www.w3.org/2000/svg">
<path d="M26.644 0.75C28.9907 0.75 31.2482 1.6775 32.909 3.34175C34.5715 5.0025 35.5007 7.2425 35.5007 9.5875V23.4125C35.5007 28.295 31.5282 32.25 26.644 32.25H9.35573C4.47148 32.25 0.500732 28.295 0.500732 23.4125V9.5875C0.500732 4.705 4.45398 0.75 9.35573 0.75H26.644ZM28.6232 9.85C28.2557 9.83075 27.9057 9.955 27.6415 10.2L19.7507 16.5C18.7357 17.3417 17.2815 17.3417 16.2507 16.5L8.37573 10.2C7.83148 9.7975 7.07898 9.85 6.62573 10.3225C6.15323 10.795 6.10073 11.5475 6.50148 12.0725L6.73073 12.3L14.6932 18.5125C15.6732 19.2825 16.8615 19.7025 18.1057 19.7025C19.3465 19.7025 20.5557 19.2825 21.534 18.5125L29.4282 12.195L29.5682 12.055C29.9865 11.5475 29.9865 10.8125 29.549 10.305C29.3057 10.0443 28.9715 9.885 28.6232 9.85Z" fill="url(#paint0_linear_176_745)"/>
<defs>
<linearGradient id="paint0_linear_176_745" x1="1.0745" y1="0.749998" x2="36.16" y2="5.42507" gradientUnits="userSpaceOnUse">
<stop stop-color="#EDD78F"/>
<stop offset="1" stop-color="#FDBF4A"/>
</linearGradient>
</defs>
</svg>

