<svg width="18" height="20" viewBox="0 0 18 20" fill="none" xmlns="http://www.w3.org/2000/svg">
<path d="M2.796 5.16088C2.796 4.78119 3.07816 4.46739 3.44423 4.41773L3.546 4.41088L15.346 4.41099L12.5386 1.61477C12.245 1.32255 12.2439 0.847681 12.5361 0.554111C12.8018 0.28723 13.2184 0.262062 13.5125 0.479237L13.5968 0.551661L17.6934 4.62944C17.7176 4.65402 17.7395 4.67904 17.7597 4.70544L17.6934 4.62944C17.7304 4.66623 17.7627 4.70591 17.7904 4.74776C17.7995 4.76236 17.8088 4.77754 17.8175 4.79306C17.8262 4.80746 17.8338 4.82211 17.841 4.83695C17.8474 4.85159 17.854 4.86645 17.86 4.88155C17.8682 4.90073 17.8752 4.92041 17.8813 4.94028C17.8844 4.95201 17.8878 4.96401 17.8909 4.97614C17.8968 4.99774 17.9013 5.01944 17.9048 5.04127C17.9059 5.05149 17.9074 5.0622 17.9087 5.07299C17.9121 5.09763 17.9137 5.12205 17.9142 5.14649C17.9137 5.15132 17.9138 5.1561 17.9138 5.16088L17.9142 5.17549C17.9137 5.19993 17.9121 5.22435 17.9092 5.24866L17.9138 5.16088C17.9138 5.20174 17.9105 5.24183 17.9042 5.28092C17.9013 5.30254 17.8968 5.32425 17.8913 5.34576C17.8879 5.35713 17.8848 5.36853 17.8813 5.37982C17.8753 5.40131 17.8678 5.42268 17.8592 5.44373C17.8539 5.45526 17.8491 5.46637 17.8439 5.47734C17.8366 5.49462 17.8277 5.51193 17.8181 5.52896C17.8087 5.5443 17.7995 5.55944 17.7897 5.57421C17.7828 5.58576 17.7748 5.59713 17.7665 5.60831L17.7597 5.61633C17.7395 5.64272 17.7176 5.66774 17.6941 5.69121L17.6934 5.69255L13.5968 9.77032C13.3032 10.0625 12.8283 10.0614 12.5361 9.76787C12.2705 9.50099 12.2472 9.08427 12.4658 8.79117L12.5386 8.70722L15.348 5.91099L3.546 5.91088C3.13179 5.91088 2.796 5.57509 2.796 5.16088ZM0.0824475 15.0893L0.0820313 15.0747C0.0825008 15.0503 0.0841578 15.0259 0.0870022 15.0015L0.0824475 15.0893C0.0824475 15.0485 0.0857147 15.0084 0.0920019 14.9693C0.0949236 14.9479 0.0993396 14.9265 0.104701 14.9052C0.10837 14.8927 0.111948 14.8799 0.115849 14.8673C0.121401 14.8476 0.12815 14.8286 0.135691 14.8098C0.141748 14.7961 0.147768 14.7824 0.154182 14.7688C0.161145 14.7527 0.16934 14.7369 0.178138 14.7213C0.186368 14.7079 0.194386 14.6946 0.202794 14.6817C0.210723 14.6684 0.220002 14.655 0.229765 14.6419L0.302789 14.5577L4.39946 10.4799C4.69302 10.1877 5.1679 10.1888 5.46011 10.4823C5.72576 10.7492 5.74901 11.1659 5.53047 11.459L5.45766 11.543L2.64703 14.34L14.4502 14.3393C14.8644 14.3393 15.2002 14.6751 15.2002 15.0893C15.2002 15.469 14.9181 15.7828 14.552 15.8325L14.4502 15.8393L2.64803 15.84L5.45766 18.6354C5.72454 18.9011 5.74971 19.3177 5.53254 19.6118L5.46011 19.6961C5.19446 19.963 4.77786 19.9881 4.48374 19.771L4.39946 19.6985L0.302789 15.6208L0.262292 15.5766C0.25342 15.5662 0.244826 15.5556 0.236522 15.5448L0.302789 15.6208C0.265827 15.584 0.233504 15.5443 0.205819 15.5024C0.196723 15.4878 0.187436 15.4727 0.178686 15.4572C0.170002 15.4427 0.162382 15.4281 0.155278 15.4133C0.148796 15.3986 0.142255 15.3838 0.136192 15.3687C0.127989 15.3495 0.121044 15.3298 0.114943 15.3099C0.111695 15.2978 0.108232 15.2854 0.105084 15.2729C0.0995502 15.2528 0.0953195 15.2324 0.0919409 15.2119C0.0904003 15.1996 0.0887204 15.1875 0.0873313 15.1754C0.0841507 15.1522 0.0825393 15.1285 0.0820511 15.1047C0.082498 15.0995 0.0824475 15.0944 0.0824475 15.0893Z" fill="white"/>
</svg>
