<svg width="14" height="12" viewBox="0 0 14 12" fill="none" xmlns="http://www.w3.org/2000/svg">
<path d="M5.18747 6C5.18747 6.46413 5.37184 6.90925 5.70003 7.23744C6.02822 7.56563 6.47334 7.75 6.93747 7.75C7.4016 7.75 7.84672 7.56563 8.17491 7.23744C8.50309 6.90925 8.68747 6.46413 8.68747 6C8.68747 5.53587 8.50309 5.09075 8.17491 4.76256C7.84672 4.43437 7.4016 4.25 6.93747 4.25C6.47334 4.25 6.02822 4.43437 5.70003 4.76256C5.37184 5.09075 5.18747 5.53587 5.18747 6V6ZM13.7218 5.59688C12.2406 2.47656 10.0015 0.90625 6.99997 0.90625C3.99684 0.90625 1.75934 2.47656 0.278093 5.59844C0.21868 5.72425 0.187866 5.86165 0.187866 6.00078C0.187866 6.13991 0.21868 6.27732 0.278093 6.40312C1.75934 9.52344 3.99841 11.0938 6.99997 11.0938C10.0031 11.0938 12.2406 9.52344 13.7218 6.40156C13.8422 6.14844 13.8422 5.85469 13.7218 5.59688V5.59688ZM6.93747 8.75C5.41872 8.75 4.18747 7.51875 4.18747 6C4.18747 4.48125 5.41872 3.25 6.93747 3.25C8.45622 3.25 9.68747 4.48125 9.68747 6C9.68747 7.51875 8.45622 8.75 6.93747 8.75Z" fill="#858585"/>
</svg>
