<svg width="37" height="36" viewBox="0 0 37 36" fill="none" xmlns="http://www.w3.org/2000/svg">
<path d="M0.0078125 18C0.0078125 22.7739 1.90424 27.3523 5.27989 30.7279C8.65555 34.1036 13.2339 36 18.0078 36C22.7817 36 27.3601 34.1036 30.7357 30.7279C34.1114 27.3523 36.0078 22.7739 36.0078 18C36.0078 13.2261 34.1114 8.64773 30.7357 5.27208C27.3601 1.89642 22.7817 0 18.0078 0C13.2339 0 8.65555 1.89642 5.27989 5.27208C1.90424 8.64773 0.0078125 13.2261 0.0078125 18Z" fill="#393939"/>
<path d="M19.8496 11.8635H22.9178V8.18164H19.8496C18.7108 8.18294 17.619 8.63591 16.8137 9.44118C16.0084 10.2465 15.5555 11.3383 15.5542 12.4771V14.318H13.0996V17.9998H15.5542V27.818H19.236V17.9998H22.3042L22.9178 14.318H19.236V12.4771C19.2381 12.315 19.3034 12.1602 19.418 12.0455C19.5327 11.9309 19.6875 11.8656 19.8496 11.8635Z" fill="#1877F2"/>
<path d="M18.0078 0C27.9487 0 36.0078 8.05909 36.0078 18C36.0078 27.9409 27.9487 36 18.0078 36C8.0669 36 0.0078125 27.9409 0.0078125 18C0.0078125 8.05909 8.0669 0 18.0078 0ZM18.0078 0.818182C8.51854 0.818182 0.825994 8.51073 0.825994 18C0.825994 27.4893 8.51854 35.1818 18.0078 35.1818C27.4971 35.1818 35.1896 27.4893 35.1896 18C35.1896 8.51073 27.4971 0.818182 18.0078 0.818182Z" fill="#393939"/>
</svg>
