<svg width="364" height="27" viewBox="0 0 364 27" fill="none" xmlns="http://www.w3.org/2000/svg">
<path d="M1.75781 22V6H7.61719C8.7526 6 9.69271 6.1875 10.4375 6.5625C11.1823 6.93229 11.7396 7.4349 12.1094 8.07031C12.4792 8.70052 12.6641 9.41146 12.6641 10.2031C12.6641 10.8698 12.5417 11.4323 12.2969 11.8906C12.0521 12.3437 11.724 12.7083 11.3125 12.9844C10.9063 13.2552 10.4583 13.4531 9.96875 13.5781V13.7344C10.5 13.7604 11.0182 13.9323 11.5234 14.25C12.0339 14.5625 12.4557 15.0078 12.7891 15.5859C13.1224 16.1641 13.2891 16.8672 13.2891 17.6953C13.2891 18.513 13.0964 19.2474 12.7109 19.8984C12.3307 20.5443 11.7422 21.0573 10.9453 21.4375C10.1484 21.8125 9.13021 22 7.89063 22H1.75781ZM4.17188 19.9297H7.65625C8.8125 19.9297 9.64063 19.7057 10.1406 19.2578C10.6406 18.8099 10.8906 18.25 10.8906 17.5781C10.8906 17.0729 10.763 16.6094 10.5078 16.1875C10.2526 15.7656 9.88802 15.4297 9.41406 15.1797C8.94531 14.9297 8.38802 14.8047 7.74219 14.8047H4.17188V19.9297ZM4.17188 12.9219H7.40625C7.94792 12.9219 8.4349 12.8177 8.86719 12.6094C9.30469 12.401 9.65104 12.1094 9.90625 11.7344C10.1667 11.3542 10.2969 10.9062 10.2969 10.3906C10.2969 9.72917 10.0651 9.17448 9.60156 8.72656C9.13802 8.27865 8.42708 8.05469 7.46875 8.05469H4.17188V12.9219ZM14.7033 8.07812V6H27.0861V8.07812H22.0939V22H19.6877V8.07812H14.7033ZM41.764 11.2031H39.3265C39.2327 10.6823 39.0583 10.224 38.803 9.82812C38.5478 9.43229 38.2353 9.09635 37.8655 8.82031C37.4958 8.54427 37.0817 8.33594 36.6234 8.19531C36.1702 8.05469 35.6885 7.98437 35.178 7.98437C34.2562 7.98437 33.4307 8.21615 32.7015 8.67969C31.9775 9.14323 31.4046 9.82292 30.9827 10.7187C30.5661 11.6146 30.3577 12.7083 30.3577 14C30.3577 15.3021 30.5661 16.401 30.9827 17.2969C31.4046 18.1927 31.9801 18.8698 32.7093 19.3281C33.4385 19.7865 34.2588 20.0156 35.1702 20.0156C35.6754 20.0156 36.1546 19.9479 36.6077 19.8125C37.0661 19.6719 37.4801 19.4661 37.8499 19.1953C38.2197 18.9245 38.5322 18.5937 38.7874 18.2031C39.0478 17.8073 39.2275 17.3542 39.3265 16.8438L41.764 16.8516C41.6338 17.638 41.3812 18.362 41.0062 19.0234C40.6364 19.6797 40.1598 20.2474 39.5765 20.7266C38.9984 21.2005 38.3369 21.5677 37.5921 21.8281C36.8473 22.0885 36.0348 22.2187 35.1546 22.2187C33.7692 22.2187 32.5348 21.8906 31.4515 21.2344C30.3682 20.5729 29.514 19.6276 28.889 18.3984C28.2692 17.1693 27.9593 15.7031 27.9593 14C27.9593 12.2917 28.2718 10.8255 28.8968 9.60156C29.5218 8.3724 30.376 7.42969 31.4593 6.77344C32.5426 6.11198 33.7744 5.78125 35.1546 5.78125C36.0036 5.78125 36.7952 5.90365 37.5296 6.14844C38.2692 6.38802 38.9333 6.74219 39.5218 7.21094C40.1103 7.67448 40.5973 8.24219 40.9827 8.91406C41.3682 9.58073 41.6286 10.3437 41.764 11.2031Z" fill="url(#paint0_linear_100_9667)"/>
<path d="M53.7965 7.16088C53.7965 6.78119 54.0786 6.46739 54.4447 6.41773L54.5465 6.41088L66.3465 6.41099L63.5391 3.61477C63.2455 3.32255 63.2444 2.84768 63.5366 2.55411C63.8023 2.28723 64.2189 2.26206 64.513 2.47924L64.5973 2.55166L68.6939 6.62944C68.7181 6.65402 68.74 6.67904 68.7602 6.70544L68.6939 6.62944C68.7309 6.66623 68.7632 6.70591 68.7909 6.74776C68.8 6.76236 68.8093 6.77754 68.818 6.79306C68.8267 6.80746 68.8343 6.82211 68.8414 6.83695C68.8479 6.85159 68.8545 6.86645 68.8605 6.88155C68.8687 6.90073 68.8757 6.92041 68.8818 6.94028C68.8849 6.95201 68.8883 6.96401 68.8913 6.97614C68.8973 6.99774 68.9018 7.01944 68.9053 7.04127C68.9064 7.05149 68.9079 7.0622 68.9092 7.07299C68.9126 7.09763 68.9142 7.12205 68.9147 7.14649C68.9142 7.15132 68.9143 7.1561 68.9143 7.16088L68.9147 7.17549C68.9142 7.19993 68.9126 7.22435 68.9097 7.24866L68.9143 7.16088C68.9143 7.20174 68.911 7.24183 68.9047 7.28092C68.9018 7.30254 68.8973 7.32425 68.8918 7.34576C68.8884 7.35713 68.8853 7.36853 68.8818 7.37982C68.8758 7.40131 68.8683 7.42268 68.8597 7.44373C68.8544 7.45526 68.8495 7.46637 68.8444 7.47734C68.837 7.49462 68.8282 7.51193 68.8186 7.52896C68.8092 7.5443 68.8 7.55944 68.7902 7.57421C68.7833 7.58576 68.7753 7.59713 68.767 7.60831L68.7602 7.61633C68.74 7.64272 68.7181 7.66774 68.6946 7.69121L68.6939 7.69255L64.5973 11.7703C64.3037 12.0625 63.8288 12.0614 63.5366 11.7679C63.271 11.501 63.2477 11.0843 63.4662 10.7912L63.5391 10.7072L66.3485 7.91099L54.5465 7.91088C54.1323 7.91088 53.7965 7.57509 53.7965 7.16088ZM51.0829 17.0893L51.0825 17.0747C51.083 17.0503 51.0846 17.0259 51.0875 17.0015L51.0829 17.0893C51.0829 17.0485 51.0862 17.0084 51.0925 16.9693C51.0954 16.9479 51.0998 16.9265 51.1052 16.9052C51.1089 16.8927 51.1124 16.8799 51.1163 16.8673C51.1219 16.8476 51.1286 16.8286 51.1362 16.8098C51.1422 16.7961 51.1483 16.7824 51.1547 16.7688C51.1616 16.7527 51.1698 16.7369 51.1786 16.7213C51.1869 16.7079 51.1949 16.6946 51.2033 16.6817C51.2112 16.6684 51.2205 16.655 51.2303 16.6419L51.3033 16.5577L55.3999 12.4799C55.6935 12.1877 56.1684 12.1888 56.4606 12.4823C56.7263 12.7492 56.7495 13.1659 56.531 13.459L56.4581 13.543L53.6475 16.34L65.4507 16.3393C65.8649 16.3393 66.2007 16.6751 66.2007 17.0893C66.2007 17.469 65.9186 17.7828 65.5525 17.8325L65.4507 17.8393L53.6485 17.84L56.4581 20.6354C56.725 20.9011 56.7502 21.3177 56.533 21.6118L56.4606 21.6961C56.195 21.963 55.7783 21.9881 55.4842 21.771L55.3999 21.6985L51.3033 17.6208L51.2628 17.5766C51.2539 17.5662 51.2453 17.5556 51.237 17.5448L51.3033 17.6208C51.2663 17.584 51.234 17.5443 51.2063 17.5024C51.1972 17.4878 51.1879 17.4727 51.1792 17.4572C51.1705 17.4427 51.1629 17.4281 51.1558 17.4133C51.1493 17.3986 51.1427 17.3838 51.1367 17.3687C51.1285 17.3495 51.1215 17.3298 51.1154 17.3099C51.1122 17.2978 51.1087 17.2854 51.1056 17.2729C51.1 17.2528 51.0958 17.2324 51.0924 17.2119C51.0909 17.1996 51.0892 17.1875 51.0878 17.1754C51.0846 17.1522 51.083 17.1285 51.0825 17.1047C51.083 17.0995 51.0829 17.0944 51.0829 17.0893Z" fill="url(#paint1_linear_100_9667)"/>
<path d="M89.0469 6H91.4688V16.5234C91.4688 17.6432 91.2057 18.6354 90.6797 19.5C90.1536 20.3594 89.4141 21.0365 88.4609 21.5312C87.5078 22.0208 86.3906 22.2656 85.1094 22.2656C83.8333 22.2656 82.7188 22.0208 81.7656 21.5312C80.8125 21.0365 80.0729 20.3594 79.5469 19.5C79.0208 18.6354 78.7578 17.6432 78.7578 16.5234V6H81.1719V16.3281C81.1719 17.0521 81.3307 17.6953 81.6484 18.2578C81.9714 18.8203 82.4271 19.263 83.0156 19.5859C83.6042 19.9036 84.3021 20.0625 85.1094 20.0625C85.9219 20.0625 86.6224 19.9036 87.2109 19.5859C87.8047 19.263 88.2578 18.8203 88.5703 18.2578C88.888 17.6953 89.0469 17.0521 89.0469 16.3281V6ZM103.045 10.2031C102.962 9.46354 102.618 8.89062 102.014 8.48437C101.41 8.07292 100.649 7.86719 99.7326 7.86719C99.0763 7.86719 98.5086 7.97135 98.0295 8.17969C97.5503 8.38281 97.1779 8.66406 96.9123 9.02344C96.6518 9.3776 96.5216 9.78125 96.5216 10.2344C96.5216 10.6146 96.6102 10.9427 96.7873 11.2187C96.9696 11.4948 97.2065 11.7266 97.4982 11.9141C97.7951 12.0964 98.1128 12.25 98.4513 12.375C98.7899 12.4948 99.1154 12.5937 99.4279 12.6719L100.99 13.0781C101.501 13.2031 102.024 13.3724 102.561 13.5859C103.097 13.7995 103.595 14.0807 104.053 14.4297C104.511 14.7786 104.881 15.2109 105.162 15.7266C105.449 16.2422 105.592 16.8594 105.592 17.5781C105.592 18.4844 105.358 19.2891 104.889 19.9922C104.425 20.6953 103.751 21.25 102.865 21.6562C101.985 22.0625 100.92 22.2656 99.6701 22.2656C98.4722 22.2656 97.4357 22.0755 96.5607 21.6953C95.6857 21.3151 95.0008 20.776 94.506 20.0781C94.0112 19.375 93.7378 18.5417 93.6857 17.5781H96.1076C96.1545 18.1562 96.342 18.638 96.6701 19.0234C97.0034 19.4036 97.4279 19.6875 97.9435 19.875C98.4643 20.0573 99.0347 20.1484 99.6545 20.1484C100.337 20.1484 100.944 20.0417 101.475 19.8281C102.011 19.6094 102.433 19.3073 102.74 18.9219C103.048 18.5312 103.201 18.0755 103.201 17.5547C103.201 17.0807 103.066 16.6927 102.795 16.3906C102.529 16.0885 102.167 15.8385 101.709 15.6406C101.256 15.4427 100.743 15.2682 100.17 15.1172L98.2795 14.6016C96.9982 14.2526 95.9826 13.7396 95.2326 13.0625C94.4878 12.3854 94.1154 11.4896 94.1154 10.375C94.1154 9.45312 94.3654 8.64844 94.8654 7.96094C95.3654 7.27344 96.0425 6.73958 96.8966 6.35938C97.7508 5.97396 98.7143 5.78125 99.7873 5.78125C100.871 5.78125 101.826 5.97135 102.654 6.35156C103.488 6.73177 104.144 7.25521 104.623 7.92187C105.102 8.58333 105.352 9.34375 105.373 10.2031H103.045ZM112.996 22H107.817V6H113.16C114.728 6 116.075 6.32031 117.2 6.96094C118.325 7.59635 119.187 8.51042 119.785 9.70312C120.39 10.8906 120.692 12.3151 120.692 13.9766C120.692 15.6432 120.387 17.0755 119.778 18.2734C119.173 19.4714 118.298 20.3932 117.153 21.0391C116.007 21.6797 114.621 22 112.996 22ZM110.231 19.8906H112.864C114.082 19.8906 115.095 19.6615 115.903 19.2031C116.71 18.7396 117.314 18.0703 117.715 17.1953C118.116 16.3151 118.317 15.2422 118.317 13.9766C118.317 12.7214 118.116 11.6562 117.715 10.7812C117.319 9.90625 116.728 9.24219 115.942 8.78906C115.155 8.33594 114.179 8.10937 113.012 8.10937H110.231V19.8906ZM137.284 17.82C136.917 17.82 136.536 17.7833 136.14 17.71C135.744 17.622 135.333 17.5047 134.908 17.358V16.016C135.377 16.236 135.81 16.4047 136.206 16.522C136.617 16.6247 136.991 16.676 137.328 16.676C137.812 16.676 138.171 16.6027 138.406 16.456C138.655 16.2947 138.78 16.0673 138.78 15.774C138.78 15.5687 138.677 15.378 138.472 15.202C138.267 15.026 137.966 14.8647 137.57 14.718C136.763 14.4247 136.118 14.124 135.634 13.816C135.165 13.4933 134.93 13.0313 134.93 12.43C134.93 11.814 135.179 11.3373 135.678 11C136.177 10.6627 136.851 10.494 137.702 10.494C138.113 10.494 138.516 10.538 138.912 10.626C139.323 10.714 139.733 10.846 140.144 11.022L139.66 12.166C139.264 12.0047 138.897 11.88 138.56 11.792C138.223 11.704 137.907 11.66 137.614 11.66C137.203 11.66 136.888 11.7187 136.668 11.836C136.463 11.9533 136.36 12.1293 136.36 12.364C136.36 12.5547 136.448 12.7307 136.624 12.892C136.815 13.0387 137.093 13.178 137.46 13.31C137.959 13.486 138.413 13.6767 138.824 13.882C139.249 14.0727 139.587 14.3147 139.836 14.608C140.1 14.8867 140.232 15.2533 140.232 15.708C140.232 16.412 139.968 16.94 139.44 17.292C138.927 17.644 138.208 17.82 137.284 17.82ZM137.438 23.21C136.191 23.21 135.018 22.9753 133.918 22.506C132.818 22.0367 131.85 21.3913 131.014 20.57C130.193 19.734 129.547 18.766 129.078 17.666C128.609 16.566 128.374 15.3927 128.374 14.146C128.374 12.8847 128.609 11.7113 129.078 10.626C129.547 9.526 130.193 8.56533 131.014 7.744C131.85 6.908 132.818 6.25533 133.918 5.786C135.018 5.31667 136.191 5.082 137.438 5.082C138.699 5.082 139.873 5.31667 140.958 5.786C142.058 6.25533 143.019 6.908 143.84 7.744C144.676 8.56533 145.329 9.526 145.798 10.626C146.267 11.7113 146.502 12.8847 146.502 14.146C146.502 15.3927 146.267 16.566 145.798 17.666C145.329 18.766 144.676 19.734 143.84 20.57C143.019 21.3913 142.058 22.0367 140.958 22.506C139.873 22.9753 138.699 23.21 137.438 23.21ZM137.438 21.978C138.523 21.978 139.535 21.78 140.474 21.384C141.427 20.9733 142.263 20.4087 142.982 19.69C143.701 18.9713 144.258 18.1427 144.654 17.204C145.065 16.2507 145.27 15.2313 145.27 14.146C145.27 13.0607 145.065 12.0487 144.654 11.11C144.258 10.1567 143.701 9.32067 142.982 8.602C142.263 7.88333 141.427 7.326 140.474 6.93C139.535 6.51933 138.523 6.314 137.438 6.314C136.353 6.314 135.333 6.51933 134.38 6.93C133.441 7.326 132.613 7.88333 131.894 8.602C131.175 9.32067 130.611 10.1567 130.2 11.11C129.804 12.0487 129.606 13.0607 129.606 14.146C129.606 15.2313 129.804 16.2507 130.2 17.204C130.611 18.1427 131.175 18.9713 131.894 19.69C132.613 20.4087 133.441 20.9733 134.38 21.384C135.333 21.78 136.353 21.978 137.438 21.978Z" fill="url(#paint2_linear_100_9667)"/>
<path d="M230.758 22V6H236.617C237.753 6 238.693 6.1875 239.438 6.5625C240.182 6.93229 240.74 7.4349 241.109 8.07031C241.479 8.70052 241.664 9.41146 241.664 10.2031C241.664 10.8698 241.542 11.4323 241.297 11.8906C241.052 12.3437 240.724 12.7083 240.313 12.9844C239.906 13.2552 239.458 13.4531 238.969 13.5781V13.7344C239.5 13.7604 240.018 13.9323 240.523 14.25C241.034 14.5625 241.456 15.0078 241.789 15.5859C242.122 16.1641 242.289 16.8672 242.289 17.6953C242.289 18.513 242.096 19.2474 241.711 19.8984C241.331 20.5443 240.742 21.0573 239.945 21.4375C239.148 21.8125 238.13 22 236.891 22H230.758ZM233.172 19.9297H236.656C237.813 19.9297 238.641 19.7057 239.141 19.2578C239.641 18.8099 239.891 18.25 239.891 17.5781C239.891 17.0729 239.763 16.6094 239.508 16.1875C239.253 15.7656 238.888 15.4297 238.414 15.1797C237.945 14.9297 237.388 14.8047 236.742 14.8047H233.172V19.9297ZM233.172 12.9219H236.406C236.948 12.9219 237.435 12.8177 237.867 12.6094C238.305 12.401 238.651 12.1094 238.906 11.7344C239.167 11.3542 239.297 10.9062 239.297 10.3906C239.297 9.72917 239.065 9.17448 238.602 8.72656C238.138 8.27865 237.427 8.05469 236.469 8.05469H233.172V12.9219ZM243.703 8.07812V6H256.086V8.07812H251.094V22H248.688V8.07812H243.703ZM270.764 11.2031H268.326C268.233 10.6823 268.058 10.224 267.803 9.82812C267.548 9.43229 267.235 9.09635 266.866 8.82031C266.496 8.54427 266.082 8.33594 265.623 8.19531C265.17 8.05469 264.688 7.98437 264.178 7.98437C263.256 7.98437 262.431 8.21615 261.701 8.67969C260.978 9.14323 260.405 9.82292 259.983 10.7187C259.566 11.6146 259.358 12.7083 259.358 14C259.358 15.3021 259.566 16.401 259.983 17.2969C260.405 18.1927 260.98 18.8698 261.709 19.3281C262.438 19.7865 263.259 20.0156 264.17 20.0156C264.675 20.0156 265.155 19.9479 265.608 19.8125C266.066 19.6719 266.48 19.4661 266.85 19.1953C267.22 18.9245 267.532 18.5937 267.787 18.2031C268.048 17.8073 268.228 17.3542 268.326 16.8438L270.764 16.8516C270.634 17.638 270.381 18.362 270.006 19.0234C269.636 19.6797 269.16 20.2474 268.576 20.7266C267.998 21.2005 267.337 21.5677 266.592 21.8281C265.847 22.0885 265.035 22.2187 264.155 22.2187C262.769 22.2187 261.535 21.8906 260.451 21.2344C259.368 20.5729 258.514 19.6276 257.889 18.3984C257.269 17.1693 256.959 15.7031 256.959 14C256.959 12.2917 257.272 10.8255 257.897 9.60156C258.522 8.3724 259.376 7.42969 260.459 6.77344C261.543 6.11198 262.774 5.78125 264.155 5.78125C265.004 5.78125 265.795 5.90365 266.53 6.14844C267.269 6.38802 267.933 6.74219 268.522 7.21094C269.11 7.67448 269.597 8.24219 269.983 8.91406C270.368 9.58073 270.629 10.3437 270.764 11.2031Z" fill="#787878"/>
<path d="M282.796 7.16088C282.796 6.78119 283.079 6.46739 283.445 6.41773L283.546 6.41088L295.347 6.41099L292.539 3.61477C292.245 3.32255 292.244 2.84768 292.537 2.55411C292.802 2.28723 293.219 2.26206 293.513 2.47924L293.597 2.55166L297.694 6.62944C297.718 6.65402 297.74 6.67904 297.76 6.70544L297.694 6.62944C297.731 6.66623 297.763 6.70591 297.791 6.74776C297.8 6.76236 297.809 6.77754 297.818 6.79306C297.827 6.80746 297.834 6.82211 297.841 6.83695C297.848 6.85159 297.854 6.86645 297.861 6.88155C297.869 6.90073 297.876 6.92041 297.882 6.94028C297.885 6.95201 297.888 6.96401 297.891 6.97614C297.897 6.99774 297.902 7.01944 297.905 7.04127C297.906 7.05149 297.908 7.0622 297.909 7.07299C297.913 7.09763 297.914 7.12205 297.915 7.14649C297.914 7.15132 297.914 7.1561 297.914 7.16088L297.915 7.17549C297.914 7.19993 297.913 7.22435 297.91 7.24866L297.914 7.16088C297.914 7.20174 297.911 7.24183 297.905 7.28092C297.902 7.30254 297.897 7.32425 297.892 7.34576C297.888 7.35713 297.885 7.36853 297.882 7.37982C297.876 7.40131 297.868 7.42268 297.86 7.44373C297.854 7.45526 297.85 7.46637 297.844 7.47734C297.837 7.49462 297.828 7.51193 297.819 7.52896C297.809 7.5443 297.8 7.55944 297.79 7.57421C297.783 7.58576 297.775 7.59713 297.767 7.60831L297.76 7.61633C297.74 7.64272 297.718 7.66774 297.695 7.69121L297.694 7.69255L293.597 11.7703C293.304 12.0625 292.829 12.0614 292.537 11.7679C292.271 11.501 292.248 11.0843 292.466 10.7912L292.539 10.7072L295.349 7.91099L283.546 7.91088C283.132 7.91088 282.796 7.57509 282.796 7.16088ZM280.083 17.0893L280.083 17.0747C280.083 17.0503 280.085 17.0259 280.087 17.0015L280.083 17.0893C280.083 17.0485 280.086 17.0084 280.092 16.9693C280.095 16.9479 280.1 16.9265 280.105 16.9052C280.109 16.8927 280.112 16.8799 280.116 16.8673C280.122 16.8476 280.129 16.8286 280.136 16.8098C280.142 16.7961 280.148 16.7824 280.155 16.7688C280.162 16.7527 280.17 16.7369 280.179 16.7213C280.187 16.7079 280.195 16.6946 280.203 16.6817C280.211 16.6684 280.22 16.655 280.23 16.6419L280.303 16.5577L284.4 12.4799C284.694 12.1877 285.168 12.1888 285.461 12.4823C285.726 12.7492 285.749 13.1659 285.531 13.459L285.458 13.543L282.648 16.34L294.451 16.3393C294.865 16.3393 295.201 16.6751 295.201 17.0893C295.201 17.469 294.919 17.7828 294.552 17.8325L294.451 17.8393L282.649 17.84L285.458 20.6354C285.725 20.9011 285.75 21.3177 285.533 21.6118L285.461 21.6961C285.195 21.963 284.778 21.9881 284.484 21.771L284.4 21.6985L280.303 17.6208L280.263 17.5766C280.254 17.5662 280.245 17.5556 280.237 17.5448L280.303 17.6208C280.266 17.584 280.234 17.5443 280.206 17.5024C280.197 17.4878 280.188 17.4727 280.179 17.4572C280.17 17.4427 280.163 17.4281 280.156 17.4133C280.149 17.3986 280.143 17.3838 280.137 17.3687C280.128 17.3495 280.122 17.3298 280.115 17.3099C280.112 17.2978 280.109 17.2854 280.106 17.2729C280.1 17.2528 280.096 17.2324 280.092 17.2119C280.091 17.1996 280.089 17.1875 280.088 17.1754C280.085 17.1522 280.083 17.1285 280.083 17.1047C280.083 17.0995 280.083 17.0944 280.083 17.0893Z" fill="#787878"/>
<path d="M318.047 6H320.469V16.5234C320.469 17.6432 320.206 18.6354 319.68 19.5C319.154 20.3594 318.414 21.0365 317.461 21.5312C316.508 22.0208 315.391 22.2656 314.109 22.2656C312.833 22.2656 311.719 22.0208 310.766 21.5312C309.813 21.0365 309.073 20.3594 308.547 19.5C308.021 18.6354 307.758 17.6432 307.758 16.5234V6H310.172V16.3281C310.172 17.0521 310.331 17.6953 310.648 18.2578C310.971 18.8203 311.427 19.263 312.016 19.5859C312.604 19.9036 313.302 20.0625 314.109 20.0625C314.922 20.0625 315.622 19.9036 316.211 19.5859C316.805 19.263 317.258 18.8203 317.57 18.2578C317.888 17.6953 318.047 17.0521 318.047 16.3281V6ZM332.045 10.2031C331.962 9.46354 331.618 8.89062 331.014 8.48437C330.41 8.07292 329.649 7.86719 328.733 7.86719C328.076 7.86719 327.509 7.97135 327.029 8.17969C326.55 8.38281 326.178 8.66406 325.912 9.02344C325.652 9.3776 325.522 9.78125 325.522 10.2344C325.522 10.6146 325.61 10.9427 325.787 11.2187C325.97 11.4948 326.207 11.7266 326.498 11.9141C326.795 12.0964 327.113 12.25 327.451 12.375C327.79 12.4948 328.115 12.5937 328.428 12.6719L329.99 13.0781C330.501 13.2031 331.024 13.3724 331.561 13.5859C332.097 13.7995 332.595 14.0807 333.053 14.4297C333.511 14.7786 333.881 15.2109 334.162 15.7266C334.449 16.2422 334.592 16.8594 334.592 17.5781C334.592 18.4844 334.358 19.2891 333.889 19.9922C333.425 20.6953 332.751 21.25 331.865 21.6562C330.985 22.0625 329.92 22.2656 328.67 22.2656C327.472 22.2656 326.436 22.0755 325.561 21.6953C324.686 21.3151 324.001 20.776 323.506 20.0781C323.011 19.375 322.738 18.5417 322.686 17.5781H325.108C325.154 18.1562 325.342 18.638 325.67 19.0234C326.003 19.4036 326.428 19.6875 326.944 19.875C327.464 20.0573 328.035 20.1484 328.654 20.1484C329.337 20.1484 329.944 20.0417 330.475 19.8281C331.011 19.6094 331.433 19.3073 331.74 18.9219C332.048 18.5312 332.201 18.0755 332.201 17.5547C332.201 17.0807 332.066 16.6927 331.795 16.3906C331.529 16.0885 331.167 15.8385 330.709 15.6406C330.256 15.4427 329.743 15.2682 329.17 15.1172L327.279 14.6016C325.998 14.2526 324.983 13.7396 324.233 13.0625C323.488 12.3854 323.115 11.4896 323.115 10.375C323.115 9.45312 323.365 8.64844 323.865 7.96094C324.365 7.27344 325.042 6.73958 325.897 6.35938C326.751 5.97396 327.714 5.78125 328.787 5.78125C329.871 5.78125 330.826 5.97135 331.654 6.35156C332.488 6.73177 333.144 7.25521 333.623 7.92187C334.102 8.58333 334.352 9.34375 334.373 10.2031H332.045ZM341.996 22H336.817V6H342.16C343.728 6 345.075 6.32031 346.2 6.96094C347.325 7.59635 348.187 8.51042 348.785 9.70312C349.39 10.8906 349.692 12.3151 349.692 13.9766C349.692 15.6432 349.387 17.0755 348.778 18.2734C348.173 19.4714 347.298 20.3932 346.153 21.0391C345.007 21.6797 343.621 22 341.996 22ZM339.231 19.8906H341.864C343.082 19.8906 344.095 19.6615 344.903 19.2031C345.71 18.7396 346.314 18.0703 346.715 17.1953C347.116 16.3151 347.317 15.2422 347.317 13.9766C347.317 12.7214 347.116 11.6562 346.715 10.7812C346.319 9.90625 345.728 9.24219 344.942 8.78906C344.155 8.33594 343.179 8.10937 342.012 8.10937H339.231V19.8906ZM350.557 8.07812V6H362.94V8.07812H357.948V22H355.541V8.07812H350.557Z" fill="#787878"/>
<defs>
<linearGradient id="paint0_linear_100_9667" x1="0.704918" y1="-1.79445e-06" x2="43.0314" y2="8.08388" gradientUnits="userSpaceOnUse">
<stop stop-color="#EDD78F"/>
<stop offset="1" stop-color="#FDBF4A"/>
</linearGradient>
<linearGradient id="paint1_linear_100_9667" x1="51.0825" y1="21.5959" x2="53.6691" y2="1.95642" gradientUnits="userSpaceOnUse">
<stop stop-color="#EDD78F"/>
<stop offset="1" stop-color="#FDBF4A"/>
</linearGradient>
<linearGradient id="paint2_linear_100_9667" x1="78.1803" y1="-1.79445e-06" x2="144.822" y2="21.3118" gradientUnits="userSpaceOnUse">
<stop stop-color="#EDD78F"/>
<stop offset="1" stop-color="#FDBF4A"/>
</linearGradient>
</defs>
</svg>
