<svg width="72" height="72" viewBox="0 0 72 72" fill="none" xmlns="http://www.w3.org/2000/svg">
<g filter="url(#filter0_d_193_341)">
<circle cx="32" cy="32" r="26" fill="white"/>
</g>
<path d="M25.3125 24.5938C25.3125 23.6406 25.6911 22.7265 26.3651 22.0526C27.039 21.3786 27.9531 21 28.9062 21C29.8594 21 30.7735 21.3786 31.4474 22.0526C32.1214 22.7265 32.5 23.6406 32.5 24.5938C32.5 23.6406 32.8786 22.7265 33.5526 22.0526C34.2265 21.3786 35.1406 21 36.0938 21C37.0469 21 37.961 21.3786 38.6349 22.0526C39.3089 22.7265 39.6875 23.6406 39.6875 24.5938V24.6024C39.6875 24.703 39.6875 24.9905 39.6329 25.3125H42.5625C42.9437 25.3125 43.3094 25.464 43.579 25.7335C43.8485 26.0031 44 26.3688 44 26.75V28.1875C44 28.5687 43.8485 28.9344 43.579 29.204C43.3094 29.4735 42.9437 29.625 42.5625 29.625H22.4375C22.0563 29.625 21.6906 29.4735 21.421 29.204C21.1515 28.9344 21 28.5687 21 28.1875V26.75C21 26.3688 21.1515 26.0031 21.421 25.7335C21.6906 25.464 22.0563 25.3125 22.4375 25.3125H25.3671C25.3292 25.0777 25.3109 24.8402 25.3125 24.6024V24.5938ZM26.8477 25.3125H31.0625V24.5938C31.0625 24.3106 31.0067 24.0302 30.8984 23.7686C30.79 23.507 30.6312 23.2693 30.4309 23.0691C30.2307 22.8688 29.993 22.71 29.7314 22.6016C29.4698 22.4933 29.1894 22.4375 28.9062 22.4375C28.6231 22.4375 28.3427 22.4933 28.0811 22.6016C27.8195 22.71 27.5818 22.8688 27.3816 23.0691C27.1813 23.2693 27.0225 23.507 26.9141 23.7686C26.8058 24.0302 26.75 24.3106 26.75 24.5938C26.75 24.7159 26.7529 24.9876 26.8147 25.2119C26.8233 25.2462 26.8344 25.2798 26.8477 25.3125ZM33.9375 25.3125H38.1523C38.1655 25.2797 38.1765 25.2461 38.1853 25.2119C38.2471 24.9876 38.25 24.7159 38.25 24.5938C38.25 24.0219 38.0228 23.4734 37.6185 23.0691C37.2141 22.6647 36.6656 22.4375 36.0938 22.4375C35.5219 22.4375 34.9734 22.6647 34.5691 23.0691C34.1647 23.4734 33.9375 24.0219 33.9375 24.5938V25.3125ZM42.5625 31.0625V41.8438C42.5625 42.4156 42.3353 42.9641 41.931 43.3685C41.5266 43.7728 40.9781 44 40.4062 44H33.9375V31.0625H42.5625ZM24.5938 44C24.0219 44 23.4734 43.7728 23.0691 43.3685C22.6647 42.9641 22.4375 42.4156 22.4375 41.8438V31.0625H31.0625V44H24.5938Z" fill="url(#paint0_linear_193_341)"/>
<defs>
<filter id="filter0_d_193_341" x="0" y="0" width="72" height="72" filterUnits="userSpaceOnUse" color-interpolation-filters="sRGB">
<feFlood flood-opacity="0" result="BackgroundImageFix"/>
<feColorMatrix in="SourceAlpha" type="matrix" values="0 0 0 0 0 0 0 0 0 0 0 0 0 0 0 0 0 0 127 0" result="hardAlpha"/>
<feOffset dx="4" dy="4"/>
<feGaussianBlur stdDeviation="5"/>
<feComposite in2="hardAlpha" operator="out"/>
<feColorMatrix type="matrix" values="0 0 0 0 0 0 0 0 0 0 0 0 0 0 0 0 0 0 0.1 0"/>
<feBlend mode="normal" in2="BackgroundImageFix" result="effect1_dropShadow_193_341"/>
<feBlend mode="normal" in="SourceGraphic" in2="effect1_dropShadow_193_341" result="shape"/>
</filter>
<linearGradient id="paint0_linear_193_341" x1="21.377" y1="21" x2="44.5099" y2="23.7742" gradientUnits="userSpaceOnUse">
<stop stop-color="#D1A81F"/>
<stop offset="1" stop-color="#FAC460"/>
</linearGradient>
</defs>
</svg>
