<svg width="36" height="37" viewBox="0 0 36 37" fill="none" xmlns="http://www.w3.org/2000/svg">
<path fill-rule="evenodd" clip-rule="evenodd" d="M18 0.5C8.058 0.5 0 8.5595 0 18.5C0 28.4405 8.058 36.5 18 36.5C27.9405 36.5 36 28.4405 36 18.5C36 8.5595 27.9405 0.5 18 0.5ZM18.21 29.027C12.408 29.027 7.71 24.317 7.71 18.5C7.71 12.683 12.408 7.973 18.21 7.973C21.045 7.973 23.415 9.0185 25.233 10.7165L22.272 13.6835V13.6775C21.1695 12.6245 19.7715 12.0845 18.21 12.0845C14.745 12.0845 11.9295 15.0185 11.9295 18.494C11.9295 21.9665 14.745 24.9095 18.21 24.9095C21.354 24.9095 23.493 23.1065 23.934 20.6315H18.21V16.526H28.0875C28.2195 17.231 28.29 17.966 28.29 18.737C28.29 24.752 24.2745 29.027 18.21 29.027Z" fill="url(#paint0_linear_176_784)"/>
<defs>
<linearGradient id="paint0_linear_176_784" x1="0.590164" y1="0.499998" x2="36.7981" y2="4.84217" gradientUnits="userSpaceOnUse">
<stop stop-color="#EDD78F"/>
<stop offset="1" stop-color="#FDBF4A"/>
</linearGradient>
</defs>
</svg>
