<svg width="42" height="42" viewBox="0 0 42 42" fill="none" xmlns="http://www.w3.org/2000/svg">
<path d="M21 0C9.40313 0 0 9.40313 0 21C0 32.5969 9.40313 42 21 42C32.5969 42 42 32.5969 42 21C42 9.40313 32.5969 0 21 0ZM22.0453 31.1813L22.0547 32.6672C22.0547 32.8734 21.8859 33.0469 21.6797 33.0469H20.3484C20.1422 33.0469 19.9734 32.8781 19.9734 32.6719V31.2C15.8109 30.8906 13.8516 28.5188 13.6406 25.9406C13.6219 25.7203 13.7953 25.5328 14.0156 25.5328H16.1813C16.3641 25.5328 16.5234 25.6641 16.5516 25.8422C16.7906 27.3281 17.9484 28.4391 20.025 28.7156V22.0266L18.8672 21.7312C16.4156 21.1453 14.0812 19.6172 14.0812 16.4484C14.0812 13.0312 16.6781 11.1937 19.9969 10.8703V9.32344C19.9969 9.11719 20.1656 8.94844 20.3719 8.94844H21.6891C21.8953 8.94844 22.0641 9.11719 22.0641 9.32344V10.8563C25.275 11.1797 27.6844 13.0547 27.9656 15.975C27.9891 16.1953 27.8156 16.3875 27.5906 16.3875H25.4859C25.2984 16.3875 25.1391 16.2469 25.1156 16.0641C24.9281 14.6953 23.8312 13.5797 22.0453 13.3359V19.6312L23.2359 19.9078C26.2734 20.6578 28.3406 22.1109 28.3406 25.3641C28.3406 28.8937 25.7156 30.8625 22.0453 31.1813ZM16.9969 16.2328C16.9969 17.4234 17.7328 18.3469 19.3172 18.9188C19.5375 19.0078 19.7578 19.0781 20.0203 19.1531V13.3406C18.2906 13.5609 16.9969 14.5312 16.9969 16.2328ZM22.4578 22.5703C22.3266 22.5422 22.1953 22.5094 22.0453 22.4672V28.7344C24.0422 28.5562 25.4203 27.4594 25.4203 25.6219C25.4203 24.1828 24.675 23.2453 22.4578 22.5703Z" fill="url(#paint0_linear_193_644)"/>
<defs>
<linearGradient id="paint0_linear_193_644" x1="0.688525" y1="-2.79137e-06" x2="42.9312" y2="5.06587" gradientUnits="userSpaceOnUse">
<stop stop-color="#D1A81F"/>
<stop offset="1" stop-color="#FAC460"/>
</linearGradient>
</defs>
</svg>
