<svg width="40" height="36" viewBox="0 0 40 36" fill="none" xmlns="http://www.w3.org/2000/svg">
<path d="M29.879 0C32.561 0 35.141 1.06 37.039 2.962C38.939 4.86 40.001 7.42 40.001 10.1V25.9C40.001 31.48 35.461 36 29.879 36H10.121C4.53898 36 0.000976562 31.48 0.000976562 25.9V10.1C0.000976562 4.52 4.51898 0 10.121 0H29.879ZM32.141 10.4C31.721 10.378 31.321 10.52 31.019 10.8L22.001 18C20.841 18.962 19.179 18.962 18.001 18L9.00098 10.8C8.37898 10.34 7.51898 10.4 7.00098 10.94C6.46098 11.48 6.40098 12.34 6.85898 12.94L7.12098 13.2L16.221 20.3C17.341 21.18 18.699 21.66 20.121 21.66C21.539 21.66 22.921 21.18 24.039 20.3L33.061 13.08L33.221 12.92C33.699 12.34 33.699 11.5 33.199 10.92C32.921 10.622 32.539 10.44 32.141 10.4Z" fill="url(#paint0_linear_193_634)"/>
<defs>
<linearGradient id="paint0_linear_193_634" x1="0.656715" y1="-2.39261e-06" x2="40.7544" y2="5.34294" gradientUnits="userSpaceOnUse">
<stop stop-color="#D1A81F"/>
<stop offset="1" stop-color="#FAC460"/>
</linearGradient>
</defs>
</svg>
