<svg width="128" height="95" viewBox="0 0 128 95" fill="none" xmlns="http://www.w3.org/2000/svg">
<path d="M115.055 69.7637C115.286 69.563 115.337 69.2202 115.183 68.9521L114.463 67.7129C114.344 67.502 114.126 67.3818 113.896 67.3818C113.83 67.3818 113.763 67.3965 113.695 67.4155L112.456 67.8125C112.056 67.4785 111.595 67.2119 111.097 67.0273L110.818 65.7529C110.757 65.4497 110.49 65.2373 110.18 65.2373H108.744C108.436 65.2373 108.168 65.4497 108.104 65.7529L107.826 67.0273C107.329 67.2119 106.866 67.4785 106.465 67.8125L105.225 67.4155C105.161 67.3965 105.094 67.3818 105.025 67.3818C104.796 67.3818 104.579 67.502 104.458 67.7129L103.739 68.9521C103.588 69.2187 103.638 69.563 103.866 69.7637L104.831 70.6382C104.787 70.9004 104.758 71.1567 104.758 71.4263C104.758 71.6958 104.787 71.958 104.831 72.2114L103.866 73.0889C103.638 73.2954 103.588 73.6353 103.739 73.9019L104.458 75.1455C104.613 75.4106 104.932 75.5352 105.224 75.4385L106.463 75.0459C106.865 75.377 107.327 75.6421 107.824 75.8281L108.102 77.0981C108.167 77.4028 108.435 77.6167 108.743 77.6167H110.178C110.489 77.6167 110.755 77.4043 110.817 77.0981L111.095 75.8281C111.595 75.6406 112.055 75.377 112.454 75.0459L113.694 75.4385C113.988 75.5352 114.306 75.4106 114.461 75.1455L115.182 73.9019C115.336 73.6353 115.283 73.2939 115.053 73.0889L114.089 72.2114C114.133 71.958 114.16 71.6958 114.16 71.4263C114.16 71.1567 114.132 70.9019 114.089 70.6382L115.055 69.7637ZM111.54 71.4263C111.54 72.5732 110.607 73.5049 109.463 73.5049C108.316 73.5049 107.385 72.5732 107.385 71.4263C107.385 70.2793 108.316 69.3477 109.463 69.3477C110.607 69.3477 111.54 70.2793 111.54 71.4263Z" fill="url(#paint0_linear_176_1483)"/>
<path d="M121.726 78.1631V77.4087C121.726 77.2974 121.646 77.1963 121.534 77.1729L121.068 77.0718C121.014 76.8799 120.939 76.7012 120.844 76.5298L121.1 76.1299C121.165 76.0332 121.151 75.9072 121.068 75.8252L120.533 75.2935C120.485 75.2407 120.425 75.2202 120.362 75.2202C120.316 75.2202 120.27 75.2319 120.23 75.2583L119.83 75.5132C119.66 75.4209 119.476 75.3433 119.285 75.2935L119.183 74.8232C119.161 74.7119 119.061 74.6357 118.947 74.6357H118.189C118.075 74.6357 117.98 74.7119 117.954 74.8232L117.853 75.2935C117.661 75.3433 117.482 75.4209 117.311 75.5132L116.911 75.2583C116.871 75.2319 116.826 75.2202 116.779 75.2202C116.717 75.2202 116.654 75.2422 116.609 75.2935L116.073 75.8252C115.994 75.9087 115.978 76.0332 116.041 76.1299L116.298 76.5298C116.205 76.6997 116.125 76.8799 116.073 77.0718L115.61 77.1729C115.496 77.1963 115.417 77.2974 115.417 77.4087V78.1631C115.417 78.2788 115.496 78.3784 115.61 78.4063L116.073 78.5029C116.125 78.6948 116.205 78.8765 116.298 79.0493L116.041 79.4463C115.978 79.5459 115.994 79.6704 116.073 79.751L116.609 80.2856C116.688 80.3662 116.817 80.3823 116.912 80.3193L117.312 80.0586C117.483 80.1553 117.664 80.2285 117.854 80.2856L117.955 80.7515C117.983 80.8628 118.078 80.9434 118.191 80.9434H118.948C119.063 80.9434 119.164 80.8628 119.184 80.7515L119.287 80.2856C119.477 80.2285 119.662 80.1553 119.832 80.0586L120.231 80.3193C120.328 80.3823 120.456 80.3662 120.535 80.2856L121.069 79.751C121.153 79.6704 121.166 79.5444 121.102 79.4463L120.845 79.0493C120.94 78.8765 121.015 78.6948 121.069 78.5029L121.535 78.4063C121.646 78.3784 121.726 78.2788 121.726 78.1631ZM118.57 79.4185C117.672 79.4185 116.941 78.6875 116.941 77.7866C116.941 76.8901 117.672 76.1577 118.57 76.1577C119.468 76.1577 120.201 76.8916 120.201 77.7866C120.201 78.6875 119.468 79.4185 118.57 79.4185Z" fill="url(#paint1_linear_176_1483)"/>
<path d="M66.3999 12.9424L100.982 21.4268C108.4 47.9976 105.466 76.2251 83.584 88.7979C56.2251 77.186 40.5806 49.3247 35.9458 22.6982L66.3999 12.9424Z" fill="#FFE8BA"/>
<path d="M33.2358 40.9985C33.1655 40.792 33.1011 40.584 33.0337 40.3774C32.8535 39.8223 32.6748 39.2671 32.5034 38.7119C32.4258 38.457 32.3481 38.2007 32.2705 37.9458C32.2075 37.7319 32.1387 37.5195 32.0771 37.3057C32.0171 37.0991 31.9644 36.8911 31.9058 36.686C31.749 36.1396 31.5981 35.5933 31.4502 35.0454C31.3535 34.6836 31.2554 34.3203 31.1631 33.9585C31.021 33.4019 30.8833 32.8438 30.7485 32.2842C30.6665 31.9399 30.5815 31.5913 30.501 31.2471C30.3633 30.6392 30.2329 30.0313 30.104 29.4233C30.0425 29.1304 29.9766 28.8359 29.918 28.543C29.7378 27.6436 29.5664 26.7456 29.4082 25.8491L35.9487 22.7012C36.1055 23.5977 36.2769 24.4956 36.457 25.395C36.5156 25.688 36.583 25.9824 36.6445 26.2769C36.772 26.8833 36.9023 27.4912 37.0415 28.0991C37.1206 28.4448 37.2056 28.792 37.2891 29.1377C37.4224 29.6958 37.5601 30.2539 37.7021 30.8105C37.7959 31.1724 37.8911 31.5356 37.9893 31.8989C38.1372 32.4453 38.2881 32.9917 38.4448 33.5366C38.5649 33.9585 38.6865 34.3789 38.8096 34.7979C38.8872 35.0527 38.9648 35.3105 39.0439 35.5654C39.2153 36.1206 39.3926 36.6758 39.5728 37.2295C39.6401 37.4375 39.7061 37.644 39.7749 37.852C40.0269 38.6035 40.2847 39.3521 40.5542 40.1006C40.5996 40.231 40.6494 40.3613 40.6977 40.4888C40.9116 41.0747 41.1284 41.6577 41.354 42.2393C41.6748 43.0742 42.0059 43.9033 42.3486 44.731C42.3911 44.8291 42.4292 44.9272 42.4702 45.0269C42.8555 45.9482 43.2583 46.8623 43.6714 47.772C43.8311 48.1235 43.9995 48.4736 44.165 48.8237C44.3818 49.2866 44.5972 49.7495 44.8213 50.2095C45 50.5742 45.1846 50.936 45.3662 51.2979C45.5933 51.7476 45.8188 52.1958 46.0518 52.6411C46.2715 53.0586 46.4941 53.4746 46.7197 53.8892C46.897 54.2158 47.0727 54.5425 47.2529 54.8662C47.4946 55.3013 47.7466 55.7319 47.9927 56.1641C48.1728 56.4731 48.3516 56.7852 48.5347 57.0928C48.8965 57.7036 49.2671 58.3086 49.6436 58.9092C49.7021 59.0029 49.7563 59.0938 49.8135 59.186C50.2544 59.8848 50.7056 60.5732 51.1655 61.2573C51.2769 61.4243 51.3926 61.5913 51.5054 61.7583C51.8481 62.2607 52.1953 62.7588 52.5498 63.2554C52.7021 63.4722 52.8603 63.689 53.0171 63.9043C53.3701 64.3921 53.7305 64.877 54.0967 65.3574C54.2139 65.5142 54.334 65.6738 54.4512 65.8276C54.9228 66.4399 55.4019 67.0449 55.8896 67.6426C56.5884 68.4995 57.3076 69.3403 58.0415 70.168C58.2363 70.3877 58.4355 70.603 58.6318 70.8213C59.1973 71.4453 59.7715 72.0605 60.3589 72.667C60.6167 72.9351 60.873 73.2061 61.1382 73.4727C61.2847 73.6206 61.4341 73.7686 61.582 73.915C62.0859 74.4116 62.5957 74.9067 63.1128 75.3901C63.1787 75.4502 63.2402 75.5132 63.3061 75.5732C63.8833 76.1094 64.4692 76.6323 65.0625 77.1494C65.2178 77.2856 65.3745 77.416 65.5312 77.5522C66.0146 77.9653 66.5024 78.3726 66.9976 78.7739C67.144 78.8926 67.2891 79.0156 67.4385 79.1343C68.0552 79.6279 68.6807 80.1113 69.3149 80.583C69.4731 80.7017 69.6343 80.8145 69.7925 80.9316C70.2935 81.2979 70.8003 81.6611 71.3115 82.0156C71.5312 82.168 71.751 82.3188 71.9722 82.4683C72.4189 82.77 72.8716 83.0674 73.3257 83.3603C73.6128 83.5435 73.8984 83.7295 74.187 83.9082C74.6484 84.1953 75.1157 84.4736 75.5845 84.7534C75.854 84.9116 76.1221 85.0742 76.396 85.231C76.7183 85.4155 77.0493 85.5898 77.376 85.7686C77.9048 86.0601 78.4351 86.3486 78.9741 86.627C79.3257 86.8101 79.6831 86.9829 80.0391 87.1587C80.5576 87.4136 81.0762 87.667 81.602 87.9116C82.2598 88.2148 82.916 88.5166 83.5854 88.7993L77.0464 91.9487C76.5351 91.7305 76.0269 91.5093 75.5229 91.2808C75.3677 91.2104 75.2168 91.1328 75.063 91.0596C74.5356 90.8149 74.0156 90.563 73.5 90.3066C73.144 90.1323 72.7866 89.958 72.4365 89.7749C71.8975 89.498 71.3672 89.208 70.8384 88.918C70.5893 88.7817 70.3345 88.6528 70.0884 88.5166C70.0107 88.4712 69.936 88.4243 69.8584 88.3804C69.5859 88.2222 69.3164 88.0596 69.0469 87.9014C68.5781 87.6245 68.1094 87.3462 67.6494 87.0591C67.3594 86.8789 67.0737 86.6943 66.7881 86.5112C66.5332 86.3472 66.2739 86.189 66.022 86.022C65.8242 85.8916 65.6309 85.7539 65.436 85.6206C65.2134 85.4697 64.9936 85.3218 64.7725 85.168C64.2612 84.8135 63.7559 84.4517 63.2549 84.084C63.0952 83.9683 62.9341 83.854 62.7759 83.7353C62.7261 83.6987 62.6748 83.6636 62.6235 83.6255C62.0435 83.1875 61.4678 82.7378 60.9009 82.2852C60.7529 82.165 60.6064 82.0464 60.46 81.9233C60.1758 81.6948 59.8872 81.4663 59.606 81.2305C59.4009 81.0562 59.1987 80.8774 58.9936 80.7031C58.8369 80.5684 58.6787 80.4336 58.5234 80.2988C57.9507 79.7993 57.3823 79.2969 56.8271 78.7813C56.8066 78.7622 56.7876 78.7417 56.7656 78.7227C56.7012 78.6626 56.6382 78.6011 56.5737 78.541C56.0552 78.0562 55.5454 77.5625 55.043 77.0645C54.8936 76.918 54.7456 76.7715 54.5991 76.6221C54.4702 76.4917 54.3384 76.3657 54.2124 76.2368C54.0762 76.1006 53.9531 75.9541 53.8198 75.8179C53.2339 75.2129 52.6582 74.5977 52.0928 73.9722C51.9683 73.833 51.8335 73.6997 51.706 73.5605C51.6357 73.4829 51.5713 73.3994 51.5039 73.3218C50.7686 72.4927 50.0508 71.6519 49.3506 70.7949C49.3271 70.7671 49.2993 70.7378 49.2759 70.7085C48.813 70.1387 48.3603 69.5615 47.9121 68.9814C47.792 68.8232 47.6748 68.665 47.5547 68.5068C47.332 68.2153 47.1079 67.9253 46.8896 67.6294C46.7505 67.4419 46.6172 67.2471 46.478 67.0566C46.3213 66.8413 46.1645 66.6245 46.0107 66.4077C45.6577 65.9126 45.3105 65.4131 44.9678 64.9092C44.855 64.7422 44.7378 64.5767 44.6265 64.4097C44.5898 64.3555 44.5518 64.3013 44.5166 64.2485C44.0947 63.6157 43.6816 62.9785 43.2759 62.3369C43.2173 62.2461 43.1631 62.1523 43.1045 62.0601C42.7749 61.5327 42.4453 61.0024 42.126 60.4692C42.0806 60.3945 42.041 60.3184 41.9956 60.2451C41.811 59.9346 41.6353 59.624 41.4536 59.3105C41.2061 58.8799 40.9556 58.4507 40.7139 58.0171C40.5308 57.6934 40.3564 57.3652 40.1807 57.04C40.0195 56.7456 39.8555 56.4526 39.6987 56.1582C39.6343 56.0381 39.5757 55.9136 39.5112 55.792C39.2768 55.3467 39.0513 54.8955 38.8257 54.4487C38.644 54.0854 38.4595 53.7236 38.2822 53.3589C38.0566 52.9004 37.8413 52.4375 37.6216 51.9746C37.4927 51.6963 37.3564 51.4224 37.2275 51.1426C37.1953 51.0693 37.1645 50.9946 37.1323 50.9229C36.7163 50.0117 36.3149 49.0977 35.9297 48.1763C35.8872 48.0796 35.8491 47.98 35.8096 47.8818C35.4653 47.0557 35.1343 46.2236 34.8135 45.3916C34.7769 45.2964 34.7344 45.1997 34.7007 45.106C34.5146 44.6196 34.3374 44.1304 34.1587 43.6426C34.1118 43.5137 34.062 43.3833 34.0137 43.2544C33.7441 42.5015 33.4863 41.75 33.2358 40.9985Z" fill="#FFE8BA"/>
<path d="M67.4194 17.4424L97.6934 24.8691C100.702 37.0859 101.18 48.6978 99.0703 58.625C96.6665 69.9336 91.0898 78.4429 82.4868 83.9521C71.4741 78.8252 62.1094 70.6089 54.6255 59.4936C48.0527 49.7349 43.292 38.2065 40.7637 25.9795L67.4194 17.4424Z" fill="#EEC673"/>
<path d="M57.1816 21.2754C63.5405 33.1392 70.7578 44.7056 80.0303 54.9902C84.583 60.041 89.5781 64.7285 94.9043 69.1069C92.001 75.0366 87.8379 79.8062 82.437 83.3364C71.6646 78.2461 62.48 70.1382 55.1309 59.2266C48.7002 49.6802 43.9702 38.3086 41.4346 26.3203L57.1816 21.2754Z" fill="#E1B357"/>
<path d="M85.2158 31.9648L89.7261 34.9736L79.3887 59.1699L78.5728 59.0571L69.0117 45.062L69.8291 45.1748L77.4111 50.2285L84.3984 31.8535L85.2158 31.9648Z" fill="#EEC673"/>
<path d="M84.3984 31.8535L88.9116 34.8623L78.5728 59.0571L66.4775 50.9961L69.0117 45.062L76.5952 50.1172L84.3984 31.8535Z" fill="#FFE8BA"/>
<path d="M122.591 84.0242C123.729 85.741 124.869 87.4944 125.554 89.3504C125.894 90.2484 126.107 91.2606 125.868 91.8948C125.764 92.2083 125.546 92.3665 125.247 92.5115C125.115 92.5936 124.906 92.6214 124.734 92.6785C124.525 92.699 124.334 92.7444 124.113 92.7474C122.345 92.7986 120.367 92.2947 118.487 91.7176C116.588 91.1214 114.712 90.3802 112.856 89.5848C105.428 86.3929 98.26 82.4627 91.22 78.3714C84.1873 74.2508 77.2835 69.8987 70.51 65.3607C67.1277 63.0843 63.7542 60.7962 60.4392 58.4217C57.1126 56.0677 53.8138 53.6756 50.5633 51.2176C47.2981 48.7816 44.074 46.2899 40.8953 43.744C37.7019 41.223 34.5496 38.617 31.4251 36.0008C25.1922 30.7581 19.0472 25.3851 13.4881 19.6151C12.117 18.1619 10.7693 16.6956 9.53739 15.1795C8.31278 13.6678 7.17167 12.0916 6.33671 10.533C5.92509 9.76105 5.61454 8.97736 5.49442 8.3548C5.44169 8.05304 5.41825 7.78351 5.44901 7.63996C5.47391 7.48322 5.48563 7.40265 5.56327 7.2796C5.70829 7.03058 6.35868 6.69806 7.15116 6.53986C7.9495 6.36701 8.87968 6.32599 9.8245 6.33624C11.7273 6.35529 13.7181 6.6131 15.6971 6.96906C17.6819 7.32062 19.6609 7.79377 21.6502 8.2713C23.638 8.75763 25.6141 9.31281 27.5901 9.89289C29.5735 10.4481 31.5393 11.0692 33.5227 11.661C31.7034 10.6736 29.8489 9.76105 27.9842 8.85138C26.1106 7.96955 24.2122 7.1258 22.2859 6.33332C20.3611 5.52765 18.3909 4.82892 16.3767 4.19904C14.3582 3.57501 12.2957 3.03156 10.0896 2.73126C8.98514 2.58624 7.84257 2.5174 6.59891 2.63459C5.97196 2.70929 5.33475 2.79279 4.64628 3.03888C3.96805 3.28058 3.23856 3.61164 2.57938 4.2298C1.92313 4.82892 1.41337 5.67121 1.17753 6.5091C0.92118 7.36017 0.918251 8.14093 0.966591 8.86017C1.0955 10.284 1.49686 11.4617 1.94511 12.5545C2.85624 14.7313 4.03544 16.5843 5.26151 18.3758C6.49491 20.1556 7.80595 21.8402 9.16971 23.4632C11.8899 26.7152 14.7727 29.7693 17.742 32.7122C20.6966 35.6727 23.7654 38.491 26.8562 41.2772C29.9573 44.0516 33.1184 46.7337 36.3279 49.3953C39.552 52.0262 42.8289 54.5941 46.1512 57.1004C49.491 59.5833 52.866 62.0179 56.2937 64.3748C59.7332 66.7142 63.199 69.0125 66.7322 71.2083C73.7884 75.6116 81.0276 79.7293 88.4822 83.4442C92.2132 85.2957 95.9895 87.0609 99.845 88.6693C103.695 90.2835 107.615 91.7601 111.647 92.9686C113.669 93.5545 115.715 94.0863 117.816 94.4744C119.924 94.8201 122.061 95.1878 124.405 94.7528C124.695 94.7029 125.001 94.596 125.294 94.5067C125.597 94.3675 125.894 94.2679 126.184 94.0452C126.757 93.6761 127.289 92.9964 127.391 92.2874C127.503 91.6004 127.428 90.95 127.238 90.4095C127.069 89.8514 126.83 89.3533 126.561 88.8817C126.012 87.9471 125.39 87.0989 124.711 86.3035C124.046 85.5023 123.322 84.7567 122.591 84.0242Z" fill="#FDC04B"/>
<path d="M67.5088 70.0041C74.5078 74.4309 81.6665 78.6174 89.042 82.404C92.732 84.2937 96.4629 86.1057 100.264 87.7727C104.02 89.4236 107.835 90.9558 111.754 92.2302C111.848 92.2595 111.94 92.2903 112.034 92.3196C113.917 92.9114 115.819 93.4519 117.766 93.865C117.892 93.8899 118.018 93.9163 118.144 93.9412C120.103 94.3147 122.106 94.6662 124.216 94.3557C124.298 94.344 124.381 94.3308 124.465 94.3147C124.677 94.2751 124.89 94.2107 125.099 94.1521C125.149 94.1345 125.197 94.1169 125.247 94.1008C125.498 93.9939 125.752 93.9075 125.988 93.7331C126.504 93.4094 126.973 92.8396 127.075 92.2097C127.242 91.322 127.002 90.4768 126.69 89.7458C126.478 89.2112 126.215 88.7146 125.928 88.2385C125.253 87.1384 124.469 86.1306 123.647 85.1653C123.642 85.1741 123.601 85.2195 123.529 85.2869C124.084 86.1174 124.614 86.967 125.073 87.8474C125.543 88.7644 125.958 89.7458 126.022 90.7038C126.141 91.3923 126.073 92.0837 125.748 92.5203C125.597 92.7458 125.366 92.8557 125.104 92.9729C124.916 93.0388 124.692 93.0886 124.481 93.1282C124.272 93.1501 124.071 93.1794 123.856 93.1853C122.071 93.2483 120.17 92.7913 118.345 92.2859C116.405 91.7322 114.494 91.0334 112.606 90.279C105.044 87.2497 97.7798 83.428 90.6534 79.4158C83.4917 75.3464 76.4707 71.0237 69.5948 66.4841C66.1597 64.2107 62.7481 61.8992 59.3892 59.5144C56.1094 57.2014 52.8604 54.8401 49.6582 52.4216C46.3506 49.9548 43.0884 47.428 39.8716 44.844C36.7017 42.3157 33.5728 39.7185 30.479 37.0906C24.2549 31.7834 18.1465 26.3152 12.5977 20.4075C11.2251 18.9206 9.88626 17.4104 8.65286 15.8386C7.42826 14.2683 6.27689 12.6365 5.42728 10.9504C5.00833 10.1111 4.68021 9.24681 4.55716 8.45873C4.51322 8.1848 4.49564 7.92699 4.51761 7.73363C4.53372 7.59008 4.54544 7.48461 4.59525 7.36009C4.71244 6.96459 5.15042 6.5515 5.73929 6.28197C6.46146 5.87621 7.41507 5.70775 8.37015 5.63597C9.34134 5.56713 10.3404 5.60668 11.3409 5.69457C12.334 5.78392 13.3301 5.92308 14.3233 6.09447C15.3194 6.26586 16.3125 6.4724 17.3028 6.69798C18.3179 6.92943 19.3316 7.18138 20.3438 7.44506C21.2945 7.69408 22.2408 7.96068 23.1856 8.23754C24.2359 8.54662 25.2818 8.87035 26.3262 9.20433C28.3184 9.82543 30.2945 10.5022 32.2749 11.1775C32.3086 11.1291 32.3394 11.0911 32.3672 11.0574C31.2671 10.5388 30.1612 10.0334 29.0493 9.53246C27.1289 8.68431 25.1895 7.87133 23.2251 7.11107C22.5264 6.83861 21.8247 6.5764 21.1187 6.32445C19.8311 5.86302 18.5288 5.43383 17.2105 5.03685C16.5733 4.84642 15.9317 4.66332 15.2857 4.49193C13.8369 4.10814 12.3618 3.78002 10.8413 3.56468C10.3155 3.49144 9.78372 3.43285 9.2432 3.39769C8.61185 3.35668 7.96732 3.34642 7.30667 3.38744C6.91995 3.41674 6.53031 3.45482 6.13333 3.52513C5.86527 3.57347 5.59134 3.635 5.31449 3.71703C4.58646 3.92943 3.83646 4.2517 3.19193 4.85961C2.75687 5.26683 2.4141 5.79564 2.20316 6.35521C2.10501 6.60863 2.03617 6.86791 1.99076 7.12572C1.93216 7.44505 1.90872 7.75853 1.90433 8.06322C1.90286 8.52465 1.95121 8.96703 2.02298 9.39183C2.1431 10.0715 2.3306 10.7058 2.55179 11.3078C2.75101 11.8513 2.97806 12.3699 3.21976 12.8738C3.92874 14.3503 4.76956 15.698 5.65726 16.9929C5.9766 17.4573 6.30179 17.9143 6.63285 18.3669C7.57767 19.6531 8.56644 20.8923 9.58304 22.1008C9.89212 22.467 10.2027 22.8318 10.5161 23.1921C13.021 26.0823 15.6621 28.8215 18.3794 31.4714C18.5596 31.6472 18.7398 31.823 18.9214 31.9988C21.8086 34.8157 24.7881 37.5212 27.7969 40.1902C30.9024 42.9294 34.0591 45.5998 37.2642 48.2307C40.4781 50.8484 43.7403 53.4045 47.0508 55.8992C50.3745 58.3733 53.7364 60.7961 57.145 63.1516C60.5596 65.4968 64.0078 67.7922 67.5088 70.0041Z" fill="#FDC04B"/>
<path d="M122.591 84.0246C123.869 85.6345 125.108 87.303 125.966 89.1604C126.372 90.0774 126.722 91.1057 126.495 92.0578C126.393 92.5368 126.044 92.9074 125.634 93.1448C125.436 93.2839 125.191 93.344 124.966 93.4333C124.723 93.4846 124.484 93.5549 124.235 93.5769C122.229 93.7908 120.186 93.3381 118.211 92.8547C116.231 92.342 114.284 91.6858 112.362 90.9724C104.669 88.1057 97.3051 84.3923 90.0952 80.4592C75.6987 72.5241 61.8867 63.5198 48.7602 53.6262C42.1699 48.7131 35.7714 43.5481 29.5415 38.1809C23.3247 32.8093 17.2544 27.2458 11.7172 21.2004C10.3447 19.6814 9.01168 18.1242 7.77828 16.4997C6.55221 14.8723 5.39205 13.1833 4.5278 11.3699C4.10153 10.4646 3.75436 9.51829 3.63131 8.56614C3.49801 7.61692 3.69283 6.66038 4.33883 6.02757C4.98336 5.38743 5.96188 5.093 6.92721 4.94065C7.91012 4.79271 8.92526 4.80149 9.936 4.86302C11.9619 4.99632 13.9834 5.36839 15.9785 5.83128C17.9765 6.29564 19.9541 6.85521 21.914 7.47337C25.8354 8.71409 29.6938 10.1511 33.5244 11.6643C29.7495 10.0207 25.9292 8.46507 22.0239 7.13646C20.0742 6.46995 18.0996 5.85911 16.0986 5.34202C14.0976 4.8264 12.0644 4.3972 9.98287 4.2097C8.94283 4.11888 7.88815 4.09837 6.8276 4.24046C5.78463 4.39427 4.66842 4.67991 3.81149 5.48997C3.39401 5.8928 3.08932 6.42308 2.93844 6.97972C2.77584 7.53929 2.7861 8.10911 2.83444 8.6555C2.96188 9.74827 3.32516 10.7649 3.75729 11.7258C4.63912 13.6462 5.80074 15.3865 7.02535 17.0637C8.25729 18.7366 9.58151 20.3318 10.9467 21.8874C13.6772 25.0002 16.5835 27.9416 19.5761 30.7849C22.5644 33.634 25.6333 36.3938 28.7417 39.1052C34.9629 44.5163 41.3613 49.7385 47.9546 54.6999C54.5683 59.6335 61.3491 64.3415 68.2895 68.802C75.2329 73.2536 82.3095 77.509 89.6059 81.3659C93.2534 83.2951 96.9389 85.1511 100.689 86.8767C104.436 88.6037 108.237 90.2268 112.141 91.5891C114.095 92.2615 116.073 92.8767 118.091 93.3454C120.107 93.7864 122.178 94.2038 124.285 93.9299C124.547 93.8991 124.805 93.82 125.062 93.7585C125.311 93.6545 125.572 93.5813 125.799 93.4201C126.258 93.1418 126.662 92.6804 126.766 92.1325C126.989 91.0427 126.583 90.0041 126.151 89.0827C125.215 87.218 123.921 85.592 122.591 84.0246Z" fill="#FDC04B"/>
<path fill-rule="evenodd" clip-rule="evenodd" d="M48.46 8.25195C48.46 7.44336 47.8052 6.78857 46.9966 6.78857H46.834V5.08057C46.834 2.6958 44.8945 0.754883 42.5083 0.754883C40.1235 0.754883 38.1826 2.69434 38.1826 5.08057V6.78857H38.0728C37.2642 6.78857 36.6108 7.44336 36.6108 8.25195V14.5405C36.6108 15.3491 37.2656 16.0039 38.0728 16.0039H46.9951C47.8022 16.0039 48.4585 15.3491 48.4585 14.5405V8.25195H48.46ZM40.3125 5.08203C40.3125 3.86914 41.2983 2.88476 42.5098 2.88476C43.7212 2.88476 44.7085 3.8706 44.7085 5.08203V6.79004H40.3125V5.08203ZM41.3086 10.4316C41.3086 9.75488 41.8594 9.20264 42.5376 9.20264C43.2158 9.20264 43.7666 9.75342 43.7666 10.4316C43.7666 10.915 43.481 11.353 43.0474 11.5493L43.5322 13.8872C43.5337 13.896 43.5366 13.9077 43.5366 13.9165C43.5366 13.978 43.4854 14.0293 43.4238 14.0293H43.4224L41.6177 14.0176C41.584 14.0176 41.5518 14.0029 41.5312 13.9766C41.5107 13.9502 41.502 13.9165 41.5078 13.8828L41.9897 11.5317C41.5723 11.3252 41.3086 10.9033 41.3086 10.4316Z" fill="url(#paint2_linear_176_1483)"/>
<defs>
<linearGradient id="paint0_linear_176_1483" x1="103.843" y1="65.2373" x2="115.549" y2="66.5549" gradientUnits="userSpaceOnUse">
<stop stop-color="#EDD78F"/>
<stop offset="1" stop-color="#FDBF4A"/>
</linearGradient>
<linearGradient id="paint1_linear_176_1483" x1="115.52" y1="74.6357" x2="121.865" y2="75.3969" gradientUnits="userSpaceOnUse">
<stop stop-color="#EDD78F"/>
<stop offset="1" stop-color="#FDBF4A"/>
</linearGradient>
<linearGradient id="paint2_linear_176_1483" x1="36.8051" y1="0.754882" x2="48.79" y2="1.8717" gradientUnits="userSpaceOnUse">
<stop stop-color="#EDD78F"/>
<stop offset="1" stop-color="#FDBF4A"/>
</linearGradient>
</defs>
</svg>
