<svg width="37" height="36" viewBox="0 0 37 36" fill="none" xmlns="http://www.w3.org/2000/svg">
<path d="M0.0078125 18C0.0078125 22.7739 1.90424 27.3523 5.27989 30.7279C8.65555 34.1036 13.2339 36 18.0078 36C22.7817 36 27.3601 34.1036 30.7357 30.7279C34.1114 27.3523 36.0078 22.7739 36.0078 18C36.0078 13.2261 34.1114 8.64773 30.7357 5.27208C27.3601 1.89642 22.7817 0 18.0078 0C13.2339 0 8.65555 1.89642 5.27989 5.27208C1.90424 8.64773 0.0078125 13.2261 0.0078125 18H0.0078125Z" fill="#393939"/>
<path d="M10.7734 14.1899C11.356 13.0444 12.1848 12.1117 13.2198 11.3614C14.3929 10.4996 15.781 9.97809 17.2313 9.85436C19.5763 9.64736 21.6299 10.3354 23.4168 11.8581C23.5755 11.9923 23.56 12.0561 23.4209 12.1927C22.7393 12.8587 22.0668 13.5362 21.3983 14.2153C21.3051 14.3094 21.2511 14.3282 21.1365 14.2333C18.637 12.1551 14.875 13.0289 13.5389 15.9924C13.5143 16.0488 13.4841 16.102 13.4571 16.156C13.3425 16.1625 13.2673 16.084 13.1887 16.0251C12.4393 15.4704 11.6808 14.9263 10.9346 14.3683C10.8675 14.3192 10.7923 14.2791 10.7734 14.1899Z" fill="#FE3D00"/>
<path d="M20.9854 21.8964C21.734 21.2966 22.2969 20.5635 22.6266 19.6324H22.3853C20.9968 19.6324 19.6051 19.6292 18.2158 19.6365C18.0456 19.6365 18.0031 19.5964 18.0039 19.4246C18.0129 18.4706 18.0129 17.5174 18.0039 16.5634C18.0039 16.3859 18.0563 16.3564 18.2199 16.3564C20.5362 16.3622 22.8533 16.3564 25.1704 16.3646C25.4191 16.3646 25.6695 16.4055 25.9206 16.3933C26.0393 16.3884 26.0491 16.4669 26.0622 16.5487C26.4296 18.7644 26.0033 20.8098 24.7367 22.6704C24.3874 23.1834 23.9946 23.662 23.4988 24.0449C23.4047 24.0564 23.3507 23.9909 23.2886 23.9385C22.6136 23.3658 21.9386 22.7939 21.2627 22.2228C21.1547 22.1312 21.0066 22.0649 20.9846 21.8964H20.9854Z" fill="#1976D1"/>
<path d="M20.9857 21.8958C21.2852 22.21 21.6354 22.4653 21.9635 22.7467C22.4716 23.1836 22.9862 23.6124 23.4992 24.0444C22.6638 24.8331 21.6902 25.3927 20.6061 25.7552C18.7882 26.3656 16.8136 26.3173 15.0277 25.6188C13.2418 24.9203 11.7584 23.6161 10.837 21.9343C10.7953 21.8574 10.7634 21.7756 10.7266 21.6962C10.7896 21.5481 10.936 21.4867 11.0514 21.3976C11.7485 20.851 12.4537 20.3143 13.1557 19.7743C13.2228 19.7227 13.2842 19.6475 13.3873 19.6687C13.6246 20.2333 13.9134 20.7716 14.3282 21.2315C15.1832 22.1806 16.2403 22.7369 17.5158 22.8695C18.8004 23.0028 19.9483 22.6445 20.9849 21.8958H20.9857Z" fill="#4CAE50"/>
<path d="M13.388 19.6687L10.8614 21.6028C10.8181 21.6356 10.7714 21.6642 10.7273 21.6953C10.3705 21.0694 10.148 20.3911 10.0048 19.6907C9.62108 17.8065 9.85345 15.9983 10.7224 14.2768C10.7379 14.2466 10.7567 14.2179 10.7739 14.1885L13.4543 16.1537C13.001 17.3172 12.9846 18.4888 13.388 19.6687Z" fill="#FEC007"/>
<path d="M18.0078 0C27.9487 0 36.0078 8.05909 36.0078 18C36.0078 27.9409 27.9487 36 18.0078 36C8.0669 36 0.0078125 27.9409 0.0078125 18C0.0078125 8.05909 8.0669 0 18.0078 0ZM18.0078 0.818182C8.51854 0.818182 0.825994 8.51073 0.825994 18C0.825994 27.4893 8.51854 35.1818 18.0078 35.1818C27.4971 35.1818 35.1896 27.4893 35.1896 18C35.1896 8.51073 27.4971 0.818182 18.0078 0.818182Z" fill="#393939"/>
</svg>
