<svg width="18" height="21" viewBox="0 0 18 21" fill="none" xmlns="http://www.w3.org/2000/svg">
<path d="M8 13.1739C12.3386 13.1739 16 13.8789 16 16.599C16 19.32 12.3146 20 8 20C3.66237 20 0 19.295 0 16.575C0 13.8539 3.68538 13.1739 8 13.1739ZM8 0C10.9391 0 13.294 2.35402 13.294 5.29105C13.294 8.22808 10.9391 10.5831 8 10.5831C5.0619 10.5831 2.70601 8.22808 2.70601 5.29105C2.70601 2.35402 5.0619 0 8 0Z" fill="#FAC55B"/>
<circle cx="13.5179" cy="16.4823" r="3.92857" fill="#FAC55B"/>
<path fill-rule="evenodd" clip-rule="evenodd" d="M9.58936 16.4823C9.58936 15.4404 10.0033 14.4411 10.74 13.7044C11.4768 12.9676 12.476 12.5537 13.5179 12.5537C14.5598 12.5537 15.5591 12.9676 16.2958 13.7044C17.0326 14.4411 17.4465 15.4404 17.4465 16.4823C17.4465 17.5242 17.0326 18.5235 16.2958 19.2602C15.5591 19.997 14.5598 20.4109 13.5179 20.4109C12.476 20.4109 11.4768 19.997 10.74 19.2602C10.0033 18.5235 9.58936 17.5242 9.58936 16.4823V16.4823ZM13.2937 18.1637L15.5555 15.3362L15.147 15.0093L13.2183 17.4194L11.8522 16.2811L11.517 16.6834L13.2937 18.1642V18.1637Z" fill="white"/>
</svg>
