<svg width="290" height="20" viewBox="0 0 290 20" fill="none" xmlns="http://www.w3.org/2000/svg">
<rect x="0.501465" y="0.5" width="18.9997" height="19" rx="9.49986" fill="#454545" stroke="url(#paint0_linear_179_1592)"/>
<path d="M29.9655 4.09091V15H28.6444V5.47585H28.5805L25.9172 7.24432V5.90199L28.6444 4.09091H29.9655ZM33.6117 6.81818L35.5719 10.1634L37.5322 6.81818H38.981L36.339 10.9091L38.981 15H37.5322L35.5719 11.8253L33.6117 15H32.1628L34.7623 10.9091L32.1628 6.81818H33.6117Z" fill="#9F9F9F"/>
<rect x="60.501" y="0.5" width="18.9997" height="19" rx="9.49986" fill="#454545" stroke="url(#paint1_linear_179_1592)"/>
<path d="M86.1297 15V14.0412L89.7306 10.0994C90.1532 9.63778 90.5012 9.23651 90.7746 8.8956C91.0481 8.55114 91.2505 8.22798 91.3819 7.92614C91.5168 7.62074 91.5843 7.30114 91.5843 6.96733C91.5843 6.58381 91.492 6.25178 91.3073 5.97124C91.1262 5.6907 90.8776 5.47408 90.5616 5.32138C90.2455 5.16868 89.8904 5.09233 89.4962 5.09233C89.0772 5.09233 88.7114 5.17933 88.3989 5.35334C88.09 5.52379 87.8503 5.76349 87.6798 6.07244C87.5129 6.38139 87.4295 6.74361 87.4295 7.15909H86.1724C86.1724 6.51989 86.3197 5.95881 86.6145 5.47585C86.9092 4.9929 87.3105 4.61648 87.8183 4.34659C88.3297 4.0767 88.9032 3.94176 89.5388 3.94176C90.178 3.94176 90.7445 4.0767 91.2381 4.34659C91.7317 4.61648 92.1187 4.98047 92.3993 5.43857C92.6798 5.89666 92.8201 6.40625 92.8201 6.96733C92.8201 7.36861 92.7473 7.76101 92.6017 8.14453C92.4597 8.5245 92.2111 8.94886 91.856 9.41761C91.5044 9.88281 91.0161 10.451 90.3911 11.1222L87.9408 13.7429V13.8281H93.0119V15H86.1297ZM95.7206 6.81818L97.6808 10.1634L99.641 6.81818H101.09L98.4479 10.9091L101.09 15H99.641L97.6808 11.8253L95.7206 15H94.2717L96.8712 10.9091L94.2717 6.81818H95.7206Z" fill="#9F9F9F"/>
<rect x="122.501" y="0.5" width="18.9997" height="19" rx="9.49986" fill="#454545" stroke="url(#paint2_linear_179_1592)"/>
<path d="M151.816 15.1491C151.113 15.1491 150.486 15.0284 149.936 14.7869C149.389 14.5455 148.954 14.2099 148.63 13.7802C148.311 13.3469 148.137 12.8445 148.108 12.2727H149.451C149.479 12.6243 149.6 12.9279 149.813 13.1836C150.026 13.4357 150.305 13.631 150.649 13.7695C150.994 13.908 151.375 13.9773 151.795 13.9773C152.263 13.9773 152.679 13.8956 153.041 13.7322C153.403 13.5689 153.687 13.3416 153.893 13.0504C154.099 12.7592 154.202 12.4219 154.202 12.0384C154.202 11.6371 154.103 11.2837 153.904 10.9783C153.705 10.6694 153.414 10.4279 153.03 10.2539C152.647 10.0799 152.178 9.9929 151.624 9.9929H150.75V8.82102H151.624C152.057 8.82102 152.437 8.7429 152.764 8.58665C153.094 8.4304 153.352 8.21023 153.536 7.92614C153.725 7.64205 153.819 7.30824 153.819 6.92472C153.819 6.5554 153.737 6.23402 153.574 5.96058C153.41 5.68714 153.179 5.47408 152.881 5.32138C152.586 5.16868 152.238 5.09233 151.837 5.09233C151.461 5.09233 151.106 5.16158 150.772 5.30007C150.442 5.43501 150.172 5.6321 149.962 5.89134C149.753 6.14702 149.639 6.45597 149.621 6.81818H148.343C148.364 6.24645 148.536 5.74574 148.86 5.31605C149.183 4.88281 149.605 4.54545 150.127 4.30398C150.653 4.0625 151.23 3.94176 151.858 3.94176C152.533 3.94176 153.112 4.07848 153.595 4.35192C154.078 4.6218 154.449 4.97869 154.708 5.42259C154.967 5.86648 155.097 6.34588 155.097 6.8608C155.097 7.47514 154.936 7.99893 154.612 8.43217C154.293 8.86541 153.858 9.16548 153.307 9.33239V9.41761C153.996 9.53125 154.534 9.82422 154.921 10.2965C155.308 10.7653 155.502 11.3459 155.502 12.0384C155.502 12.6314 155.34 13.1641 155.017 13.6364C154.698 14.1051 154.261 14.4744 153.707 14.7443C153.153 15.0142 152.523 15.1491 151.816 15.1491ZM158.189 6.81818L160.15 10.1634L162.11 6.81818H163.559L160.917 10.9091L163.559 15H162.11L160.15 11.8253L158.189 15H156.74L159.34 10.9091L156.74 6.81818H158.189Z" fill="#9F9F9F"/>
<rect x="185.5" y="0.5" width="18.9997" height="19" rx="9.49986" fill="#454545" stroke="url(#paint3_linear_179_1592)"/>
<path d="M210.874 12.7628V11.6761L215.668 4.09091H216.456V5.77415H215.923L212.301 11.5057V11.5909H218.757V12.7628H210.874ZM216.009 15V12.4325V11.9265V4.09091H217.266V15H216.009ZM221.262 6.81818L223.222 10.1634L225.183 6.81818H226.631L223.989 10.9091L226.631 15H225.183L223.222 11.8253L221.262 15H219.813L222.413 10.9091L219.813 6.81818H221.262Z" fill="#9F9F9F"/>
<rect x="248.5" y="0.5" width="18.9997" height="19" rx="9.49986" fill="#454545" stroke="url(#paint4_linear_179_1592)"/>
<path d="M277.538 15.1491C276.913 15.1491 276.35 15.0249 275.85 14.7763C275.349 14.5277 274.948 14.1868 274.646 13.7536C274.344 13.3203 274.179 12.8267 274.151 12.2727H275.429C275.479 12.7663 275.702 13.1747 276.1 13.4979C276.501 13.8175 276.981 13.9773 277.538 13.9773C277.986 13.9773 278.384 13.8725 278.732 13.663C279.083 13.4535 279.358 13.1658 279.557 12.8001C279.76 12.4308 279.861 12.0135 279.861 11.5483C279.861 11.0724 279.756 10.6481 279.547 10.2752C279.341 9.89879 279.056 9.60227 278.694 9.38565C278.332 9.16903 277.918 9.05895 277.453 9.0554C277.119 9.05185 276.777 9.10334 276.425 9.20987C276.074 9.31285 275.784 9.44602 275.557 9.60938L274.321 9.46023L274.982 4.09091H280.649V5.26278H276.089L275.706 8.48011H275.77C275.994 8.30256 276.274 8.15518 276.612 8.038C276.949 7.92081 277.3 7.86222 277.666 7.86222C278.334 7.86222 278.929 8.02202 279.451 8.34162C279.976 8.65767 280.388 9.09091 280.686 9.64133C280.988 10.1918 281.139 10.8203 281.139 11.527C281.139 12.223 280.983 12.8445 280.67 13.3913C280.362 13.9347 279.935 14.3643 279.392 14.6804C278.849 14.9929 278.231 15.1491 277.538 15.1491ZM283.764 6.81818L285.724 10.1634L287.684 6.81818H289.133L286.491 10.9091L289.133 15H287.684L285.724 11.8253L283.764 15H282.315L284.915 10.9091L282.315 6.81818H283.764Z" fill="#9F9F9F"/>
<defs>
<linearGradient id="paint0_linear_179_1592" x1="0.329329" y1="-1.32923e-06" x2="20.4446" y2="2.41225" gradientUnits="userSpaceOnUse">
<stop stop-color="#EDD78F"/>
<stop offset="1" stop-color="#FDBF4A"/>
</linearGradient>
<linearGradient id="paint1_linear_179_1592" x1="60.3288" y1="-1.32923e-06" x2="80.4441" y2="2.41225" gradientUnits="userSpaceOnUse">
<stop stop-color="#EDD78F"/>
<stop offset="1" stop-color="#FDBF4A"/>
</linearGradient>
<linearGradient id="paint2_linear_179_1592" x1="122.329" y1="-1.32923e-06" x2="142.444" y2="2.41225" gradientUnits="userSpaceOnUse">
<stop stop-color="#EDD78F"/>
<stop offset="1" stop-color="#FDBF4A"/>
</linearGradient>
<linearGradient id="paint3_linear_179_1592" x1="185.328" y1="-1.32923e-06" x2="205.444" y2="2.41225" gradientUnits="userSpaceOnUse">
<stop stop-color="#EDD78F"/>
<stop offset="1" stop-color="#FDBF4A"/>
</linearGradient>
<linearGradient id="paint4_linear_179_1592" x1="248.328" y1="-1.32923e-06" x2="268.444" y2="2.41225" gradientUnits="userSpaceOnUse">
<stop stop-color="#EDD78F"/>
<stop offset="1" stop-color="#FDBF4A"/>
</linearGradient>
</defs>
</svg>
