<svg width="30" height="35" viewBox="0 0 30 35" fill="none" xmlns="http://www.w3.org/2000/svg">
<path d="M14.9733 0C20.3436 0 24.6647 4.22588 24.6647 9.44301V12.1264C27.6789 13.0672 29.875 15.7957 29.875 19.0547V27.6943C29.875 31.7289 26.5301 35 22.4064 35H7.5954C3.46987 35 0.125 31.7289 0.125 27.6943V19.0547C0.125 15.7957 2.32291 13.0672 5.33525 12.1264V9.44301C5.35303 4.22588 9.67416 0 14.9733 0ZM14.9911 19.9225C14.1376 19.9225 13.444 20.6007 13.444 21.4355V25.2961C13.444 26.1483 14.1376 26.8265 14.9911 26.8265C15.8624 26.8265 16.556 26.1483 16.556 25.2961V21.4355C16.556 20.6007 15.8624 19.9225 14.9911 19.9225ZM15.0089 3.04333C11.3991 3.04333 8.46496 5.89536 8.44718 9.40823V11.749H21.5528V9.44301C21.5528 5.91275 18.6187 3.04333 15.0089 3.04333Z" fill="url(#paint0_linear_176_667)"/>
<defs>
<linearGradient id="paint0_linear_176_667" x1="0.612705" y1="-2.32614e-06" x2="30.6528" y2="3.06212" gradientUnits="userSpaceOnUse">
<stop stop-color="#EDD78F"/>
<stop offset="1" stop-color="#FDBF4A"/>
</linearGradient>
</defs>
</svg>
