<svg width="41" height="39" viewBox="0 0 41 39" fill="none" xmlns="http://www.w3.org/2000/svg">
<path d="M31.8368 23.64C31.3188 24.142 31.0808 24.868 31.1988 25.58L32.9768 35.42C33.1268 36.254 32.7748 37.098 32.0768 37.58C31.3928 38.08 30.4828 38.14 29.7368 37.74L20.8788 33.12C20.5708 32.956 20.2288 32.868 19.8788 32.858H19.3368C19.1488 32.886 18.9648 32.946 18.7968 33.038L9.93678 37.68C9.49878 37.9 9.00278 37.978 8.51678 37.9C7.33278 37.676 6.54278 36.548 6.73677 35.358L8.51678 25.518C8.63478 24.8 8.39678 24.07 7.87878 23.56L0.656775 16.56C0.0527751 15.974 -0.157225 15.094 0.118775 14.3C0.386775 13.508 1.07078 12.93 1.89678 12.8L11.8368 11.358C12.5928 11.28 13.2568 10.82 13.5968 10.14L17.9768 1.16C18.0808 0.96 18.2148 0.776 18.3768 0.62L18.5568 0.48C18.6508 0.376 18.7588 0.29 18.8788 0.22L19.0968 0.14L19.4368 0H20.2788C21.0308 0.078 21.6928 0.528 22.0388 1.2L26.4768 10.14C26.7968 10.794 27.4188 11.248 28.1368 11.358L38.0768 12.8C38.9168 12.92 39.6188 13.5 39.8968 14.3C40.1588 15.102 39.9328 15.982 39.3168 16.56L31.8368 23.64Z" fill="url(#paint0_linear_193_677)"/>
<defs>
<linearGradient id="paint0_linear_193_677" x1="0.654847" y1="-2.5257e-06" x2="40.8296" y2="5.07177" gradientUnits="userSpaceOnUse">
<stop stop-color="#D1A81F"/>
<stop offset="1" stop-color="#FAC460"/>
</linearGradient>
</defs>
</svg>
