<svg width="12" height="12" viewBox="0 0 12 12" fill="none" xmlns="http://www.w3.org/2000/svg">
<path d="M6 0C9.31371 0 12 2.68629 12 6C12 9.31371 9.31371 12 6 12C2.68629 12 0 9.31371 0 6C0 2.68629 2.68629 0 6 0ZM4.85225 2.60225C4.65255 2.80195 4.6344 3.11445 4.79779 3.33466L4.85225 3.39775L7.45425 6L4.85225 8.60225C4.65255 8.80195 4.6344 9.11445 4.79779 9.33466L4.85225 9.39775C5.05195 9.59745 5.36445 9.6156 5.58466 9.45221L5.64775 9.39775L8.64775 6.39775C8.84745 6.19805 8.8656 5.88555 8.70221 5.66534L8.64775 5.60225L5.64775 2.60225C5.42808 2.38258 5.07192 2.38258 4.85225 2.60225Z" fill="url(#paint0_linear_205_353)"/>
<defs>
<linearGradient id="paint0_linear_205_353" x1="0.196721" y1="-7.97535e-07" x2="12.266" y2="1.44739" gradientUnits="userSpaceOnUse">
<stop stop-color="#EDD78F"/>
<stop offset="1" stop-color="#FDBF4A"/>
</linearGradient>
</defs>
</svg>
