<svg width="17" height="22" viewBox="0 0 17 22" fill="none" xmlns="http://www.w3.org/2000/svg">
<path d="M7.01807 0.786133V5.59863C7.01807 6.14564 7.23536 6.67025 7.62216 7.05704C8.00895 7.44383 8.53356 7.66113 9.08057 7.66113H13.8931V17.9736C13.8931 18.5206 13.6758 19.0452 13.289 19.432C12.9022 19.8188 12.3776 20.0361 11.8306 20.0361H2.20557C1.65856 20.0361 1.13395 19.8188 0.747159 19.432C0.360365 19.0452 0.143066 18.5206 0.143066 17.9736V2.84863C0.143066 2.30162 0.360365 1.77702 0.747159 1.39023C1.13395 1.00343 1.65856 0.786133 2.20557 0.786133H7.01807ZM8.39307 1.12988V5.59863C8.39307 5.78097 8.4655 5.95584 8.59443 6.08477C8.72336 6.2137 8.89823 6.28613 9.08057 6.28613H13.5493L8.39307 1.12988Z" fill="#FAC55B"/>
<g clip-path="url(#clip0_176_1533)">
<circle cx="12.5179" cy="17.4823" r="3.92857" fill="#FAC55B"/>
<path fill-rule="evenodd" clip-rule="evenodd" d="M8.58936 17.4823C8.58936 16.4404 9.00326 15.4411 9.74001 14.7044C10.4768 13.9676 11.476 13.5537 12.5179 13.5537C13.5598 13.5537 14.5591 13.9676 15.2958 14.7044C16.0326 15.4411 16.4465 16.4404 16.4465 17.4823C16.4465 18.5242 16.0326 19.5235 15.2958 20.2602C14.5591 20.997 13.5598 21.4109 12.5179 21.4109C11.476 21.4109 10.4768 20.997 9.74001 20.2602C9.00326 19.5235 8.58936 18.5242 8.58936 17.4823V17.4823ZM12.2937 19.1637L14.5555 16.3362L14.147 16.0093L12.2183 18.4194L10.8522 17.2811L10.517 17.6834L12.2937 19.1642V19.1637Z" fill="white"/>
</g>
<defs>
<clipPath id="clip0_176_1533">
<rect width="7.85714" height="7.85714" fill="white" transform="translate(8.58936 13.5537)"/>
</clipPath>
</defs>
</svg>
