<svg width="36" height="35" viewBox="0 0 36 35" fill="none" xmlns="http://www.w3.org/2000/svg">
<path d="M25.5858 -0.000976562C31.5148 -0.000976562 35.4995 4.16052 35.4995 10.3538V24.646C35.4995 30.8393 31.5148 34.999 25.584 34.999H10.415C4.48426 34.999 0.499512 30.8393 0.499512 24.646V10.3538C0.499512 4.16052 4.48426 -0.000976562 10.415 -0.000976562H25.5858ZM12.4713 12.9473C9.96176 12.9473 7.91951 14.9895 7.91951 17.499C7.91951 20.0103 9.96176 22.0525 12.4713 22.0525C14.5223 22.0525 16.2408 20.6805 16.8078 18.8115H20.5038V20.74C20.5038 21.4645 21.0918 22.0525 21.8163 22.0525C22.5408 22.0525 23.1288 21.4645 23.1288 20.74V18.8115H25.4563V20.74C25.4563 21.4645 26.0443 22.0525 26.7688 22.0525C27.4933 22.0525 28.0813 21.4645 28.0813 20.74V17.499C28.0813 16.7745 27.4933 16.1865 26.7688 16.1865H16.8078C16.2408 14.3193 14.5223 12.9473 12.4713 12.9473ZM12.4714 15.5721C13.5337 15.5721 14.3999 16.4366 14.3999 17.5006C14.3999 18.5628 13.5337 19.4273 12.4714 19.4273C11.4092 19.4273 10.5429 18.5628 10.5429 17.5006C10.5429 16.4366 11.4092 15.5721 12.4714 15.5721Z" fill="url(#paint0_linear_176_765)"/>
<defs>
<linearGradient id="paint0_linear_176_765" x1="1.07328" y1="-0.000978889" x2="36.2755" y2="4.22058" gradientUnits="userSpaceOnUse">
<stop stop-color="#EDD78F"/>
<stop offset="1" stop-color="#FDBF4A"/>
</linearGradient>
</defs>
</svg>
