<svg width="7" height="7" viewBox="0 0 7 7" fill="none" xmlns="http://www.w3.org/2000/svg">
<path d="M0.555221 2.87199C0.589227 2.83977 0.71763 2.70199 0.837238 2.58866C1.53847 1.87588 3.36777 0.709214 4.32522 0.353103C4.47063 0.295881 4.83825 0.17477 5.03466 0.166992C5.22287 0.166992 5.40228 0.206992 5.57349 0.288103C5.7869 0.401437 5.95811 0.57977 6.05192 0.790325C6.11231 0.936437 6.20612 1.37366 6.20612 1.38144C6.29993 1.85977 6.35153 2.63699 6.35153 3.49588C6.35153 4.31421 6.29993 5.05977 6.22312 5.54533C6.21433 5.5531 6.12052 6.09644 6.01791 6.28255C5.82971 6.62255 5.46209 6.83366 5.06867 6.83366H5.03466C4.77844 6.82533 4.23962 6.61421 4.23962 6.60644C3.33377 6.24977 1.54668 5.14033 0.828444 4.4031C0.828444 4.4031 0.626165 4.21366 0.538218 4.09533C0.40102 3.92533 0.333008 3.71477 0.333008 3.50421C0.333008 3.26921 0.409815 3.05033 0.555221 2.87199Z" fill="#414141"/>
</svg>
