<svg width="7" height="7" viewBox="0 0 7 7" fill="none" xmlns="http://www.w3.org/2000/svg">
<path d="M6.77876 4.12801C6.74476 4.16023 6.61635 4.29801 6.49675 4.41134C5.79551 5.12412 3.96621 6.29079 3.00876 6.6469C2.86336 6.70412 2.49574 6.82523 2.29932 6.83301C2.11111 6.83301 1.9317 6.79301 1.7605 6.7119C1.54708 6.59856 1.37588 6.42023 1.28207 6.20967C1.22167 6.06356 1.12786 5.62634 1.12786 5.61856C1.03405 5.14023 0.982458 4.36301 0.982458 3.50412C0.982458 2.68579 1.03405 1.94023 1.11086 1.45467C1.11966 1.4469 1.21347 0.903563 1.31607 0.717453C1.50428 0.377452 1.8719 0.166342 2.26531 0.166342H2.29932C2.55554 0.174675 3.09436 0.385786 3.09436 0.393564C4.00022 0.750231 5.78731 1.85967 6.50554 2.5969C6.50554 2.5969 6.70782 2.78634 6.79577 2.90467C6.93296 3.07467 7.00098 3.28523 7.00098 3.49579C7.00098 3.73079 6.92417 3.94967 6.77876 4.12801Z" fill="url(#paint0_linear_100_11275)"/>
<defs>
<linearGradient id="paint0_linear_100_11275" x1="6.90231" y1="6.83301" x2="0.833108" y2="6.17593" gradientUnits="userSpaceOnUse">
<stop stop-color="#EDD78F"/>
<stop offset="1" stop-color="#FDBF4A"/>
</linearGradient>
</defs>
</svg>
