<svg width="42" height="43" viewBox="0 0 42 43" fill="none" xmlns="http://www.w3.org/2000/svg">
<path d="M26.4077 16.8473C27.9607 17.1618 29.2348 17.7986 30.3283 18.7153C30.6383 18.9752 30.675 19.443 30.4129 19.7511L29.0783 21.3202C28.8301 21.612 28.3997 21.6614 28.0894 21.4367C26.8882 20.5671 25.6432 20.1524 24.2137 20.1524C22.5715 20.1524 21.5376 20.8518 21.5376 22.0986C21.5376 23.3757 22.2978 23.8927 25.4302 24.8659C29.2618 26.0824 31.4514 27.6941 31.4514 31.4042C31.4514 34.3463 29.5908 36.6046 26.363 37.4521C26.0445 37.5358 25.8254 37.8282 25.8254 38.1575V41.6495C25.8254 42.0543 25.4973 42.3824 25.0926 42.3824H23.061C22.6563 42.3824 22.3282 42.0542 22.3282 41.6495V38.4176C22.3282 38.0533 22.0608 37.7404 21.6996 37.693C19.407 37.392 17.6253 36.5236 16.2903 35.4091C15.9724 35.1437 15.7088 34.9239 15.9875 34.6176L17.8115 32.6134C18.2133 32.172 18.4072 32.3917 18.708 32.6243C20.0142 33.6345 21.4973 34.202 23.2406 34.202C25.2172 34.202 26.4033 33.2898 26.4033 31.7691C26.4033 30.3095 25.6733 29.6404 22.754 28.7281C18.1924 27.3292 16.5806 25.4438 16.5806 22.4635C16.5806 19.5379 18.6637 17.4779 21.7583 16.8195C22.0925 16.7484 22.3282 16.8308 22.3282 16.489V12.5664C22.3282 12.1617 22.6563 12.2455 23.061 12.2455H25.0926C25.4973 12.2455 25.8254 12.5736 25.8254 12.9783V16.1321C25.8254 16.4784 26.0683 16.7786 26.4077 16.8473Z" fill="#A7A7A7"/>
<path d="M7.7002 19.1C7.7002 12.166 11.598 6.19596 17.2002 3.5123C19.2282 2.54083 21.4796 2 23.8502 2C32.7696 2 40.0002 9.65596 40.0002 19.1" stroke="#A7A7A7" stroke-width="3" stroke-linecap="round" stroke-linejoin="round"/>
<path d="M15.3 14.35L7.7 19.1L2 11.5" stroke="#A7A7A7" stroke-width="3" stroke-linecap="round" stroke-linejoin="round"/>
</svg>
