<svg width="72" height="72" viewBox="0 0 72 72" fill="none" xmlns="http://www.w3.org/2000/svg">
<g filter="url(#filter0_d_193_330)">
<circle cx="32" cy="32" r="26" fill="white"/>
</g>
<path d="M42.222 21.7975C41.6801 21.2413 40.8781 21.0341 40.1303 21.2522L22.6923 26.3231C21.9033 26.5423 21.3441 27.1716 21.1935 27.9709C21.0396 28.7845 21.5771 29.8172 22.2794 30.249L27.7319 33.6002C28.2911 33.9437 29.0129 33.8576 29.4757 33.3908L35.7193 27.1083C36.0336 26.7812 36.5538 26.7812 36.8681 27.1083C37.1824 27.4246 37.1824 27.9371 36.8681 28.2643L30.6136 34.5479C30.1498 35.0135 30.0631 35.7387 30.4045 36.3014L33.736 41.8086C34.1262 42.4629 34.7981 42.8337 35.5351 42.8337C35.6218 42.8337 35.7193 42.8337 35.806 42.8228C36.6514 42.7137 37.3233 42.1357 37.5726 41.3178L42.7422 23.9022C42.9698 23.1606 42.7639 22.3536 42.222 21.7975Z" fill="url(#paint0_linear_193_330)"/>
<defs>
<filter id="filter0_d_193_330" x="0" y="0" width="72" height="72" filterUnits="userSpaceOnUse" color-interpolation-filters="sRGB">
<feFlood flood-opacity="0" result="BackgroundImageFix"/>
<feColorMatrix in="SourceAlpha" type="matrix" values="0 0 0 0 0 0 0 0 0 0 0 0 0 0 0 0 0 0 127 0" result="hardAlpha"/>
<feOffset dx="4" dy="4"/>
<feGaussianBlur stdDeviation="5"/>
<feComposite in2="hardAlpha" operator="out"/>
<feColorMatrix type="matrix" values="0 0 0 0 0 0 0 0 0 0 0 0 0 0 0 0 0 0 0.1 0"/>
<feBlend mode="normal" in2="BackgroundImageFix" result="effect1_dropShadow_193_330"/>
<feBlend mode="normal" in="SourceGraphic" in2="effect1_dropShadow_193_330" result="shape"/>
</filter>
<linearGradient id="paint0_linear_193_330" x1="21.5222" y1="21.167" x2="43.314" y2="23.7803" gradientUnits="userSpaceOnUse">
<stop stop-color="#D1A81F"/>
<stop offset="1" stop-color="#FAC460"/>
</linearGradient>
</defs>
</svg>
