<svg width="31" height="33" viewBox="0 0 31 33" fill="none" xmlns="http://www.w3.org/2000/svg">
<path d="M15.3779 10.6738C14.2432 10.6738 13.1339 11.0103 12.1904 11.6407C11.2469 12.2711 10.5116 13.1672 10.0773 14.2155C9.64311 15.2639 9.52949 16.4174 9.75087 17.5304C9.97224 18.6433 10.5187 19.6656 11.321 20.4679C12.1234 21.2703 13.1457 21.8167 14.2586 22.0381C15.3715 22.2595 16.5251 22.1459 17.5734 21.7116C18.6218 21.2774 19.5178 20.542 20.1482 19.5985C20.7786 18.655 21.1151 17.5458 21.1151 16.4111C21.1134 14.89 20.5084 13.4317 19.4328 12.3561C18.3573 11.2806 16.899 10.6756 15.3779 10.6738ZM15.3779 20.0621C14.6558 20.0621 13.9499 19.8479 13.3495 19.4468C12.7491 19.0456 12.2811 18.4754 12.0048 17.8083C11.7285 17.1411 11.6562 16.407 11.7971 15.6988C11.9379 14.9906 12.2857 14.34 12.7962 13.8294C13.3068 13.3189 13.9574 12.9711 14.6656 12.8303C15.3738 12.6894 16.1079 12.7617 16.7751 13.038C17.4422 13.3143 18.0124 13.7823 18.4136 14.3827C18.8147 14.9831 19.0289 15.689 19.0289 16.4111C19.0278 17.379 18.6428 18.3071 17.9583 18.9915C17.2739 19.676 16.3458 20.061 15.3779 20.0621Z" fill="#A7A7A7"/>
<path d="M29.6915 20.7354L27.6203 19.0304C27.9874 17.3039 27.9874 15.5195 27.6203 13.793L29.6915 12.088C29.9304 11.8922 30.0918 11.6179 30.1469 11.314C30.2019 11.0101 30.1469 10.6965 29.9918 10.4294L27.8657 6.74698C27.712 6.47904 27.4679 6.2746 27.1771 6.1703C26.8863 6.06601 26.568 6.06867 26.279 6.17782L23.765 7.1197C22.4553 5.93645 20.9103 5.04346 19.2312 4.49934L18.7901 1.85428C18.7402 1.54944 18.5833 1.27235 18.3476 1.07268C18.1119 0.873014 17.8128 0.763813 17.5039 0.764653H13.2517C12.9428 0.763824 12.6437 0.873021 12.408 1.07268C12.1724 1.27233 12.0155 1.54939 11.9655 1.85421L11.5247 4.49934C9.8456 5.04345 8.30056 5.93643 6.99092 7.1197L4.47664 6.17769C4.18769 6.06861 3.86934 6.06599 3.57863 6.1703C3.28792 6.2746 3.04385 6.47902 2.89016 6.74691L0.764048 10.4296C0.608987 10.6967 0.554075 11.0103 0.609146 11.3142C0.664217 11.6181 0.825675 11.8924 1.0646 12.0881L3.13569 13.793C2.7685 15.5195 2.7685 17.3039 3.13569 19.0304L1.06441 20.7354C0.825518 20.9312 0.664104 21.2055 0.60907 21.5094C0.554035 21.8133 0.608974 22.1269 0.764048 22.394L2.89022 26.0764C3.04394 26.3444 3.28804 26.5488 3.57879 26.6531C3.86954 26.7574 4.18793 26.7547 4.4769 26.6456L6.99099 25.7037C8.30063 26.887 9.84566 27.78 11.5247 28.3241L11.9656 30.9691C12.0155 31.274 12.1724 31.551 12.4081 31.7507C12.6437 31.9504 12.9428 32.0596 13.2517 32.0588H17.5039C17.8128 32.0596 18.1119 31.9504 18.3476 31.7508C18.5833 31.5511 18.7402 31.274 18.7901 30.9692L19.231 28.3241C20.9101 27.78 22.4551 26.887 23.7648 25.7037L26.279 26.6457C26.5679 26.7548 26.8863 26.7574 27.177 26.6531C27.4677 26.5488 27.7118 26.3444 27.8655 26.0765L29.9914 22.3938C30.1466 22.1268 30.2016 21.8133 30.1466 21.5094C30.0917 21.2056 29.9303 20.9312 29.6915 20.7354V20.7354ZM26.3903 24.4594L23.2538 23.2843L22.7788 23.7625C21.472 25.0796 19.8376 26.0243 18.0439 26.499L17.392 26.6708L16.8414 29.9725H13.9147L13.3644 26.6708L12.7124 26.499C10.9188 26.0243 9.28429 25.0796 7.97754 23.7625L7.50258 23.2843L4.36554 24.4594L2.90248 21.9248L5.48613 19.7979L5.3101 19.1477C4.82601 17.3558 4.82601 15.4676 5.3101 13.6758L5.48613 13.0256L2.90248 10.8987L4.36587 8.36397L7.50239 9.53907L7.97734 9.06092C9.2841 7.7438 10.9186 6.79916 12.7122 6.32444L13.3642 6.15259L13.9145 2.85093H16.8414L17.3918 6.15259L18.0437 6.32444C19.8374 6.79916 21.4718 7.7438 22.7786 9.06092L23.2536 9.53907L26.3901 8.36397L27.8535 10.8986L25.2699 13.0256L25.4459 13.6758C25.93 15.4676 25.93 17.3558 25.4459 19.1477L25.2699 19.7979L27.8535 21.9248L26.3903 24.4594Z" fill="#A7A7A7"/>
</svg>
