<svg width="31" height="33" viewBox="0 0 31 33" fill="none" xmlns="http://www.w3.org/2000/svg">
<path d="M15.3779 10.6738C14.2432 10.6738 13.1339 11.0103 12.1904 11.6407C11.2469 12.2711 10.5116 13.1672 10.0773 14.2155C9.64311 15.2639 9.52949 16.4174 9.75087 17.5304C9.97224 18.6433 10.5187 19.6656 11.321 20.4679C12.1234 21.2703 13.1457 21.8167 14.2586 22.0381C15.3715 22.2595 16.5251 22.1459 17.5734 21.7116C18.6218 21.2774 19.5178 20.542 20.1482 19.5985C20.7786 18.655 21.1151 17.5458 21.1151 16.4111C21.1134 14.89 20.5084 13.4317 19.4328 12.3561C18.3573 11.2806 16.899 10.6756 15.3779 10.6738ZM15.3779 20.0621C14.6558 20.0621 13.9499 19.8479 13.3495 19.4468C12.7491 19.0456 12.2811 18.4754 12.0048 17.8083C11.7285 17.1411 11.6562 16.407 11.7971 15.6988C11.9379 14.9906 12.2857 14.34 12.7962 13.8294C13.3068 13.3189 13.9574 12.9711 14.6656 12.8303C15.3738 12.6894 16.1079 12.7617 16.7751 13.038C17.4422 13.3143 18.0124 13.7823 18.4136 14.3827C18.8147 14.9831 19.0289 15.689 19.0289 16.4111C19.0278 17.379 18.6428 18.3071 17.9583 18.9915C17.2739 19.676 16.3458 20.061 15.3779 20.0621Z" fill="white"/>
<path d="M29.6917 20.7354L27.6204 19.0304C27.9876 17.3039 27.9876 15.5195 27.6204 13.793L29.6917 12.088C29.9306 11.8922 30.092 11.6179 30.147 11.314C30.202 11.0101 30.1471 10.6965 29.992 10.4294L27.8658 6.74698C27.7121 6.47904 27.468 6.2746 27.1772 6.1703C26.8865 6.06601 26.5681 6.06867 26.2791 6.17782L23.7651 7.1197C22.4554 5.93645 20.9104 5.04346 19.2313 4.49934L18.7902 1.85428C18.7403 1.54944 18.5834 1.27235 18.3477 1.07268C18.112 0.873014 17.8129 0.763813 17.504 0.764653H13.2518C12.9429 0.763824 12.6439 0.873021 12.4082 1.07268C12.1725 1.27233 12.0156 1.54939 11.9656 1.85421L11.5248 4.49934C9.84572 5.04345 8.30069 5.93643 6.99105 7.1197L4.47676 6.17769C4.18781 6.06861 3.86946 6.06599 3.57875 6.1703C3.28804 6.2746 3.04398 6.47902 2.89028 6.74691L0.764171 10.4296C0.609109 10.6967 0.554197 11.0103 0.609268 11.3142C0.66434 11.6181 0.825797 11.8924 1.06472 12.0881L3.13581 13.793C2.76862 15.5195 2.76862 17.3039 3.13581 19.0304L1.06453 20.7354C0.82564 20.9312 0.664226 21.2055 0.609192 21.5094C0.554157 21.8133 0.609096 22.1269 0.764171 22.394L2.89034 26.0764C3.04406 26.3444 3.28816 26.5488 3.57891 26.6531C3.86966 26.7574 4.18805 26.7547 4.47702 26.6456L6.99111 25.7037C8.30075 26.887 9.84579 27.78 11.5248 28.3241L11.9657 30.9691C12.0156 31.274 12.1725 31.551 12.4082 31.7507C12.6439 31.9504 12.9429 32.0596 13.2518 32.0588H17.504C17.8129 32.0596 18.112 31.9504 18.3477 31.7508C18.5834 31.5511 18.7403 31.274 18.7902 30.9692L19.2311 28.3241C20.9102 27.78 22.4552 26.887 23.7649 25.7037L26.2791 26.6457C26.5681 26.7548 26.8864 26.7574 27.1771 26.6531C27.4678 26.5488 27.7119 26.3444 27.8656 26.0765L29.9916 22.3938C30.1467 22.1268 30.2017 21.8133 30.1467 21.5094C30.0918 21.2056 29.9305 20.9312 29.6917 20.7354ZM26.3904 24.4594L23.2539 23.2843L22.7789 23.7625C21.4722 25.0796 19.8377 26.0243 18.0441 26.499L17.3921 26.6708L16.8415 29.9725H13.9149L13.3645 26.6708L12.7125 26.499C10.9189 26.0243 9.28441 25.0796 7.97766 23.7625L7.5027 23.2843L4.36567 24.4594L2.9026 21.9248L5.48626 19.7979L5.31023 19.1477C4.82613 17.3558 4.82613 15.4676 5.31023 13.6758L5.48626 13.0256L2.9026 10.8987L4.36599 8.36397L7.50251 9.53907L7.97746 9.06092C9.28422 7.7438 10.9187 6.79916 12.7123 6.32444L13.3643 6.15259L13.9146 2.85093H16.8415L17.3919 6.15259L18.0439 6.32444C19.8375 6.79916 21.472 7.7438 22.7787 9.06092L23.2537 9.53907L26.3902 8.36397L27.8537 10.8986L25.27 13.0256L25.446 13.6758C25.9301 15.4676 25.9301 17.3558 25.446 19.1477L25.27 19.7979L27.8537 21.9248L26.3904 24.4594Z" fill="white"/>
</svg>
