<svg width="32" height="38" viewBox="0 0 32 38" fill="none" xmlns="http://www.w3.org/2000/svg">
<path d="M30.5564 4.96855L16.6193 0.218945C16.4512 0.161523 16.2256 0.132812 16 0.132812C15.7744 0.132812 15.5488 0.161523 15.3807 0.218945L1.44355 4.96855C1.10313 5.0834 0.824219 5.47715 0.824219 5.83809V25.624C0.824219 25.985 1.05801 26.4607 1.34102 26.6863L15.4791 37.7031C15.6227 37.8139 15.8072 37.8713 15.9959 37.8713C16.1846 37.8713 16.3732 37.8139 16.5127 37.7031L30.6508 26.6863C30.9338 26.4648 31.1676 25.9891 31.1676 25.624V5.83809C31.1758 5.47715 30.8969 5.0875 30.5564 4.96855ZM28.2227 24.348C28.2227 24.6563 28.0805 24.9473 27.8373 25.1368L16.6146 33.8814C16.2533 34.163 15.7467 34.163 15.3854 33.8814L4.16271 25.1368C3.91953 24.9473 3.77734 24.6563 3.77734 24.348V8.01383C3.77734 7.58591 4.04962 7.20541 4.45464 7.06732L15.6773 3.24108C15.8865 3.16974 16.1135 3.16974 16.3227 3.24108L27.5454 7.06732C27.9504 7.20541 28.2227 7.58591 28.2227 8.01382V24.348ZM11.5785 16.5924C11.4555 16.4242 11.2586 16.3217 11.0453 16.3217H8.78125C8.51465 16.3217 8.35879 16.6252 8.51465 16.8426L13.699 23.9793C13.7603 24.0632 13.8406 24.1315 13.9332 24.1785C14.0259 24.2256 14.1283 24.2501 14.2322 24.2501C14.3361 24.2501 14.4386 24.2256 14.5312 24.1785C14.6239 24.1315 14.7041 24.0632 14.7654 23.9793L23.4853 11.974C23.6412 11.7566 23.4853 11.4531 23.2187 11.4531H20.9547C20.7455 11.4531 20.5445 11.5557 20.4215 11.7238L14.2322 20.2469L11.5785 16.5924Z" fill="white"/>
</svg>
