<svg width="299" height="27" viewBox="0 0 299 27" fill="none" xmlns="http://www.w3.org/2000/svg">
<path d="M6.29492 5.71976C6.29492 3.9232 7.75133 2.4668 9.54789 2.4668H291.743C293.539 2.4668 294.996 3.9232 294.996 5.71976C294.996 7.51633 293.539 8.97273 291.743 8.97273H9.54787C7.75131 8.97273 6.29492 7.51633 6.29492 5.71976Z" fill="#2C2C2C"/>
<rect x="75.8265" y="2.87342" width="5.69269" height="5.69269" rx="2.84635" fill="#6C6C6C" stroke="#464646" stroke-width="0.813242"/>
<rect x="148.205" y="2.87342" width="5.69269" height="5.69269" rx="2.84635" fill="#6C6C6C" stroke="#464646" stroke-width="0.813242"/>
<rect x="219.771" y="2.87342" width="5.69269" height="5.69269" rx="2.84635" fill="#6C6C6C" stroke="#464646" stroke-width="0.813242"/>
<rect x="292.149" y="2.87342" width="5.69269" height="5.69269" rx="2.84635" fill="#6C6C6C" stroke="#464646" stroke-width="0.813242"/>
<rect x="2.22828" y="0.840586" width="9.7589" height="9.7589" rx="4.87945" fill="#7C6B4B" stroke="url(#paint0_linear_100_11188)" stroke-width="1.62648"/>
<path d="M3.85044 24.7631C3.3283 24.7631 2.88356 24.621 2.51621 24.3368C2.14887 24.0503 1.86816 23.6356 1.67409 23.0927C1.48002 22.5474 1.38299 21.889 1.38299 21.1173C1.38299 20.3503 1.48002 19.6953 1.67409 19.1524C1.87047 18.6071 2.15233 18.1913 2.51968 17.9048C2.88933 17.616 3.33292 17.4716 3.85044 17.4716C4.36796 17.4716 4.81039 17.616 5.17773 17.9048C5.54739 18.1913 5.82925 18.6071 6.02332 19.1524C6.2197 19.6953 6.31789 20.3503 6.31789 21.1173C6.31789 21.889 6.22085 22.5474 6.02678 23.0927C5.83271 23.6356 5.55201 24.0503 5.18466 24.3368C4.81732 24.621 4.37258 24.7631 3.85044 24.7631ZM3.85044 24.0006C4.36796 24.0006 4.76996 23.7511 5.05644 23.2521C5.34292 22.753 5.48616 22.0415 5.48616 21.1173C5.48616 20.5028 5.42032 19.9795 5.28863 19.5474C5.15925 19.1154 4.97211 18.7862 4.72721 18.5598C4.48463 18.3334 4.19237 18.2202 3.85044 18.2202C3.33754 18.2202 2.9367 18.4731 2.6479 18.9791C2.35911 19.4828 2.21471 20.1955 2.21471 21.1173C2.21471 21.7319 2.2794 22.254 2.40878 22.6837C2.53816 23.1135 2.72414 23.4404 2.96673 23.6645C3.21163 23.8886 3.5062 24.0006 3.85044 24.0006ZM10.96 23.3353V22.961C10.96 22.7022 11.0132 22.4654 11.1194 22.2505C11.228 22.0334 11.3851 21.8601 11.5907 21.7307C11.7987 21.599 12.0505 21.5332 12.3462 21.5332C12.6466 21.5332 12.8984 21.599 13.1017 21.7307C13.305 21.8601 13.4587 22.0334 13.5626 22.2505C13.6666 22.4654 13.7186 22.7022 13.7186 22.961V23.3353C13.7186 23.594 13.6654 23.832 13.5592 24.0492C13.4552 24.264 13.3004 24.4373 13.0948 24.569C12.8915 24.6984 12.642 24.7631 12.3462 24.7631C12.0459 24.7631 11.7929 24.6984 11.5873 24.569C11.3817 24.4373 11.2257 24.264 11.1194 24.0492C11.0132 23.832 10.96 23.594 10.96 23.3353ZM11.667 22.961V23.3353C11.667 23.5501 11.7178 23.743 11.8195 23.914C11.9211 24.0827 12.0967 24.167 12.3462 24.167C12.5888 24.167 12.7598 24.0827 12.8591 23.914C12.9608 23.743 13.0116 23.5501 13.0116 23.3353V22.961C13.0116 22.7461 12.9631 22.5544 12.8661 22.3857C12.769 22.2147 12.5957 22.1293 12.3462 22.1293C12.1036 22.1293 11.9292 22.2147 11.8229 22.3857C11.719 22.5544 11.667 22.7461 11.667 22.961ZM7.42519 19.2737V18.8994C7.42519 18.6406 7.47833 18.4038 7.5846 18.189C7.69319 17.9718 7.85029 17.7985 8.05591 17.6691C8.26385 17.5374 8.51567 17.4716 8.8114 17.4716C9.11174 17.4716 9.36357 17.5374 9.56688 17.6691C9.77019 17.7985 9.92383 17.9718 10.0278 18.189C10.1318 18.4038 10.1837 18.6406 10.1837 18.8994V19.2737C10.1837 19.5324 10.1306 19.7704 10.0243 19.9876C9.92036 20.2024 9.76557 20.3757 9.55995 20.5074C9.35664 20.6368 9.10712 20.7015 8.8114 20.7015C8.51105 20.7015 8.25807 20.6368 8.05245 20.5074C7.84683 20.3757 7.69088 20.2024 7.5846 19.9876C7.47833 19.7704 7.42519 19.5324 7.42519 19.2737ZM8.13216 18.8994V19.2737C8.13216 19.4885 8.18298 19.6814 8.28464 19.8524C8.38629 20.0211 8.56188 20.1054 8.8114 20.1054C9.05398 20.1054 9.22495 20.0211 9.32429 19.8524C9.42595 19.6814 9.47678 19.4885 9.47678 19.2737V18.8994C9.47678 18.6845 9.42826 18.4928 9.33123 18.3241C9.23419 18.1531 9.06092 18.0677 8.8114 18.0677C8.56881 18.0677 8.39438 18.1531 8.2881 18.3241C8.18414 18.4928 8.13216 18.6845 8.13216 18.8994ZM7.68857 24.666L12.568 17.5686H13.3582L8.47871 24.666H7.68857Z" fill="#828282"/>
<path d="M67.6262 24.666V24.0422L69.9689 21.4777C70.2438 21.1774 70.4703 20.9163 70.6482 20.6945C70.8261 20.4704 70.9577 20.2602 71.0432 20.0638C71.131 19.8651 71.1749 19.6572 71.1749 19.44C71.1749 19.1905 71.1148 18.9745 70.9947 18.792C70.8769 18.6094 70.7152 18.4685 70.5095 18.3692C70.3039 18.2698 70.0729 18.2202 69.8164 18.2202C69.5438 18.2202 69.3058 18.2768 69.1025 18.39C68.9015 18.5009 68.7456 18.6568 68.6347 18.8578C68.5261 19.0588 68.4718 19.2945 68.4718 19.5648H67.6539C67.6539 19.1489 67.7498 18.7839 67.9416 18.4697C68.1333 18.1555 68.3944 17.9106 68.7248 17.735C69.0575 17.5594 69.4306 17.4716 69.8442 17.4716C70.26 17.4716 70.6285 17.5594 70.9497 17.735C71.2708 17.9106 71.5226 18.1474 71.7051 18.4454C71.8877 18.7434 71.9789 19.075 71.9789 19.44C71.9789 19.7011 71.9316 19.9564 71.8368 20.2059C71.7444 20.4531 71.5827 20.7292 71.3517 21.0342C71.1229 21.3368 70.8053 21.7065 70.3986 22.1431L68.8045 23.8482V23.9036H72.1037V24.666H67.6262ZM75.4601 24.7631C75.0535 24.7631 74.6873 24.6822 74.3615 24.5205C74.0358 24.3587 73.7747 24.1369 73.5783 23.8551C73.3819 23.5732 73.2745 23.2521 73.256 22.8917H74.0878C74.1201 23.2128 74.2657 23.4785 74.5244 23.6887C74.7855 23.8967 75.0974 24.0006 75.4601 24.0006C75.7512 24.0006 76.01 23.9325 76.2364 23.7962C76.4651 23.6599 76.6442 23.4727 76.7735 23.2348C76.9052 22.9945 76.9711 22.723 76.9711 22.4204C76.9711 22.1108 76.9029 21.8347 76.7666 21.5921C76.6326 21.3472 76.4478 21.1543 76.2121 21.0134C75.9765 20.8724 75.7073 20.8008 75.4047 20.7985C75.1875 20.7962 74.9645 20.8297 74.7358 20.899C74.5071 20.966 74.3188 21.0526 74.1709 21.1589L73.3669 21.0619L73.7967 17.5686H77.484V18.331H74.5175L74.268 20.4242H74.3095C74.4551 20.3087 74.6376 20.2128 74.8571 20.1366C75.0766 20.0603 75.3053 20.0222 75.5433 20.0222C75.9776 20.0222 76.3646 20.1262 76.7042 20.3341C77.0462 20.5397 77.3142 20.8216 77.5082 21.1797C77.7046 21.5378 77.8028 21.9467 77.8028 22.4065C77.8028 22.8593 77.7011 23.2636 77.4978 23.6194C77.2968 23.9729 77.0196 24.2525 76.6661 24.4581C76.3126 24.6614 75.9106 24.7631 75.4601 24.7631ZM82.5047 23.3353V22.961C82.5047 22.7022 82.5578 22.4654 82.6641 22.2505C82.7727 22.0334 82.9298 21.8601 83.1354 21.7307C83.3434 21.599 83.5952 21.5332 83.8909 21.5332C84.1913 21.5332 84.4431 21.599 84.6464 21.7307C84.8497 21.8601 85.0033 22.0334 85.1073 22.2505C85.2113 22.4654 85.2633 22.7022 85.2633 22.961V23.3353C85.2633 23.594 85.2101 23.832 85.1038 24.0492C84.9999 24.264 84.8451 24.4373 84.6395 24.569C84.4362 24.6984 84.1866 24.7631 83.8909 24.7631C83.5906 24.7631 83.3376 24.6984 83.132 24.569C82.9263 24.4373 82.7704 24.264 82.6641 24.0492C82.5578 23.832 82.5047 23.594 82.5047 23.3353ZM83.2117 22.961V23.3353C83.2117 23.5501 83.2625 23.743 83.3642 23.914C83.4658 24.0827 83.6414 24.167 83.8909 24.167C84.1335 24.167 84.3045 24.0827 84.4038 23.914C84.5055 23.743 84.5563 23.5501 84.5563 23.3353V22.961C84.5563 22.7461 84.5078 22.5544 84.4107 22.3857C84.3137 22.2147 84.1404 22.1293 83.8909 22.1293C83.6483 22.1293 83.4739 22.2147 83.3676 22.3857C83.2637 22.5544 83.2117 22.7461 83.2117 22.961ZM78.9699 19.2737V18.8994C78.9699 18.6406 79.023 18.4038 79.1293 18.189C79.2379 17.9718 79.395 17.7985 79.6006 17.6691C79.8085 17.5374 80.0604 17.4716 80.3561 17.4716C80.6564 17.4716 80.9083 17.5374 81.1116 17.6691C81.3149 17.7985 81.4685 17.9718 81.5725 18.189C81.6764 18.4038 81.7284 18.6406 81.7284 18.8994V19.2737C81.7284 19.5324 81.6753 19.7704 81.569 19.9876C81.465 20.2024 81.3103 20.3757 81.1046 20.5074C80.9013 20.6368 80.6518 20.7015 80.3561 20.7015C80.0557 20.7015 79.8028 20.6368 79.5971 20.5074C79.3915 20.3757 79.2356 20.2024 79.1293 19.9876C79.023 19.7704 78.9699 19.5324 78.9699 19.2737ZM79.6768 18.8994V19.2737C79.6768 19.4885 79.7277 19.6814 79.8293 19.8524C79.931 20.0211 80.1066 20.1054 80.3561 20.1054C80.5987 20.1054 80.7696 20.0211 80.869 19.8524C80.9706 19.6814 81.0215 19.4885 81.0215 19.2737V18.8994C81.0215 18.6845 80.9729 18.4928 80.8759 18.3241C80.7789 18.1531 80.6056 18.0677 80.3561 18.0677C80.1135 18.0677 79.9391 18.1531 79.8328 18.3241C79.7288 18.4928 79.6768 18.6845 79.6768 18.8994ZM79.2333 24.666L84.1127 17.5686H84.9028L80.0234 24.666H79.2333Z" fill="#828282"/>
<path d="M142.128 24.7631C141.721 24.7631 141.355 24.6822 141.029 24.5205C140.703 24.3587 140.442 24.1369 140.246 23.8551C140.05 23.5732 139.942 23.2521 139.924 22.8917H140.755C140.788 23.2128 140.933 23.4785 141.192 23.6887C141.453 23.8967 141.765 24.0006 142.128 24.0006C142.419 24.0006 142.678 23.9325 142.904 23.7962C143.133 23.6599 143.312 23.4727 143.441 23.2348C143.573 22.9945 143.639 22.723 143.639 22.4204C143.639 22.1108 143.571 21.8347 143.434 21.5921C143.3 21.3472 143.115 21.1543 142.88 21.0134C142.644 20.8724 142.375 20.8008 142.072 20.7985C141.855 20.7962 141.632 20.8297 141.403 20.899C141.175 20.966 140.986 21.0526 140.839 21.1589L140.035 21.0619L140.464 17.5686H144.152V18.331H141.185L140.936 20.4242H140.977C141.123 20.3087 141.305 20.2128 141.525 20.1366C141.744 20.0603 141.973 20.0222 142.211 20.0222C142.645 20.0222 143.032 20.1262 143.372 20.3341C143.714 20.5397 143.982 20.8216 144.176 21.1797C144.372 21.5378 144.47 21.9467 144.47 22.4065C144.47 22.8593 144.369 23.2636 144.165 23.6194C143.964 23.9729 143.687 24.2525 143.334 24.4581C142.98 24.6614 142.578 24.7631 142.128 24.7631ZM147.869 24.7631C147.347 24.7631 146.902 24.621 146.535 24.3368C146.168 24.0503 145.887 23.6356 145.693 23.0927C145.499 22.5474 145.402 21.889 145.402 21.1173C145.402 20.3503 145.499 19.6953 145.693 19.1524C145.889 18.6071 146.171 18.1913 146.539 17.9048C146.908 17.616 147.352 17.4716 147.869 17.4716C148.387 17.4716 148.829 17.616 149.197 17.9048C149.566 18.1913 149.848 18.6071 150.042 19.1524C150.239 19.6953 150.337 20.3503 150.337 21.1173C150.337 21.889 150.24 22.5474 150.046 23.0927C149.852 23.6356 149.571 24.0503 149.204 24.3368C148.836 24.621 148.391 24.7631 147.869 24.7631ZM147.869 24.0006C148.387 24.0006 148.789 23.7511 149.075 23.2521C149.362 22.753 149.505 22.0415 149.505 21.1173C149.505 20.5028 149.439 19.9795 149.308 19.5474C149.178 19.1154 148.991 18.7862 148.746 18.5598C148.504 18.3334 148.211 18.2202 147.869 18.2202C147.356 18.2202 146.956 18.4731 146.667 18.9791C146.378 19.4828 146.234 20.1955 146.234 21.1173C146.234 21.7319 146.298 22.254 146.428 22.6837C146.557 23.1135 146.743 23.4404 146.986 23.6645C147.231 23.8886 147.525 24.0006 147.869 24.0006ZM154.979 23.3353V22.961C154.979 22.7022 155.032 22.4654 155.138 22.2505C155.247 22.0334 155.404 21.8601 155.61 21.7307C155.818 21.599 156.069 21.5332 156.365 21.5332C156.665 21.5332 156.917 21.599 157.121 21.7307C157.324 21.8601 157.478 22.0334 157.582 22.2505C157.685 22.4654 157.737 22.7022 157.737 22.961V23.3353C157.737 23.594 157.684 23.832 157.578 24.0492C157.474 24.264 157.319 24.4373 157.114 24.569C156.91 24.6984 156.661 24.7631 156.365 24.7631C156.065 24.7631 155.812 24.6984 155.606 24.569C155.401 24.4373 155.245 24.264 155.138 24.0492C155.032 23.832 154.979 23.594 154.979 23.3353ZM155.686 22.961V23.3353C155.686 23.5501 155.737 23.743 155.838 23.914C155.94 24.0827 156.116 24.167 156.365 24.167C156.608 24.167 156.779 24.0827 156.878 23.914C156.98 23.743 157.03 23.5501 157.03 23.3353V22.961C157.03 22.7461 156.982 22.5544 156.885 22.3857C156.788 22.2147 156.615 22.1293 156.365 22.1293C156.123 22.1293 155.948 22.2147 155.842 22.3857C155.738 22.5544 155.686 22.7461 155.686 22.961ZM151.444 19.2737V18.8994C151.444 18.6406 151.497 18.4038 151.603 18.189C151.712 17.9718 151.869 17.7985 152.075 17.6691C152.283 17.5374 152.535 17.4716 152.83 17.4716C153.131 17.4716 153.382 17.5374 153.586 17.6691C153.789 17.7985 153.943 17.9718 154.047 18.189C154.151 18.4038 154.203 18.6406 154.203 18.8994V19.2737C154.203 19.5324 154.149 19.7704 154.043 19.9876C153.939 20.2024 153.784 20.3757 153.579 20.5074C153.376 20.6368 153.126 20.7015 152.83 20.7015C152.53 20.7015 152.277 20.6368 152.071 20.5074C151.866 20.3757 151.71 20.2024 151.603 19.9876C151.497 19.7704 151.444 19.5324 151.444 19.2737ZM152.151 18.8994V19.2737C152.151 19.4885 152.202 19.6814 152.304 19.8524C152.405 20.0211 152.581 20.1054 152.83 20.1054C153.073 20.1054 153.244 20.0211 153.343 19.8524C153.445 19.6814 153.496 19.4885 153.496 19.2737V18.8994C153.496 18.6845 153.447 18.4928 153.35 18.3241C153.253 18.1531 153.08 18.0677 152.83 18.0677C152.588 18.0677 152.413 18.1531 152.307 18.3241C152.203 18.4928 152.151 18.6845 152.151 18.8994ZM151.707 24.666L156.587 17.5686H157.377L152.498 24.666H151.707Z" fill="#828282"/>
<path d="M212.507 24.666L215.681 18.3865V18.331H212.022V17.5686H216.568V18.3726L213.408 24.666H212.507ZM219.69 24.7631C219.283 24.7631 218.917 24.6822 218.591 24.5205C218.266 24.3587 218.005 24.1369 217.808 23.8551C217.612 23.5732 217.504 23.2521 217.486 22.8917H218.318C218.35 23.2128 218.496 23.4785 218.754 23.6887C219.015 23.8967 219.327 24.0006 219.69 24.0006C219.981 24.0006 220.24 23.9325 220.466 23.7962C220.695 23.6599 220.874 23.4727 221.003 23.2348C221.135 22.9945 221.201 22.723 221.201 22.4204C221.201 22.1108 221.133 21.8347 220.997 21.5921C220.863 21.3472 220.678 21.1543 220.442 21.0134C220.206 20.8724 219.937 20.8008 219.635 20.7985C219.417 20.7962 219.194 20.8297 218.966 20.899C218.737 20.966 218.549 21.0526 218.401 21.1589L217.597 21.0619L218.027 17.5686H221.714V18.331H218.747L218.498 20.4242H218.539C218.685 20.3087 218.868 20.2128 219.087 20.1366C219.306 20.0603 219.535 20.0222 219.773 20.0222C220.208 20.0222 220.595 20.1262 220.934 20.3341C221.276 20.5397 221.544 20.8216 221.738 21.1797C221.935 21.5378 222.033 21.9467 222.033 22.4065C222.033 22.8593 221.931 23.2636 221.728 23.6194C221.527 23.9729 221.249 24.2525 220.896 24.4581C220.543 24.6614 220.141 24.7631 219.69 24.7631ZM226.735 23.3353V22.961C226.735 22.7022 226.788 22.4654 226.894 22.2505C227.003 22.0334 227.16 21.8601 227.365 21.7307C227.573 21.599 227.825 21.5332 228.121 21.5332C228.421 21.5332 228.673 21.599 228.876 21.7307C229.08 21.8601 229.233 22.0334 229.337 22.2505C229.441 22.4654 229.493 22.7022 229.493 22.961V23.3353C229.493 23.594 229.44 23.832 229.334 24.0492C229.23 24.264 229.075 24.4373 228.869 24.569C228.666 24.6984 228.417 24.7631 228.121 24.7631C227.82 24.7631 227.567 24.6984 227.362 24.569C227.156 24.4373 227 24.264 226.894 24.0492C226.788 23.832 226.735 23.594 226.735 23.3353ZM227.442 22.961V23.3353C227.442 23.5501 227.492 23.743 227.594 23.914C227.696 24.0827 227.871 24.167 228.121 24.167C228.363 24.167 228.534 24.0827 228.634 23.914C228.735 23.743 228.786 23.5501 228.786 23.3353V22.961C228.786 22.7461 228.738 22.5544 228.641 22.3857C228.544 22.2147 228.37 22.1293 228.121 22.1293C227.878 22.1293 227.704 22.2147 227.598 22.3857C227.494 22.5544 227.442 22.7461 227.442 22.961ZM223.2 19.2737V18.8994C223.2 18.6406 223.253 18.4038 223.359 18.189C223.468 17.9718 223.625 17.7985 223.831 17.6691C224.038 17.5374 224.29 17.4716 224.586 17.4716C224.886 17.4716 225.138 17.5374 225.341 17.6691C225.545 17.7985 225.698 17.9718 225.802 18.189C225.906 18.4038 225.958 18.6406 225.958 18.8994V19.2737C225.958 19.5324 225.905 19.7704 225.799 19.9876C225.695 20.2024 225.54 20.3757 225.335 20.5074C225.131 20.6368 224.882 20.7015 224.586 20.7015C224.286 20.7015 224.033 20.6368 223.827 20.5074C223.621 20.3757 223.465 20.2024 223.359 19.9876C223.253 19.7704 223.2 19.5324 223.2 19.2737ZM223.907 18.8994V19.2737C223.907 19.4885 223.958 19.6814 224.059 19.8524C224.161 20.0211 224.336 20.1054 224.586 20.1054C224.829 20.1054 225 20.0211 225.099 19.8524C225.201 19.6814 225.251 19.4885 225.251 19.2737V18.8994C225.251 18.6845 225.203 18.4928 225.106 18.3241C225.009 18.1531 224.836 18.0677 224.586 18.0677C224.343 18.0677 224.169 18.1531 224.063 18.3241C223.959 18.4928 223.907 18.6845 223.907 18.8994ZM223.463 24.666L228.343 17.5686H229.133L224.253 24.666H223.463Z" fill="#828282"/>
<path d="M278.2 17.5686V24.666H277.341V18.4697H277.299L275.566 19.6202V18.7469L277.341 17.5686H278.2ZM282.264 24.7631C281.741 24.7631 281.297 24.621 280.929 24.3368C280.562 24.0503 280.281 23.6356 280.087 23.0927C279.893 22.5474 279.796 21.889 279.796 21.1173C279.796 20.3503 279.893 19.6953 280.087 19.1524C280.284 18.6071 280.566 18.1913 280.933 17.9048C281.303 17.616 281.746 17.4716 282.264 17.4716C282.781 17.4716 283.224 17.616 283.591 17.9048C283.961 18.1913 284.242 18.6071 284.437 19.1524C284.633 19.6953 284.731 20.3503 284.731 21.1173C284.731 21.889 284.634 22.5474 284.44 23.0927C284.246 23.6356 283.965 24.0503 283.598 24.3368C283.231 24.621 282.786 24.7631 282.264 24.7631ZM282.264 24.0006C282.781 24.0006 283.183 23.7511 283.47 23.2521C283.756 22.753 283.899 22.0415 283.899 21.1173C283.899 20.5028 283.834 19.9795 283.702 19.5474C283.572 19.1154 283.385 18.7862 283.14 18.5598C282.898 18.3334 282.606 18.2202 282.264 18.2202C281.751 18.2202 281.35 18.4731 281.061 18.9791C280.772 19.4828 280.628 20.1955 280.628 21.1173C280.628 21.7319 280.693 22.254 280.822 22.6837C280.951 23.1135 281.137 23.4404 281.38 23.6645C281.625 23.8886 281.919 24.0006 282.264 24.0006ZM288.07 24.7631C287.548 24.7631 287.103 24.621 286.736 24.3368C286.369 24.0503 286.088 23.6356 285.894 23.0927C285.7 22.5474 285.603 21.889 285.603 21.1173C285.603 20.3503 285.7 19.6953 285.894 19.1524C286.09 18.6071 286.372 18.1913 286.739 17.9048C287.109 17.616 287.553 17.4716 288.07 17.4716C288.588 17.4716 289.03 17.616 289.397 17.9048C289.767 18.1913 290.049 18.6071 290.243 19.1524C290.439 19.6953 290.538 20.3503 290.538 21.1173C290.538 21.889 290.441 22.5474 290.247 23.0927C290.052 23.6356 289.772 24.0503 289.404 24.3368C289.037 24.621 288.592 24.7631 288.07 24.7631ZM288.07 24.0006C288.588 24.0006 288.99 23.7511 289.276 23.2521C289.563 22.753 289.706 22.0415 289.706 21.1173C289.706 20.5028 289.64 19.9795 289.508 19.5474C289.379 19.1154 289.192 18.7862 288.947 18.5598C288.704 18.3334 288.412 18.2202 288.07 18.2202C287.557 18.2202 287.156 18.4731 286.868 18.9791C286.579 19.4828 286.434 20.1955 286.434 21.1173C286.434 21.7319 286.499 22.254 286.629 22.6837C286.758 23.1135 286.944 23.4404 287.186 23.6645C287.431 23.8886 287.726 24.0006 288.07 24.0006ZM295.18 23.3353V22.961C295.18 22.7022 295.233 22.4654 295.339 22.2505C295.448 22.0334 295.605 21.8601 295.81 21.7307C296.018 21.599 296.27 21.5332 296.566 21.5332C296.866 21.5332 297.118 21.599 297.321 21.7307C297.525 21.8601 297.678 22.0334 297.782 22.2505C297.886 22.4654 297.938 22.7022 297.938 22.961V23.3353C297.938 23.594 297.885 23.832 297.779 24.0492C297.675 24.264 297.52 24.4373 297.315 24.569C297.111 24.6984 296.862 24.7631 296.566 24.7631C296.266 24.7631 296.013 24.6984 295.807 24.569C295.601 24.4373 295.445 24.264 295.339 24.0492C295.233 23.832 295.18 23.594 295.18 23.3353ZM295.887 22.961V23.3353C295.887 23.5501 295.938 23.743 296.039 23.914C296.141 24.0827 296.316 24.167 296.566 24.167C296.809 24.167 296.98 24.0827 297.079 23.914C297.181 23.743 297.231 23.5501 297.231 23.3353V22.961C297.231 22.7461 297.183 22.5544 297.086 22.3857C296.989 22.2147 296.815 22.1293 296.566 22.1293C296.323 22.1293 296.149 22.2147 296.043 22.3857C295.939 22.5544 295.887 22.7461 295.887 22.961ZM291.645 19.2737V18.8994C291.645 18.6406 291.698 18.4038 291.804 18.189C291.913 17.9718 292.07 17.7985 292.276 17.6691C292.484 17.5374 292.735 17.4716 293.031 17.4716C293.331 17.4716 293.583 17.5374 293.787 17.6691C293.99 17.7985 294.144 17.9718 294.248 18.189C294.352 18.4038 294.403 18.6406 294.403 18.8994V19.2737C294.403 19.5324 294.35 19.7704 294.244 19.9876C294.14 20.2024 293.985 20.3757 293.78 20.5074C293.576 20.6368 293.327 20.7015 293.031 20.7015C292.731 20.7015 292.478 20.6368 292.272 20.5074C292.067 20.3757 291.911 20.2024 291.804 19.9876C291.698 19.7704 291.645 19.5324 291.645 19.2737ZM292.352 18.8994V19.2737C292.352 19.4885 292.403 19.6814 292.504 19.8524C292.606 20.0211 292.782 20.1054 293.031 20.1054C293.274 20.1054 293.445 20.0211 293.544 19.8524C293.646 19.6814 293.697 19.4885 293.697 19.2737V18.8994C293.697 18.6845 293.648 18.4928 293.551 18.3241C293.454 18.1531 293.281 18.0677 293.031 18.0677C292.789 18.0677 292.614 18.1531 292.508 18.3241C292.404 18.4928 292.352 18.6845 292.352 18.8994ZM291.908 24.666L296.788 17.5686H297.578L292.698 24.666H291.908Z" fill="#828282"/>
<defs>
<linearGradient id="paint0_linear_100_11188" x1="1.60168" y1="0.027343" x2="13.0528" y2="1.4006" gradientUnits="userSpaceOnUse">
<stop stop-color="#EDD78F"/>
<stop offset="1" stop-color="#FDBF4A"/>
</linearGradient>
</defs>
</svg>
