<svg width="267" height="22" viewBox="0 0 267 22" fill="none" xmlns="http://www.w3.org/2000/svg">
<rect width="78" height="22" rx="5" fill="#02C8A8" fill-opacity="0.1"/>
<path d="M10.8807 15V7.72727H15.2699V8.50852H11.7614V10.9659H15.0426V11.7472H11.7614V14.2188H15.3267V15H10.8807ZM18.0487 15.1278C17.7031 15.1278 17.3894 15.0627 17.1077 14.9325C16.8259 14.8 16.6022 14.6094 16.4365 14.3608C16.2708 14.1098 16.1879 13.8068 16.1879 13.4517C16.1879 13.1392 16.2495 12.8859 16.3726 12.6918C16.4957 12.4953 16.6602 12.3414 16.8662 12.2301C17.0722 12.1188 17.2994 12.036 17.548 11.9815C17.799 11.9247 18.0511 11.8797 18.3044 11.8466C18.6358 11.804 18.9045 11.772 19.1105 11.7507C19.3188 11.727 19.4704 11.688 19.5651 11.6335C19.6621 11.5791 19.7107 11.4844 19.7107 11.3494V11.321C19.7107 10.9706 19.6148 10.6984 19.423 10.5043C19.2336 10.3101 18.946 10.2131 18.5601 10.2131C18.16 10.2131 17.8463 10.3007 17.619 10.4759C17.3918 10.651 17.232 10.8381 17.1396 11.0369L16.3442 10.7528C16.4862 10.4214 16.6756 10.1634 16.9124 9.97869C17.1515 9.79167 17.4119 9.66146 17.6936 9.58807C17.9777 9.51231 18.2571 9.47443 18.5317 9.47443C18.7069 9.47443 18.9081 9.49574 19.1354 9.53835C19.365 9.5786 19.5864 9.66264 19.7994 9.79048C20.0149 9.91832 20.1936 10.1113 20.3357 10.3693C20.4777 10.6274 20.5487 10.973 20.5487 11.4062V15H19.7107V14.2614H19.668C19.6112 14.3797 19.5165 14.5064 19.3839 14.6413C19.2514 14.7763 19.075 14.8911 18.8548 14.9858C18.6347 15.0805 18.366 15.1278 18.0487 15.1278ZM18.1766 14.375C18.508 14.375 18.7874 14.3099 19.0146 14.1797C19.2443 14.0495 19.4171 13.8814 19.5331 13.6754C19.6515 13.4695 19.7107 13.2528 19.7107 13.0256V12.2585C19.6751 12.3011 19.597 12.3402 19.4763 12.3757C19.3579 12.4089 19.2206 12.4384 19.0643 12.4645C18.9105 12.4882 18.7601 12.5095 18.6134 12.5284C18.4689 12.545 18.3518 12.5592 18.2618 12.571C18.044 12.5994 17.8404 12.6456 17.651 12.7095C17.464 12.7711 17.3125 12.8646 17.1964 12.9901C17.0828 13.1132 17.026 13.2812 17.026 13.4943C17.026 13.7855 17.1337 14.0057 17.3491 14.1548C17.567 14.3016 17.8428 14.375 18.1766 14.375ZM21.7784 15V9.54545H22.588V10.3693H22.6449C22.7443 10.0994 22.9242 9.88045 23.1846 9.71236C23.445 9.54427 23.7386 9.46023 24.0653 9.46023C24.1269 9.46023 24.2038 9.46141 24.2961 9.46378C24.3885 9.46615 24.4583 9.4697 24.5056 9.47443V10.3267C24.4772 10.3196 24.4121 10.3089 24.3103 10.2947C24.2109 10.2782 24.1056 10.2699 23.9943 10.2699C23.7291 10.2699 23.4924 10.3255 23.2841 10.4368C23.0781 10.5457 22.9147 10.6972 22.794 10.8913C22.6756 11.0831 22.6164 11.3021 22.6164 11.5483V15H21.7784ZM26.0371 11.7188V15H25.1991V9.54545H26.0087V10.3977H26.0798C26.2076 10.1207 26.4017 9.8982 26.6621 9.73011C26.9226 9.55966 27.2587 9.47443 27.6707 9.47443C28.04 9.47443 28.3631 9.55019 28.6401 9.7017C28.9171 9.85085 29.1326 10.0781 29.2864 10.3835C29.4403 10.6866 29.5173 11.0701 29.5173 11.5341V15H28.6792V11.5909C28.6792 11.1624 28.5679 10.8286 28.3454 10.5895C28.1228 10.348 27.8174 10.2273 27.4292 10.2273C27.1617 10.2273 26.9226 10.2853 26.7119 10.4013C26.5035 10.5173 26.339 10.6866 26.2183 10.9091C26.0975 11.1316 26.0371 11.4015 26.0371 11.7188ZM31.3595 15.0568C31.1843 15.0568 31.034 14.9941 30.9085 14.8686C30.783 14.7431 30.7203 14.5928 30.7203 14.4176C30.7203 14.2424 30.783 14.0921 30.9085 13.9666C31.034 13.8411 31.1843 13.7784 31.3595 13.7784C31.5347 13.7784 31.685 13.8411 31.8105 13.9666C31.9359 14.0921 31.9987 14.2424 31.9987 14.4176C31.9987 14.5336 31.9691 14.6402 31.9099 14.7372C31.8531 14.8343 31.7761 14.9124 31.6791 14.9716C31.5844 15.0284 31.4779 15.0568 31.3595 15.0568ZM31.3595 11.0085C31.1843 11.0085 31.034 10.9458 30.9085 10.8203C30.783 10.6948 30.7203 10.5445 30.7203 10.3693C30.7203 10.1941 30.783 10.0438 30.9085 9.91832C31.034 9.79285 31.1843 9.73011 31.3595 9.73011C31.5347 9.73011 31.685 9.79285 31.8105 9.91832C31.9359 10.0438 31.9987 10.1941 31.9987 10.3693C31.9987 10.4853 31.9691 10.5919 31.9099 10.6889C31.8531 10.786 31.7761 10.8641 31.6791 10.9233C31.5844 10.9801 31.4779 11.0085 31.3595 11.0085Z" fill="white"/>
<path d="M38.2577 7.72727V15H37.377V8.65057H37.3344L35.5588 9.82955V8.93466L37.377 7.72727H38.2577ZM42.4215 15.0994C41.8864 15.0994 41.4307 14.9538 41.0543 14.6626C40.6779 14.3691 40.3902 13.9441 40.1914 13.3878C39.9925 12.8291 39.8931 12.1544 39.8931 11.3636C39.8931 10.5777 39.9925 9.90649 40.1914 9.35014C40.3926 8.79143 40.6814 8.36529 41.0578 8.07173C41.4366 7.7758 41.8912 7.62784 42.4215 7.62784C42.9518 7.62784 43.4051 7.7758 43.7816 8.07173C44.1604 8.36529 44.4492 8.79143 44.648 9.35014C44.8493 9.90649 44.9499 10.5777 44.9499 11.3636C44.9499 12.1544 44.8505 12.8291 44.6516 13.3878C44.4527 13.9441 44.1651 14.3691 43.7887 14.6626C43.4123 14.9538 42.9565 15.0994 42.4215 15.0994ZM42.4215 14.3182C42.9518 14.3182 43.3637 14.0625 43.6573 13.5511C43.9508 13.0398 44.0976 12.3106 44.0976 11.3636C44.0976 10.7339 44.0301 10.1977 43.8952 9.75497C43.7626 9.31226 43.5709 8.97491 43.3199 8.7429C43.0713 8.51089 42.7719 8.39489 42.4215 8.39489C41.8959 8.39489 41.4852 8.65412 41.1892 9.17259C40.8933 9.68868 40.7453 10.419 40.7453 11.3636C40.7453 11.9934 40.8116 12.5284 40.9442 12.9688C41.0768 13.4091 41.2674 13.7441 41.5159 13.9737C41.7669 14.2034 42.0687 14.3182 42.4215 14.3182ZM46.3704 15.0568C46.1952 15.0568 46.0449 14.9941 45.9194 14.8686C45.7939 14.7431 45.7312 14.5928 45.7312 14.4176C45.7312 14.2424 45.7939 14.0921 45.9194 13.9666C46.0449 13.8411 46.1952 13.7784 46.3704 13.7784C46.5456 13.7784 46.6959 13.8411 46.8214 13.9666C46.9469 14.0921 47.0096 14.2424 47.0096 14.4176C47.0096 14.5336 46.98 14.6402 46.9208 14.7372C46.864 14.8343 46.7871 14.9124 46.69 14.9716C46.5953 15.0284 46.4888 15.0568 46.3704 15.0568ZM50.3176 15.0994C49.7825 15.0994 49.3268 14.9538 48.9504 14.6626C48.574 14.3691 48.2863 13.9441 48.0875 13.3878C47.8886 12.8291 47.7892 12.1544 47.7892 11.3636C47.7892 10.5777 47.8886 9.90649 48.0875 9.35014C48.2887 8.79143 48.5775 8.36529 48.9539 8.07173C49.3327 7.7758 49.7873 7.62784 50.3176 7.62784C50.8479 7.62784 51.3012 7.7758 51.6777 8.07173C52.0565 8.36529 52.3453 8.79143 52.5441 9.35014C52.7454 9.90649 52.846 10.5777 52.846 11.3636C52.846 12.1544 52.7466 12.8291 52.5477 13.3878C52.3488 13.9441 52.0612 14.3691 51.6848 14.6626C51.3083 14.9538 50.8526 15.0994 50.3176 15.0994ZM50.3176 14.3182C50.8479 14.3182 51.2598 14.0625 51.5534 13.5511C51.8469 13.0398 51.9937 12.3106 51.9937 11.3636C51.9937 10.7339 51.9262 10.1977 51.7913 9.75497C51.6587 9.31226 51.467 8.97491 51.216 8.7429C50.9674 8.51089 50.668 8.39489 50.3176 8.39489C49.792 8.39489 49.3813 8.65412 49.0853 9.17259C48.7894 9.68868 48.6414 10.419 48.6414 11.3636C48.6414 11.9934 48.7077 12.5284 48.8403 12.9688C48.9729 13.4091 49.1635 13.7441 49.412 13.9737C49.663 14.2034 49.9648 14.3182 50.3176 14.3182ZM56.2676 15.0994C55.7325 15.0994 55.2768 14.9538 54.9004 14.6626C54.524 14.3691 54.2363 13.9441 54.0375 13.3878C53.8386 12.8291 53.7392 12.1544 53.7392 11.3636C53.7392 10.5777 53.8386 9.90649 54.0375 9.35014C54.2387 8.79143 54.5275 8.36529 54.9039 8.07173C55.2827 7.7758 55.7373 7.62784 56.2676 7.62784C56.7979 7.62784 57.2512 7.7758 57.6277 8.07173C58.0065 8.36529 58.2953 8.79143 58.4941 9.35014C58.6954 9.90649 58.796 10.5777 58.796 11.3636C58.796 12.1544 58.6966 12.8291 58.4977 13.3878C58.2988 13.9441 58.0112 14.3691 57.6348 14.6626C57.2583 14.9538 56.8026 15.0994 56.2676 15.0994ZM56.2676 14.3182C56.7979 14.3182 57.2098 14.0625 57.5034 13.5511C57.7969 13.0398 57.9437 12.3106 57.9437 11.3636C57.9437 10.7339 57.8762 10.1977 57.7413 9.75497C57.6087 9.31226 57.417 8.97491 57.166 8.7429C56.9174 8.51089 56.618 8.39489 56.2676 8.39489C55.742 8.39489 55.3313 8.65412 55.0353 9.17259C54.7394 9.68868 54.5914 10.419 54.5914 11.3636C54.5914 11.9934 54.6577 12.5284 54.7903 12.9688C54.9229 13.4091 55.1135 13.7441 55.362 13.9737C55.613 14.2034 55.9148 14.3182 56.2676 14.3182ZM63.5528 13.6364V13.2528C63.5528 12.9877 63.6073 12.745 63.7162 12.5249C63.8274 12.3023 63.9884 12.1248 64.1991 11.9922C64.4122 11.8572 64.6702 11.7898 64.9733 11.7898C65.281 11.7898 65.5391 11.8572 65.7474 11.9922C65.9557 12.1248 66.1132 12.3023 66.2197 12.5249C66.3262 12.745 66.3795 12.9877 66.3795 13.2528V13.6364C66.3795 13.9015 66.3251 14.1454 66.2162 14.3679C66.1096 14.5881 65.951 14.7656 65.7403 14.9006C65.532 15.0331 65.2763 15.0994 64.9733 15.0994C64.6655 15.0994 64.4063 15.0331 64.1956 14.9006C63.9849 14.7656 63.8251 14.5881 63.7162 14.3679C63.6073 14.1454 63.5528 13.9015 63.5528 13.6364ZM64.2772 13.2528V13.6364C64.2772 13.8565 64.3293 14.0542 64.4335 14.2294C64.5377 14.4022 64.7176 14.4886 64.9733 14.4886C65.2218 14.4886 65.397 14.4022 65.4988 14.2294C65.603 14.0542 65.6551 13.8565 65.6551 13.6364V13.2528C65.6551 13.0327 65.6054 12.8362 65.5059 12.6634C65.4065 12.4882 65.2289 12.4006 64.9733 12.4006C64.7247 12.4006 64.5459 12.4882 64.437 12.6634C64.3305 12.8362 64.2772 13.0327 64.2772 13.2528ZM59.9306 9.47443V9.09091C59.9306 8.82576 59.9851 8.5831 60.094 8.36293C60.2053 8.14039 60.3663 7.96283 60.577 7.83026C60.79 7.69531 61.0481 7.62784 61.3511 7.62784C61.6589 7.62784 61.9169 7.69531 62.1252 7.83026C62.3336 7.96283 62.491 8.14039 62.5976 8.36293C62.7041 8.5831 62.7574 8.82576 62.7574 9.09091V9.47443C62.7574 9.73958 62.7029 9.98343 62.594 10.206C62.4875 10.4261 62.3288 10.6037 62.1181 10.7386C61.9098 10.8712 61.6541 10.9375 61.3511 10.9375C61.0433 10.9375 60.7841 10.8712 60.5734 10.7386C60.3627 10.6037 60.2029 10.4261 60.094 10.206C59.9851 9.98343 59.9306 9.73958 59.9306 9.47443ZM60.6551 9.09091V9.47443C60.6551 9.6946 60.7072 9.89228 60.8113 10.0675C60.9155 10.2403 61.0954 10.3267 61.3511 10.3267C61.5997 10.3267 61.7749 10.2403 61.8767 10.0675C61.9808 9.89228 62.0329 9.6946 62.0329 9.47443V9.09091C62.0329 8.87074 61.9832 8.67424 61.8838 8.50142C61.7843 8.32623 61.6068 8.23864 61.3511 8.23864C61.1025 8.23864 60.9238 8.32623 60.8149 8.50142C60.7083 8.67424 60.6551 8.87074 60.6551 9.09091ZM60.2005 15L65.2005 7.72727H66.0102L61.0102 15H60.2005Z" fill="#02C8A8"/>
<rect x="90" width="85" height="22" rx="5" fill="#02C8A8" fill-opacity="0.1"/>
<path d="M100.483 8.50852V7.72727H105.938V8.50852H103.651V15H102.77V8.50852H100.483ZM106.317 15V9.54545H107.126V10.3693H107.183C107.283 10.0994 107.462 9.88045 107.723 9.71236C107.983 9.54427 108.277 9.46023 108.604 9.46023C108.665 9.46023 108.742 9.46141 108.834 9.46378C108.927 9.46615 108.997 9.4697 109.044 9.47443V10.3267C109.016 10.3196 108.95 10.3089 108.849 10.2947C108.749 10.2782 108.644 10.2699 108.533 10.2699C108.267 10.2699 108.031 10.3255 107.822 10.4368C107.616 10.5457 107.453 10.6972 107.332 10.8913C107.214 11.0831 107.155 11.3021 107.155 11.5483V15H106.317ZM111.342 15.1278C110.997 15.1278 110.683 15.0627 110.401 14.9325C110.12 14.8 109.896 14.6094 109.73 14.3608C109.565 14.1098 109.482 13.8068 109.482 13.4517C109.482 13.1392 109.543 12.8859 109.666 12.6918C109.789 12.4953 109.954 12.3414 110.16 12.2301C110.366 12.1188 110.593 12.036 110.842 11.9815C111.093 11.9247 111.345 11.8797 111.598 11.8466C111.93 11.804 112.198 11.772 112.404 11.7507C112.613 11.727 112.764 11.688 112.859 11.6335C112.956 11.5791 113.004 11.4844 113.004 11.3494V11.321C113.004 10.9706 112.909 10.6984 112.717 10.5043C112.527 10.3101 112.24 10.2131 111.854 10.2131C111.454 10.2131 111.14 10.3007 110.913 10.4759C110.686 10.651 110.526 10.8381 110.433 11.0369L109.638 10.7528C109.78 10.4214 109.969 10.1634 110.206 9.97869C110.445 9.79167 110.706 9.66146 110.987 9.58807C111.271 9.51231 111.551 9.47443 111.825 9.47443C112.001 9.47443 112.202 9.49574 112.429 9.53835C112.659 9.5786 112.88 9.66264 113.093 9.79048C113.309 9.91832 113.487 10.1113 113.629 10.3693C113.771 10.6274 113.842 10.973 113.842 11.4062V15H113.004V14.2614H112.962C112.905 14.3797 112.81 14.5064 112.678 14.6413C112.545 14.7763 112.369 14.8911 112.149 14.9858C111.928 15.0805 111.66 15.1278 111.342 15.1278ZM111.47 14.375C111.802 14.375 112.081 14.3099 112.308 14.1797C112.538 14.0495 112.711 13.8814 112.827 13.6754C112.945 13.4695 113.004 13.2528 113.004 13.0256V12.2585C112.969 12.3011 112.891 12.3402 112.77 12.3757C112.652 12.4089 112.514 12.4384 112.358 12.4645C112.204 12.4882 112.054 12.5095 111.907 12.5284C111.763 12.545 111.646 12.5592 111.556 12.571C111.338 12.5994 111.134 12.6456 110.945 12.7095C110.758 12.7711 110.606 12.8646 110.49 12.9901C110.377 13.1132 110.32 13.2812 110.32 13.4943C110.32 13.7855 110.427 14.0057 110.643 14.1548C110.861 14.3016 111.137 14.375 111.47 14.375ZM117.132 15.1136C116.677 15.1136 116.276 14.9988 115.928 14.7692C115.58 14.5372 115.308 14.2105 115.111 13.7891C114.915 13.3653 114.816 12.8646 114.816 12.2869C114.816 11.714 114.915 11.2169 115.111 10.7955C115.308 10.3741 115.581 10.0485 115.931 9.81889C116.282 9.58925 116.687 9.47443 117.146 9.47443C117.501 9.47443 117.782 9.53362 117.988 9.65199C118.196 9.76799 118.355 9.90057 118.463 10.0497C118.575 10.1965 118.661 10.3172 118.723 10.4119H118.794V7.72727H119.632V15H118.822V14.1619H118.723C118.661 14.2614 118.574 14.3868 118.46 14.5384C118.346 14.6875 118.184 14.8213 117.973 14.9396C117.763 15.0556 117.482 15.1136 117.132 15.1136ZM117.245 14.3608C117.582 14.3608 117.866 14.2732 118.098 14.098C118.33 13.9205 118.506 13.6754 118.627 13.3629C118.748 13.0481 118.808 12.6847 118.808 12.2727C118.808 11.8655 118.749 11.5092 118.63 11.2038C118.512 10.8961 118.337 10.657 118.105 10.4865C117.873 10.3137 117.586 10.2273 117.245 10.2273C116.89 10.2273 116.594 10.3184 116.358 10.5007C116.123 10.6806 115.947 10.9257 115.829 11.2358C115.713 11.5436 115.655 11.8892 115.655 12.2727C115.655 12.661 115.714 13.0137 115.832 13.331C115.953 13.6458 116.13 13.8968 116.365 14.0838C116.601 14.2685 116.895 14.3608 117.245 14.3608ZM123.27 15.1136C122.744 15.1136 122.291 14.9976 121.91 14.7656C121.531 14.5312 121.239 14.2045 121.033 13.7855C120.829 13.3641 120.727 12.8741 120.727 12.3153C120.727 11.7566 120.829 11.2642 121.033 10.8381C121.239 10.4096 121.525 10.0758 121.892 9.83665C122.261 9.59517 122.692 9.47443 123.185 9.47443C123.469 9.47443 123.749 9.52178 124.026 9.61648C124.303 9.71117 124.556 9.86506 124.783 10.0781C125.01 10.2888 125.191 10.5682 125.326 10.9162C125.461 11.2642 125.529 11.6927 125.529 12.2017V12.5568H121.324V11.8324H124.676C124.676 11.5246 124.615 11.25 124.492 11.0085C124.371 10.767 124.198 10.5765 123.973 10.4368C123.751 10.2971 123.488 10.2273 123.185 10.2273C122.851 10.2273 122.562 10.3101 122.318 10.4759C122.077 10.6392 121.891 10.8523 121.761 11.1151C121.631 11.3778 121.565 11.6596 121.565 11.9602V12.4432C121.565 12.8551 121.636 13.2043 121.779 13.4908C121.923 13.7749 122.123 13.9915 122.379 14.1406C122.634 14.2874 122.931 14.3608 123.27 14.3608C123.49 14.3608 123.689 14.33 123.867 14.2685C124.047 14.2045 124.202 14.1098 124.332 13.9844C124.462 13.8565 124.563 13.6979 124.634 13.5085L125.443 13.7358C125.358 14.0104 125.215 14.2519 125.014 14.4602C124.812 14.6662 124.564 14.8272 124.268 14.9432C123.972 15.0568 123.639 15.1136 123.27 15.1136ZM127.114 15.0568C126.939 15.0568 126.789 14.9941 126.663 14.8686C126.538 14.7431 126.475 14.5928 126.475 14.4176C126.475 14.2424 126.538 14.0921 126.663 13.9666C126.789 13.8411 126.939 13.7784 127.114 13.7784C127.289 13.7784 127.44 13.8411 127.565 13.9666C127.691 14.0921 127.753 14.2424 127.753 14.4176C127.753 14.5336 127.724 14.6402 127.665 14.7372C127.608 14.8343 127.531 14.9124 127.434 14.9716C127.339 15.0284 127.233 15.0568 127.114 15.0568ZM127.114 11.0085C126.939 11.0085 126.789 10.9458 126.663 10.8203C126.538 10.6948 126.475 10.5445 126.475 10.3693C126.475 10.1941 126.538 10.0438 126.663 9.91832C126.789 9.79285 126.939 9.73011 127.114 9.73011C127.289 9.73011 127.44 9.79285 127.565 9.91832C127.691 10.0438 127.753 10.1941 127.753 10.3693C127.753 10.4853 127.724 10.5919 127.665 10.6889C127.608 10.786 127.531 10.8641 127.434 10.9233C127.339 10.9801 127.233 11.0085 127.114 11.0085Z" fill="white"/>
<path d="M133.913 15.0994C133.444 15.0994 133.026 15.0189 132.659 14.858C132.295 14.697 132.005 14.4732 131.789 14.1868C131.576 13.898 131.46 13.563 131.441 13.1818H132.336C132.355 13.4162 132.436 13.6186 132.578 13.7891C132.72 13.9571 132.906 14.0874 133.135 14.1797C133.365 14.272 133.619 14.3182 133.899 14.3182C134.211 14.3182 134.488 14.2637 134.73 14.1548C134.971 14.0459 135.161 13.8944 135.298 13.7003C135.435 13.5062 135.504 13.2812 135.504 13.0256C135.504 12.758 135.438 12.5225 135.305 12.3189C135.172 12.1129 134.978 11.9519 134.723 11.8359C134.467 11.7199 134.154 11.6619 133.785 11.6619H133.203V10.8807H133.785C134.074 10.8807 134.327 10.8286 134.545 10.7244C134.765 10.6203 134.937 10.4735 135.06 10.2841C135.185 10.0947 135.248 9.87216 135.248 9.61648C135.248 9.37026 135.194 9.15601 135.085 8.97372C134.976 8.79143 134.822 8.64938 134.623 8.54759C134.427 8.44579 134.195 8.39489 133.927 8.39489C133.676 8.39489 133.439 8.44105 133.217 8.53338C132.997 8.62334 132.817 8.75473 132.677 8.92756C132.537 9.09801 132.462 9.30398 132.45 9.54545H131.598C131.612 9.1643 131.727 8.83049 131.942 8.54403C132.158 8.25521 132.439 8.0303 132.787 7.86932C133.138 7.70833 133.522 7.62784 133.941 7.62784C134.391 7.62784 134.777 7.71899 135.099 7.90128C135.421 8.0812 135.668 8.31913 135.841 8.61506C136.014 8.91098 136.1 9.23059 136.1 9.57386C136.1 9.98343 135.993 10.3326 135.777 10.6214C135.564 10.9103 135.274 11.1103 134.907 11.2216V11.2784C135.367 11.3542 135.725 11.5495 135.983 11.8643C136.241 12.1768 136.37 12.5639 136.37 13.0256C136.37 13.4209 136.263 13.776 136.047 14.0909C135.834 14.4034 135.543 14.6496 135.174 14.8295C134.804 15.0095 134.384 15.0994 133.913 15.0994ZM139.895 15.0994C139.36 15.0994 138.904 14.9538 138.528 14.6626C138.151 14.3691 137.864 13.9441 137.665 13.3878C137.466 12.8291 137.367 12.1544 137.367 11.3636C137.367 10.5777 137.466 9.90649 137.665 9.35014C137.866 8.79143 138.155 8.36529 138.531 8.07173C138.91 7.7758 139.365 7.62784 139.895 7.62784C140.425 7.62784 140.879 7.7758 141.255 8.07173C141.634 8.36529 141.923 8.79143 142.121 9.35014C142.323 9.90649 142.423 10.5777 142.423 11.3636C142.423 12.1544 142.324 12.8291 142.125 13.3878C141.926 13.9441 141.639 14.3691 141.262 14.6626C140.886 14.9538 140.43 15.0994 139.895 15.0994ZM139.895 14.3182C140.425 14.3182 140.837 14.0625 141.131 13.5511C141.424 13.0398 141.571 12.3106 141.571 11.3636C141.571 10.7339 141.504 10.1977 141.369 9.75497C141.236 9.31226 141.044 8.97491 140.793 8.7429C140.545 8.51089 140.245 8.39489 139.895 8.39489C139.369 8.39489 138.959 8.65412 138.663 9.17259C138.367 9.68868 138.219 10.419 138.219 11.3636C138.219 11.9934 138.285 12.5284 138.418 12.9688C138.55 13.4091 138.741 13.7441 138.989 13.9737C139.24 14.2034 139.542 14.3182 139.895 14.3182ZM143.844 15.0568C143.669 15.0568 143.518 14.9941 143.393 14.8686C143.267 14.7431 143.205 14.5928 143.205 14.4176C143.205 14.2424 143.267 14.0921 143.393 13.9666C143.518 13.8411 143.669 13.7784 143.844 13.7784C144.019 13.7784 144.169 13.8411 144.295 13.9666C144.42 14.0921 144.483 14.2424 144.483 14.4176C144.483 14.5336 144.453 14.6402 144.394 14.7372C144.337 14.8343 144.261 14.9124 144.163 14.9716C144.069 15.0284 143.962 15.0568 143.844 15.0568ZM147.791 15.0994C147.256 15.0994 146.8 14.9538 146.424 14.6626C146.047 14.3691 145.76 13.9441 145.561 13.3878C145.362 12.8291 145.263 12.1544 145.263 11.3636C145.263 10.5777 145.362 9.90649 145.561 9.35014C145.762 8.79143 146.051 8.36529 146.427 8.07173C146.806 7.7758 147.261 7.62784 147.791 7.62784C148.321 7.62784 148.775 7.7758 149.151 8.07173C149.53 8.36529 149.819 8.79143 150.018 9.35014C150.219 9.90649 150.319 10.5777 150.319 11.3636C150.319 12.1544 150.22 12.8291 150.021 13.3878C149.822 13.9441 149.535 14.3691 149.158 14.6626C148.782 14.9538 148.326 15.0994 147.791 15.0994ZM147.791 14.3182C148.321 14.3182 148.733 14.0625 149.027 13.5511C149.32 13.0398 149.467 12.3106 149.467 11.3636C149.467 10.7339 149.4 10.1977 149.265 9.75497C149.132 9.31226 148.94 8.97491 148.689 8.7429C148.441 8.51089 148.141 8.39489 147.791 8.39489C147.265 8.39489 146.855 8.65412 146.559 9.17259C146.263 9.68868 146.115 10.419 146.115 11.3636C146.115 11.9934 146.181 12.5284 146.314 12.9688C146.446 13.4091 146.637 13.7441 146.885 13.9737C147.136 14.2034 147.438 14.3182 147.791 14.3182ZM153.741 15.0994C153.206 15.0994 152.75 14.9538 152.374 14.6626C151.997 14.3691 151.71 13.9441 151.511 13.3878C151.312 12.8291 151.213 12.1544 151.213 11.3636C151.213 10.5777 151.312 9.90649 151.511 9.35014C151.712 8.79143 152.001 8.36529 152.377 8.07173C152.756 7.7758 153.211 7.62784 153.741 7.62784C154.271 7.62784 154.725 7.7758 155.101 8.07173C155.48 8.36529 155.769 8.79143 155.968 9.35014C156.169 9.90649 156.269 10.5777 156.269 11.3636C156.269 12.1544 156.17 12.8291 155.971 13.3878C155.772 13.9441 155.485 14.3691 155.108 14.6626C154.732 14.9538 154.276 15.0994 153.741 15.0994ZM153.741 14.3182C154.271 14.3182 154.683 14.0625 154.977 13.5511C155.27 13.0398 155.417 12.3106 155.417 11.3636C155.417 10.7339 155.35 10.1977 155.215 9.75497C155.082 9.31226 154.89 8.97491 154.639 8.7429C154.391 8.51089 154.091 8.39489 153.741 8.39489C153.215 8.39489 152.805 8.65412 152.509 9.17259C152.213 9.68868 152.065 10.419 152.065 11.3636C152.065 11.9934 152.131 12.5284 152.264 12.9688C152.396 13.4091 152.587 13.7441 152.835 13.9737C153.086 14.2034 153.388 14.3182 153.741 14.3182ZM161.026 13.6364V13.2528C161.026 12.9877 161.081 12.745 161.19 12.5249C161.301 12.3023 161.462 12.1248 161.673 11.9922C161.886 11.8572 162.144 11.7898 162.447 11.7898C162.754 11.7898 163.013 11.8572 163.221 11.9922C163.429 12.1248 163.587 12.3023 163.693 12.5249C163.8 12.745 163.853 12.9877 163.853 13.2528V13.6364C163.853 13.9015 163.798 14.1454 163.69 14.3679C163.583 14.5881 163.424 14.7656 163.214 14.9006C163.005 15.0331 162.75 15.0994 162.447 15.0994C162.139 15.0994 161.88 15.0331 161.669 14.9006C161.458 14.7656 161.298 14.5881 161.19 14.3679C161.081 14.1454 161.026 13.9015 161.026 13.6364ZM161.751 13.2528V13.6364C161.751 13.8565 161.803 14.0542 161.907 14.2294C162.011 14.4022 162.191 14.4886 162.447 14.4886C162.695 14.4886 162.87 14.4022 162.972 14.2294C163.076 14.0542 163.129 13.8565 163.129 13.6364V13.2528C163.129 13.0327 163.079 12.8362 162.979 12.6634C162.88 12.4882 162.702 12.4006 162.447 12.4006C162.198 12.4006 162.019 12.4882 161.91 12.6634C161.804 12.8362 161.751 13.0327 161.751 13.2528ZM157.404 9.47443V9.09091C157.404 8.82576 157.459 8.5831 157.567 8.36293C157.679 8.14039 157.84 7.96283 158.05 7.83026C158.263 7.69531 158.522 7.62784 158.825 7.62784C159.132 7.62784 159.39 7.69531 159.599 7.83026C159.807 7.96283 159.964 8.14039 160.071 8.36293C160.178 8.5831 160.231 8.82576 160.231 9.09091V9.47443C160.231 9.73958 160.176 9.98343 160.067 10.206C159.961 10.4261 159.802 10.6037 159.592 10.7386C159.383 10.8712 159.128 10.9375 158.825 10.9375C158.517 10.9375 158.258 10.8712 158.047 10.7386C157.836 10.6037 157.676 10.4261 157.567 10.206C157.459 9.98343 157.404 9.73958 157.404 9.47443ZM158.129 9.09091V9.47443C158.129 9.6946 158.181 9.89228 158.285 10.0675C158.389 10.2403 158.569 10.3267 158.825 10.3267C159.073 10.3267 159.248 10.2403 159.35 10.0675C159.454 9.89228 159.506 9.6946 159.506 9.47443V9.09091C159.506 8.87074 159.457 8.67424 159.357 8.50142C159.258 8.32623 159.08 8.23864 158.825 8.23864C158.576 8.23864 158.397 8.32623 158.288 8.50142C158.182 8.67424 158.129 8.87074 158.129 9.09091ZM157.674 15L162.674 7.72727H163.484L158.484 15H157.674Z" fill="#02C8A8"/>
<rect x="187" width="80" height="22" rx="5" fill="#02C8A8" fill-opacity="0.1"/>
<path d="M197.881 15V7.72727H198.761V14.2188H202.142V15H197.881ZM205.308 15.1136C204.816 15.1136 204.383 14.9964 204.012 14.7621C203.642 14.5277 203.354 14.1998 203.145 13.7784C202.939 13.357 202.836 12.8646 202.836 12.3011C202.836 11.733 202.939 11.237 203.145 10.8132C203.354 10.3894 203.642 10.0604 204.012 9.82599C204.383 9.59162 204.816 9.47443 205.308 9.47443C205.8 9.47443 206.231 9.59162 206.601 9.82599C206.972 10.0604 207.261 10.3894 207.467 10.8132C207.675 11.237 207.78 11.733 207.78 12.3011C207.78 12.8646 207.675 13.357 207.467 13.7784C207.261 14.1998 206.972 14.5277 206.601 14.7621C206.231 14.9964 205.8 15.1136 205.308 15.1136ZM205.308 14.3608C205.682 14.3608 205.99 14.2649 206.231 14.0732C206.473 13.8814 206.651 13.6293 206.767 13.3168C206.883 13.0043 206.941 12.6657 206.941 12.3011C206.941 11.9366 206.883 11.5968 206.767 11.282C206.651 10.9671 206.473 10.7126 206.231 10.5185C205.99 10.3243 205.682 10.2273 205.308 10.2273C204.934 10.2273 204.626 10.3243 204.385 10.5185C204.143 10.7126 203.964 10.9671 203.848 11.282C203.732 11.5968 203.674 11.9366 203.674 12.3011C203.674 12.6657 203.732 13.0043 203.848 13.3168C203.964 13.6293 204.143 13.8814 204.385 14.0732C204.626 14.2649 204.934 14.3608 205.308 14.3608ZM210.364 15.1278C210.018 15.1278 209.705 15.0627 209.423 14.9325C209.141 14.8 208.917 14.6094 208.752 14.3608C208.586 14.1098 208.503 13.8068 208.503 13.4517C208.503 13.1392 208.565 12.8859 208.688 12.6918C208.811 12.4953 208.975 12.3414 209.181 12.2301C209.387 12.1188 209.615 12.036 209.863 11.9815C210.114 11.9247 210.366 11.8797 210.62 11.8466C210.951 11.804 211.22 11.772 211.426 11.7507C211.634 11.727 211.786 11.688 211.88 11.6335C211.977 11.5791 212.026 11.4844 212.026 11.3494V11.321C212.026 10.9706 211.93 10.6984 211.738 10.5043C211.549 10.3101 211.261 10.2131 210.875 10.2131C210.475 10.2131 210.162 10.3007 209.934 10.4759C209.707 10.651 209.547 10.8381 209.455 11.0369L208.659 10.7528C208.801 10.4214 208.991 10.1634 209.228 9.97869C209.467 9.79167 209.727 9.66146 210.009 9.58807C210.293 9.51231 210.572 9.47443 210.847 9.47443C211.022 9.47443 211.223 9.49574 211.451 9.53835C211.68 9.5786 211.902 9.66264 212.115 9.79048C212.33 9.91832 212.509 10.1113 212.651 10.3693C212.793 10.6274 212.864 10.973 212.864 11.4062V15H212.026V14.2614H211.983C211.926 14.3797 211.832 14.5064 211.699 14.6413C211.567 14.7763 211.39 14.8911 211.17 14.9858C210.95 15.0805 210.681 15.1278 210.364 15.1278ZM210.492 14.375C210.823 14.375 211.103 14.3099 211.33 14.1797C211.56 14.0495 211.732 13.8814 211.848 13.6754C211.967 13.4695 212.026 13.2528 212.026 13.0256V12.2585C211.99 12.3011 211.912 12.3402 211.792 12.3757C211.673 12.4089 211.536 12.4384 211.38 12.4645C211.226 12.4882 211.075 12.5095 210.929 12.5284C210.784 12.545 210.667 12.5592 210.577 12.571C210.359 12.5994 210.156 12.6456 209.966 12.7095C209.779 12.7711 209.628 12.8646 209.512 12.9901C209.398 13.1132 209.341 13.2812 209.341 13.4943C209.341 13.7855 209.449 14.0057 209.664 14.1548C209.882 14.3016 210.158 14.375 210.492 14.375ZM214.932 11.7188V15H214.094V9.54545H214.903V10.3977H214.974C215.102 10.1207 215.296 9.8982 215.557 9.73011C215.817 9.55966 216.153 9.47443 216.565 9.47443C216.935 9.47443 217.258 9.55019 217.535 9.7017C217.812 9.85085 218.027 10.0781 218.181 10.3835C218.335 10.6866 218.412 11.0701 218.412 11.5341V15H217.574V11.5909C217.574 11.1624 217.462 10.8286 217.24 10.5895C217.017 10.348 216.712 10.2273 216.324 10.2273C216.056 10.2273 215.817 10.2853 215.606 10.4013C215.398 10.5173 215.234 10.6866 215.113 10.9091C214.992 11.1316 214.932 11.4015 214.932 11.7188ZM220.254 15.0568C220.079 15.0568 219.928 14.9941 219.803 14.8686C219.678 14.7431 219.615 14.5928 219.615 14.4176C219.615 14.2424 219.678 14.0921 219.803 13.9666C219.928 13.8411 220.079 13.7784 220.254 13.7784C220.429 13.7784 220.58 13.8411 220.705 13.9666C220.83 14.0921 220.893 14.2424 220.893 14.4176C220.893 14.5336 220.864 14.6402 220.804 14.7372C220.748 14.8343 220.671 14.9124 220.574 14.9716C220.479 15.0284 220.372 15.0568 220.254 15.0568ZM220.254 11.0085C220.079 11.0085 219.928 10.9458 219.803 10.8203C219.678 10.6948 219.615 10.5445 219.615 10.3693C219.615 10.1941 219.678 10.0438 219.803 9.91832C219.928 9.79285 220.079 9.73011 220.254 9.73011C220.429 9.73011 220.58 9.79285 220.705 9.91832C220.83 10.0438 220.893 10.1941 220.893 10.3693C220.893 10.4853 220.864 10.5919 220.804 10.6889C220.748 10.786 220.671 10.8641 220.574 10.9233C220.479 10.9801 220.372 11.0085 220.254 11.0085Z" fill="white"/>
<path d="M227.152 7.72727V15H226.272V8.65057H226.229L224.453 9.82955V8.93466L226.272 7.72727H227.152ZM231.316 15.0994C230.781 15.0994 230.325 14.9538 229.949 14.6626C229.572 14.3691 229.285 13.9441 229.086 13.3878C228.887 12.8291 228.788 12.1544 228.788 11.3636C228.788 10.5777 228.887 9.90649 229.086 9.35014C229.287 8.79143 229.576 8.36529 229.952 8.07173C230.331 7.7758 230.786 7.62784 231.316 7.62784C231.846 7.62784 232.3 7.7758 232.676 8.07173C233.055 8.36529 233.344 8.79143 233.543 9.35014C233.744 9.90649 233.844 10.5777 233.844 11.3636C233.844 12.1544 233.745 12.8291 233.546 13.3878C233.347 13.9441 233.06 14.3691 232.683 14.6626C232.307 14.9538 231.851 15.0994 231.316 15.0994ZM231.316 14.3182C231.846 14.3182 232.258 14.0625 232.552 13.5511C232.845 13.0398 232.992 12.3106 232.992 11.3636C232.992 10.7339 232.925 10.1977 232.79 9.75497C232.657 9.31226 232.465 8.97491 232.214 8.7429C231.966 8.51089 231.666 8.39489 231.316 8.39489C230.79 8.39489 230.38 8.65412 230.084 9.17259C229.788 9.68868 229.64 10.419 229.64 11.3636C229.64 11.9934 229.706 12.5284 229.839 12.9688C229.971 13.4091 230.162 13.7441 230.41 13.9737C230.661 14.2034 230.963 14.3182 231.316 14.3182ZM235.265 15.0568C235.09 15.0568 234.939 14.9941 234.814 14.8686C234.688 14.7431 234.626 14.5928 234.626 14.4176C234.626 14.2424 234.688 14.0921 234.814 13.9666C234.939 13.8411 235.09 13.7784 235.265 13.7784C235.44 13.7784 235.59 13.8411 235.716 13.9666C235.841 14.0921 235.904 14.2424 235.904 14.4176C235.904 14.5336 235.875 14.6402 235.815 14.7372C235.759 14.8343 235.682 14.9124 235.585 14.9716C235.49 15.0284 235.383 15.0568 235.265 15.0568ZM239.212 15.0994C238.677 15.0994 238.221 14.9538 237.845 14.6626C237.469 14.3691 237.181 13.9441 236.982 13.3878C236.783 12.8291 236.684 12.1544 236.684 11.3636C236.684 10.5777 236.783 9.90649 236.982 9.35014C237.183 8.79143 237.472 8.36529 237.848 8.07173C238.227 7.7758 238.682 7.62784 239.212 7.62784C239.742 7.62784 240.196 7.7758 240.572 8.07173C240.951 8.36529 241.24 8.79143 241.439 9.35014C241.64 9.90649 241.741 10.5777 241.741 11.3636C241.741 12.1544 241.641 12.8291 241.442 13.3878C241.243 13.9441 240.956 14.3691 240.579 14.6626C240.203 14.9538 239.747 15.0994 239.212 15.0994ZM239.212 14.3182C239.742 14.3182 240.154 14.0625 240.448 13.5511C240.741 13.0398 240.888 12.3106 240.888 11.3636C240.888 10.7339 240.821 10.1977 240.686 9.75497C240.553 9.31226 240.361 8.97491 240.111 8.7429C239.862 8.51089 239.562 8.39489 239.212 8.39489C238.687 8.39489 238.276 8.65412 237.98 9.17259C237.684 9.68868 237.536 10.419 237.536 11.3636C237.536 11.9934 237.602 12.5284 237.735 12.9688C237.867 13.4091 238.058 13.7441 238.307 13.9737C238.558 14.2034 238.859 14.3182 239.212 14.3182ZM245.162 15.0994C244.627 15.0994 244.171 14.9538 243.795 14.6626C243.419 14.3691 243.131 13.9441 242.932 13.3878C242.733 12.8291 242.634 12.1544 242.634 11.3636C242.634 10.5777 242.733 9.90649 242.932 9.35014C243.133 8.79143 243.422 8.36529 243.798 8.07173C244.177 7.7758 244.632 7.62784 245.162 7.62784C245.692 7.62784 246.146 7.7758 246.522 8.07173C246.901 8.36529 247.19 8.79143 247.389 9.35014C247.59 9.90649 247.691 10.5777 247.691 11.3636C247.691 12.1544 247.591 12.8291 247.392 13.3878C247.193 13.9441 246.906 14.3691 246.529 14.6626C246.153 14.9538 245.697 15.0994 245.162 15.0994ZM245.162 14.3182C245.692 14.3182 246.104 14.0625 246.398 13.5511C246.691 13.0398 246.838 12.3106 246.838 11.3636C246.838 10.7339 246.771 10.1977 246.636 9.75497C246.503 9.31226 246.311 8.97491 246.061 8.7429C245.812 8.51089 245.512 8.39489 245.162 8.39489C244.637 8.39489 244.226 8.65412 243.93 9.17259C243.634 9.68868 243.486 10.419 243.486 11.3636C243.486 11.9934 243.552 12.5284 243.685 12.9688C243.817 13.4091 244.008 13.7441 244.257 13.9737C244.508 14.2034 244.809 14.3182 245.162 14.3182ZM252.447 13.6364V13.2528C252.447 12.9877 252.502 12.745 252.611 12.5249C252.722 12.3023 252.883 12.1248 253.094 11.9922C253.307 11.8572 253.565 11.7898 253.868 11.7898C254.176 11.7898 254.434 11.8572 254.642 11.9922C254.85 12.1248 255.008 12.3023 255.114 12.5249C255.221 12.745 255.274 12.9877 255.274 13.2528V13.6364C255.274 13.9015 255.22 14.1454 255.111 14.3679C255.004 14.5881 254.846 14.7656 254.635 14.9006C254.427 15.0331 254.171 15.0994 253.868 15.0994C253.56 15.0994 253.301 15.0331 253.09 14.9006C252.879 14.7656 252.72 14.5881 252.611 14.3679C252.502 14.1454 252.447 13.9015 252.447 13.6364ZM253.172 13.2528V13.6364C253.172 13.8565 253.224 14.0542 253.328 14.2294C253.432 14.4022 253.612 14.4886 253.868 14.4886C254.116 14.4886 254.292 14.4022 254.393 14.2294C254.498 14.0542 254.55 13.8565 254.55 13.6364V13.2528C254.55 13.0327 254.5 12.8362 254.4 12.6634C254.301 12.4882 254.123 12.4006 253.868 12.4006C253.619 12.4006 253.44 12.4882 253.332 12.6634C253.225 12.8362 253.172 13.0327 253.172 13.2528ZM248.825 9.47443V9.09091C248.825 8.82576 248.88 8.5831 248.989 8.36293C249.1 8.14039 249.261 7.96283 249.471 7.83026C249.685 7.69531 249.943 7.62784 250.246 7.62784C250.553 7.62784 250.811 7.69531 251.02 7.83026C251.228 7.96283 251.386 8.14039 251.492 8.36293C251.599 8.5831 251.652 8.82576 251.652 9.09091V9.47443C251.652 9.73958 251.597 9.98343 251.489 10.206C251.382 10.4261 251.223 10.6037 251.013 10.7386C250.804 10.8712 250.549 10.9375 250.246 10.9375C249.938 10.9375 249.679 10.8712 249.468 10.7386C249.257 10.6037 249.097 10.4261 248.989 10.206C248.88 9.98343 248.825 9.73958 248.825 9.47443ZM249.55 9.09091V9.47443C249.55 9.6946 249.602 9.89228 249.706 10.0675C249.81 10.2403 249.99 10.3267 250.246 10.3267C250.494 10.3267 250.669 10.2403 250.771 10.0675C250.875 9.89228 250.927 9.6946 250.927 9.47443V9.09091C250.927 8.87074 250.878 8.67424 250.778 8.50142C250.679 8.32623 250.501 8.23864 250.246 8.23864C249.997 8.23864 249.818 8.32623 249.709 8.50142C249.603 8.67424 249.55 8.87074 249.55 9.09091ZM249.095 15L254.095 7.72727H254.905L249.905 15H249.095Z" fill="#02C8A8"/>
</svg>
