<svg width="57" height="69" viewBox="0 0 57 69" fill="none" xmlns="http://www.w3.org/2000/svg">
<circle opacity="0.35" cx="21" cy="48" r="21" fill="url(#paint0_linear_0_1)"/>
<circle cx="36" cy="21" r="21" fill="url(#paint1_linear_0_1)"/>
<g clip-path="url(#clip0_0_1)">
<path d="M37.7352 19.2019L34.0691 20.5645C33.646 20.7238 33.1575 20.5762 32.8831 20.2106C32.5391 19.7523 32.6271 19.106 33.0798 18.7663L34.9209 17.3844C35.2597 17.1301 35.6711 16.984 36.0923 16.9668C36.3482 16.9549 36.5548 16.7559 36.5916 16.5041L36.8404 14.8227C36.892 14.4807 36.6215 14.1782 36.2734 14.1714C35.1878 14.1422 34.1123 14.4791 33.2382 15.1308L32.2252 13.7812C32.0395 13.5338 31.6876 13.4814 31.4432 13.6648L30.5545 14.3318C30.3102 14.5152 30.2622 14.8677 30.4479 15.1152L31.4609 16.4648L31.3915 16.5169C29.6225 17.8447 29.3551 20.4499 30.8886 22.1517C31.9781 23.3603 33.747 23.6811 35.2544 23.1211L38.7339 21.8282C39.1591 21.6717 39.6455 21.8165 39.9199 22.182C40.2639 22.6403 40.1759 23.2866 39.7232 23.6264L37.8821 25.0083C37.5433 25.2626 37.132 25.4087 36.7107 25.4259C36.4548 25.4378 36.2482 25.6368 36.2114 25.8886L35.9626 27.5699C35.911 27.9119 36.1815 28.2144 36.5296 28.2213C37.6152 28.2505 38.6908 27.9135 39.5649 27.2618L40.5778 28.6115C40.7636 28.8589 41.1155 28.9113 41.3598 28.7278L42.2485 28.0608C42.4929 27.8774 42.5409 27.5249 42.3551 27.2775L41.3379 25.9222C42.613 24.9256 43.242 23.2359 42.739 21.6749C42.036 19.4948 39.6997 18.4702 37.7352 19.2019Z" fill="white"/>
</g>
<defs>
<linearGradient id="paint0_linear_0_1" x1="0.688525" y1="27" x2="42.9312" y2="32.0659" gradientUnits="userSpaceOnUse">
<stop stop-color="#EDD78F"/>
<stop offset="1" stop-color="#FDBF4A"/>
</linearGradient>
<linearGradient id="paint1_linear_0_1" x1="15.6885" y1="-2.79137e-06" x2="57.9312" y2="5.06587" gradientUnits="userSpaceOnUse">
<stop stop-color="#EDD78F"/>
<stop offset="1" stop-color="#FDBF4A"/>
</linearGradient>
<clipPath id="clip0_0_1">
<rect width="10" height="18" fill="white" transform="translate(27 17) rotate(-36.891)"/>
</clipPath>
</defs>
</svg>
