<svg width="16" height="16" viewBox="0 0 16 16" fill="none" xmlns="http://www.w3.org/2000/svg">
<path d="M12.1061 9.74C11.9119 9.92825 11.8226 10.2005 11.8669 10.4675L12.5336 14.1575C12.5899 14.4702 12.4579 14.7868 12.1961 14.9675C11.9396 15.155 11.5984 15.1775 11.3186 15.0275L7.9969 13.295C7.8814 13.2335 7.75315 13.2005 7.6219 13.1968H7.41865C7.34815 13.2073 7.27915 13.2297 7.21615 13.2642L3.89365 15.005C3.7294 15.0875 3.5434 15.1168 3.36115 15.0875C2.91715 15.0035 2.6209 14.5805 2.69365 14.1343L3.36115 10.4443C3.4054 10.175 3.31615 9.90125 3.1219 9.71L0.413649 7.085C0.187149 6.86525 0.108399 6.53525 0.211899 6.2375C0.312399 5.9405 0.568899 5.72375 0.878649 5.675L4.60615 5.13425C4.88965 5.105 5.13865 4.9325 5.26615 4.6775L6.90865 1.31C6.94765 1.235 6.9979 1.166 7.05865 1.1075L7.12615 1.055C7.1614 1.016 7.2019 0.98375 7.2469 0.9575L7.32865 0.9275L7.45615 0.875H7.7719C8.0539 0.90425 8.30215 1.073 8.4319 1.325L10.0961 4.6775C10.2161 4.92275 10.4494 5.093 10.7186 5.13425L14.4461 5.675C14.7611 5.72 15.0244 5.9375 15.1286 6.2375C15.2269 6.53825 15.1421 6.86825 14.9111 7.085L12.1061 9.74Z" fill="#FFC25F"/>
</svg>
