<svg width="63" height="55" viewBox="0 0 63 55" fill="none" xmlns="http://www.w3.org/2000/svg">
<circle cx="21" cy="21" r="21" fill="url(#paint0_linear_0_1)"/>
<g filter="url(#filter0_b_0_1)">
<circle cx="42" cy="34" r="21" fill="#FFF3CA" fill-opacity="0.25"/>
</g>
<g clip-path="url(#clip0_0_1)">
<path d="M25.136 15.4212C25.4199 14.9923 25.9732 14.8488 26.4238 15.0664L26.5439 15.1347L39.8721 23.9564L38.7915 18.6992C38.6783 18.1497 39.0321 17.6125 39.5817 17.4993C40.0812 17.3965 40.5706 17.6795 40.7405 18.1447L40.7815 18.2895L42.3603 25.958C42.3692 26.0039 42.3752 26.0485 42.3783 26.0934L42.3603 25.958C42.3745 26.0272 42.3814 26.0962 42.3814 26.1642C42.3807 26.1875 42.3799 26.2116 42.3781 26.2356C42.3772 26.2584 42.3748 26.2806 42.3718 26.3027C42.3681 26.3241 42.3644 26.3458 42.36 26.3673C42.3549 26.3951 42.3481 26.4226 42.3401 26.4496C42.3349 26.4652 42.3297 26.4812 42.3241 26.4972C42.3146 26.5261 42.3035 26.5539 42.2911 26.5812C42.2848 26.5936 42.2785 26.6068 42.2718 26.62C42.2572 26.6503 42.2408 26.6791 42.2231 26.7071C42.219 26.7122 42.2154 26.7176 42.2119 26.723L42.2014 26.7399C42.1826 26.7671 42.1625 26.7935 42.1411 26.8188L42.2119 26.723C42.1813 26.7692 42.1477 26.812 42.1113 26.8515C42.0918 26.8737 42.0705 26.8949 42.0483 26.9151C42.036 26.9254 42.0239 26.9359 42.0115 26.9461C41.9887 26.9659 41.9642 26.9843 41.9388 27.0017C41.9242 27.0108 41.9104 27.0197 41.8964 27.0283C41.8752 27.0423 41.8522 27.0552 41.8286 27.0673C41.8066 27.0776 41.7848 27.0878 41.7627 27.0971C41.7463 27.105 41.7288 27.1119 41.711 27.1183L41.6974 27.1223C41.6548 27.137 41.6113 27.1489 41.5673 27.1578L41.5655 27.1588L33.8898 28.7022C33.3397 28.8128 32.8042 28.4565 32.6936 27.9065C32.593 27.4064 32.8783 26.9183 33.3443 26.7506L33.4893 26.7103L38.753 25.6522L25.4225 16.829C24.9546 16.5193 24.8264 15.889 25.136 15.4212ZM14.6486 24.6069L14.6591 24.5901C14.6779 24.5629 14.698 24.5365 14.7194 24.5112L14.6486 24.6069C14.6792 24.5608 14.7128 24.5179 14.7492 24.4785C14.7684 24.4565 14.7895 24.4356 14.8114 24.4156C14.8249 24.4042 14.8385 24.3925 14.8523 24.3811C14.8733 24.3631 14.8952 24.3466 14.9178 24.331C14.9348 24.3201 14.9519 24.3091 14.9693 24.2986C14.9892 24.2856 15.0103 24.2738 15.0319 24.2627C15.0512 24.2538 15.0701 24.2448 15.0893 24.2365C15.1082 24.2273 15.1287 24.2192 15.1495 24.2117L15.295 24.1711L22.9707 22.6278C23.5208 22.5172 24.0564 22.8735 24.1669 23.4235C24.2675 23.9236 23.9822 24.4116 23.5162 24.5793L23.3712 24.6197L18.1056 25.6778L31.438 34.501C31.9059 34.8106 32.0341 35.4409 31.7245 35.9088C31.4406 36.3377 30.8873 36.4812 30.4367 36.2636L30.3166 36.1952L16.9853 27.3728L18.069 32.6308C18.1719 33.1304 17.8888 33.6197 17.4237 33.7896L17.2789 33.8306C16.7793 33.9335 16.2899 33.6505 16.12 33.1853L16.079 33.0405L14.5002 25.3719L14.4875 25.2918C14.4852 25.2734 14.4834 25.255 14.4822 25.2366L14.5002 25.3719C14.486 25.3027 14.4791 25.2338 14.4791 25.1658C14.4798 25.1425 14.4806 25.1184 14.4824 25.0943C14.4833 25.0716 14.4857 25.0493 14.4887 25.0273C14.4924 25.0059 14.4961 24.9842 14.5005 24.9626C14.5056 24.9348 14.5125 24.9074 14.5204 24.8804C14.5258 24.8643 14.5311 24.8477 14.5369 24.8312C14.5458 24.8043 14.5562 24.7782 14.5677 24.7525C14.5752 24.7375 14.5823 24.7226 14.5898 24.7078C14.6035 24.6793 14.6195 24.6512 14.6367 24.624C14.6411 24.6184 14.6448 24.6127 14.6486 24.6069Z" fill="white"/>
</g>
<defs>
<filter id="filter0_b_0_1" x="16" y="8" width="52" height="52" filterUnits="userSpaceOnUse" color-interpolation-filters="sRGB">
<feFlood flood-opacity="0" result="BackgroundImageFix"/>
<feGaussianBlur in="BackgroundImage" stdDeviation="2.5"/>
<feComposite in2="SourceAlpha" operator="in" result="effect1_backgroundBlur_0_1"/>
<feBlend mode="normal" in="SourceGraphic" in2="effect1_backgroundBlur_0_1" result="shape"/>
</filter>
<linearGradient id="paint0_linear_0_1" x1="0.688525" y1="-2.79137e-06" x2="42.9312" y2="5.06587" gradientUnits="userSpaceOnUse">
<stop stop-color="#EDD78F"/>
<stop offset="1" stop-color="#FDBF4A"/>
</linearGradient>
<clipPath id="clip0_0_1">
<rect width="32.5083" height="32.5083" fill="white" transform="translate(6 30.1084) rotate(-56.5009)"/>
</clipPath>
</defs>
</svg>
