<svg width="29" height="15" viewBox="0 0 29 15" fill="none" xmlns="http://www.w3.org/2000/svg">
<path d="M0.253906 7.59694C0.253906 3.71247 3.4029 0.563477 7.28737 0.563477H21.3543C25.2388 0.563477 28.3878 3.71247 28.3878 7.59694V7.59694C28.3878 11.4814 25.2388 14.6304 21.3543 14.6304H7.28737C3.4029 14.6304 0.253906 11.4814 0.253906 7.59694V7.59694Z" fill="#454545"/>
<path d="M15.1025 7.59743C15.1025 4.57617 17.5518 2.12695 20.573 2.12695V2.12695C23.5943 2.12695 26.0435 4.57617 26.0435 7.59743V7.59743C26.0435 10.6187 23.5943 13.0679 20.573 13.0679V13.0679C17.5518 13.0679 15.1025 10.6187 15.1025 7.59743V7.59743Z" fill="#8A8A8A"/>
</svg>
