<svg width="239" height="44" viewBox="0 0 239 44" fill="none" xmlns="http://www.w3.org/2000/svg">
<path d="M0.5 4C0.5 2.067 2.067 0.5 4 0.5H235C236.933 0.5 238.5 2.067 238.5 4V40C238.5 41.933 236.933 43.5 235 43.5H4C2.067 43.5 0.5 41.933 0.5 40V4Z" fill="#2C2C2C" stroke="#363636"/>
<path d="M226.895 21H225.908C225.841 21 225.778 21.0244 225.738 21.0645L222 24.8887L218.262 21.0645C218.223 21.0244 218.159 21 218.092 21H217.105C217.02 21 216.97 21.0723 217.02 21.124L221.659 25.8711C221.828 26.043 222.173 26.043 222.34 25.8711L226.979 21.124C227.031 21.0723 226.981 21 226.895 21Z" fill="#787878"/>
<path d="M11.2784 21.6364C11.2784 20.5625 11.4176 19.5753 11.696 18.6747C11.9773 17.7713 12.3778 16.9403 12.8977 16.1818H13.7841C13.5795 16.4631 13.3878 16.8097 13.2088 17.2216C13.0327 17.6307 12.8778 18.081 12.7443 18.5724C12.6108 19.0611 12.5057 19.5668 12.429 20.0895C12.3551 20.6122 12.3182 21.1278 12.3182 21.6364C12.3182 22.3125 12.3835 22.9986 12.5142 23.6946C12.6449 24.3906 12.821 25.0369 13.0426 25.6335C13.2642 26.2301 13.5114 26.7159 13.7841 27.0909H12.8977C12.3778 26.3324 11.9773 25.5028 11.696 24.6023C11.4176 23.6989 11.2784 22.7102 11.2784 21.6364ZM21.1317 17.2727H22.1886V23.0511C22.1886 23.6477 22.0479 24.1804 21.7667 24.6491C21.4883 25.1151 21.0948 25.483 20.5863 25.7528C20.0778 26.0199 19.4812 26.1534 18.7965 26.1534C18.1119 26.1534 17.5153 26.0199 17.0067 25.7528C16.4982 25.483 16.1033 25.1151 15.8221 24.6491C15.5437 24.1804 15.4045 23.6477 15.4045 23.0511V17.2727H16.4613V22.9659C16.4613 23.392 16.555 23.7713 16.7425 24.1037C16.93 24.4332 17.1971 24.6932 17.5437 24.8835C17.8931 25.071 18.3107 25.1648 18.7965 25.1648C19.2823 25.1648 19.6999 25.071 20.0494 24.8835C20.3988 24.6932 20.6658 24.4332 20.8505 24.1037C21.038 23.7713 21.1317 23.392 21.1317 22.9659V17.2727ZM23.8217 18.2102V17.2727H30.3672V18.2102H27.6229V26H26.5661V18.2102H23.8217ZM38.6577 20H37.6009C37.5384 19.696 37.429 19.429 37.2727 19.1989C37.1193 18.9688 36.9318 18.7756 36.7102 18.6193C36.4915 18.4602 36.2486 18.3409 35.9815 18.2614C35.7145 18.1818 35.4361 18.142 35.1463 18.142C34.6179 18.142 34.1392 18.2756 33.7102 18.5426C33.2841 18.8097 32.9446 19.2031 32.6918 19.723C32.4418 20.2429 32.3168 20.8807 32.3168 21.6364C32.3168 22.392 32.4418 23.0298 32.6918 23.5497C32.9446 24.0696 33.2841 24.4631 33.7102 24.7301C34.1392 24.9972 34.6179 25.1307 35.1463 25.1307C35.4361 25.1307 35.7145 25.0909 35.9815 25.0114C36.2486 24.9318 36.4915 24.8139 36.7102 24.6577C36.9318 24.4986 37.1193 24.304 37.2727 24.0739C37.429 23.8409 37.5384 23.5739 37.6009 23.2727H38.6577C38.5781 23.7187 38.4332 24.1179 38.223 24.4702C38.0128 24.8224 37.7514 25.1222 37.4389 25.3693C37.1264 25.6136 36.7756 25.7997 36.3864 25.9276C36 26.0554 35.5866 26.1193 35.1463 26.1193C34.402 26.1193 33.7401 25.9375 33.1605 25.5739C32.581 25.2102 32.125 24.6932 31.7926 24.0227C31.4602 23.3523 31.294 22.5568 31.294 21.6364C31.294 20.7159 31.4602 19.9205 31.7926 19.25C32.125 18.5795 32.581 18.0625 33.1605 17.6989C33.7401 17.3352 34.402 17.1534 35.1463 17.1534C35.5866 17.1534 36 17.2173 36.3864 17.3452C36.7756 17.473 37.1264 17.6605 37.4389 17.9077C37.7514 18.152 38.0128 18.4503 38.223 18.8026C38.4332 19.152 38.5781 19.5511 38.6577 20ZM42.7859 24.4659V18.8409H43.7404V24.4659H42.7859ZM40.4506 22.1307V21.1761H46.0756V22.1307H40.4506ZM50.9688 26.1193C50.3267 26.1193 49.7798 25.9446 49.3281 25.5952C48.8764 25.2429 48.5313 24.733 48.2926 24.0653C48.054 23.3949 47.9347 22.5852 47.9347 21.6364C47.9347 20.6932 48.054 19.8878 48.2926 19.2202C48.5341 18.5497 48.8807 18.0384 49.3324 17.6861C49.7869 17.331 50.3324 17.1534 50.9688 17.1534C51.6051 17.1534 52.1491 17.331 52.6009 17.6861C53.0554 18.0384 53.402 18.5497 53.6406 19.2202C53.8821 19.8878 54.0028 20.6932 54.0028 21.6364C54.0028 22.5852 53.8835 23.3949 53.6449 24.0653C53.4062 24.733 53.0611 25.2429 52.6094 25.5952C52.1577 25.9446 51.6108 26.1193 50.9688 26.1193ZM50.9688 25.1818C51.6051 25.1818 52.0994 24.875 52.4517 24.2614C52.804 23.6477 52.9801 22.7727 52.9801 21.6364C52.9801 20.8807 52.8991 20.2372 52.7372 19.706C52.5781 19.1747 52.348 18.7699 52.0469 18.4915C51.7486 18.2131 51.3892 18.0739 50.9688 18.0739C50.3381 18.0739 49.8452 18.3849 49.4901 19.0071C49.1349 19.6264 48.9574 20.5028 48.9574 21.6364C48.9574 22.392 49.0369 23.0341 49.196 23.5625C49.3551 24.0909 49.5838 24.4929 49.8821 24.7685C50.1832 25.044 50.5455 25.1818 50.9688 25.1818ZM58.4176 26.1193C57.8324 26.1193 57.3153 26.0156 56.8665 25.8082C56.4205 25.598 56.0724 25.3097 55.8224 24.9432C55.5724 24.5739 55.4489 24.1534 55.4517 23.6818C55.4489 23.3125 55.5213 22.9716 55.669 22.6591C55.8168 22.3437 56.0185 22.081 56.2741 21.8707C56.5327 21.6577 56.821 21.5227 57.1392 21.4659V21.4148C56.7216 21.3068 56.3892 21.0724 56.142 20.7116C55.8949 20.348 55.7727 19.9347 55.7756 19.4716C55.7727 19.0284 55.8849 18.6321 56.1122 18.2827C56.3395 17.9332 56.652 17.6577 57.0497 17.456C57.4503 17.2543 57.9063 17.1534 58.4176 17.1534C58.9233 17.1534 59.375 17.2543 59.7727 17.456C60.1705 17.6577 60.483 17.9332 60.7102 18.2827C60.9403 18.6321 61.0568 19.0284 61.0597 19.4716C61.0568 19.9347 60.9304 20.348 60.6804 20.7116C60.4332 21.0724 60.1051 21.3068 59.696 21.4148V21.4659C60.0114 21.5227 60.2955 21.6577 60.5483 21.8707C60.8011 22.081 61.0028 22.3437 61.1534 22.6591C61.304 22.9716 61.3807 23.3125 61.3835 23.6818C61.3807 24.1534 61.2528 24.5739 61 24.9432C60.75 25.3097 60.402 25.598 59.956 25.8082C59.5128 26.0156 59 26.1193 58.4176 26.1193ZM58.4176 25.1818C58.8125 25.1818 59.1534 25.1179 59.4403 24.9901C59.7273 24.8622 59.9489 24.6818 60.1051 24.4489C60.2614 24.2159 60.3409 23.9432 60.3438 23.6307C60.3409 23.3011 60.2557 23.0099 60.0881 22.7571C59.9205 22.5043 59.6918 22.3054 59.402 22.1605C59.1151 22.0156 58.7869 21.9432 58.4176 21.9432C58.0455 21.9432 57.7131 22.0156 57.4205 22.1605C57.1307 22.3054 56.902 22.5043 56.7344 22.7571C56.5696 23.0099 56.4886 23.3011 56.4915 23.6307C56.4886 23.9432 56.5639 24.2159 56.7173 24.4489C56.8736 24.6818 57.0966 24.8622 57.3864 24.9901C57.6761 25.1179 58.0199 25.1818 58.4176 25.1818ZM58.4176 21.0398C58.7301 21.0398 59.0071 20.9773 59.2486 20.8523C59.4929 20.7273 59.6847 20.5526 59.8239 20.3281C59.9631 20.1037 60.0341 19.8409 60.0369 19.5398C60.0341 19.2443 59.9645 18.9872 59.8281 18.7685C59.6918 18.5469 59.5028 18.3764 59.2614 18.2571C59.0199 18.1349 58.7386 18.0739 58.4176 18.0739C58.0909 18.0739 57.8054 18.1349 57.5611 18.2571C57.3168 18.3764 57.1278 18.5469 56.9943 18.7685C56.8608 18.9872 56.7955 19.2443 56.7983 19.5398C56.7955 19.8409 56.8622 20.1037 56.9986 20.3281C57.1378 20.5526 57.3295 20.7273 57.5739 20.8523C57.8182 20.9773 58.0994 21.0398 58.4176 21.0398ZM63.7667 24.8835C63.5565 24.8835 63.3761 24.8082 63.2255 24.6577C63.0749 24.5071 62.9996 24.3267 62.9996 24.1165C62.9996 23.9062 63.0749 23.7259 63.2255 23.5753C63.3761 23.4247 63.5565 23.3494 63.7667 23.3494C63.9769 23.3494 64.1573 23.4247 64.3079 23.5753C64.4585 23.7259 64.5337 23.9062 64.5337 24.1165C64.5337 24.2557 64.4982 24.3835 64.4272 24.5C64.359 24.6165 64.2667 24.7102 64.1502 24.7812C64.0366 24.8494 63.9087 24.8835 63.7667 24.8835ZM63.7667 20.4688C63.5565 20.4688 63.3761 20.3935 63.2255 20.2429C63.0749 20.0923 62.9996 19.9119 62.9996 19.7017C62.9996 19.4915 63.0749 19.3111 63.2255 19.1605C63.3761 19.0099 63.5565 18.9347 63.7667 18.9347C63.9769 18.9347 64.1573 19.0099 64.3079 19.1605C64.4585 19.3111 64.5337 19.4915 64.5337 19.7017C64.5337 19.8409 64.4982 19.9688 64.4272 20.0852C64.359 20.2017 64.2667 20.2955 64.1502 20.3665C64.0366 20.4347 63.9087 20.4688 63.7667 20.4688ZM69.168 26.1193C68.5259 26.1193 67.979 25.9446 67.5273 25.5952C67.0756 25.2429 66.7305 24.733 66.4918 24.0653C66.2532 23.3949 66.1339 22.5852 66.1339 21.6364C66.1339 20.6932 66.2532 19.8878 66.4918 19.2202C66.7333 18.5497 67.0799 18.0384 67.5316 17.6861C67.9862 17.331 68.5316 17.1534 69.168 17.1534C69.8043 17.1534 70.3484 17.331 70.8001 17.6861C71.2546 18.0384 71.6012 18.5497 71.8398 19.2202C72.0813 19.8878 72.2021 20.6932 72.2021 21.6364C72.2021 22.5852 72.0827 23.3949 71.8441 24.0653C71.6055 24.733 71.2603 25.2429 70.8086 25.5952C70.3569 25.9446 69.81 26.1193 69.168 26.1193ZM69.168 25.1818C69.8043 25.1818 70.2987 24.875 70.6509 24.2614C71.0032 23.6477 71.1793 22.7727 71.1793 21.6364C71.1793 20.8807 71.0984 20.2372 70.9364 19.706C70.7773 19.1747 70.5472 18.7699 70.2461 18.4915C69.9478 18.2131 69.5884 18.0739 69.168 18.0739C68.5373 18.0739 68.0444 18.3849 67.6893 19.0071C67.3342 19.6264 67.1566 20.5028 67.1566 21.6364C67.1566 22.392 67.2362 23.0341 67.3952 23.5625C67.5543 24.0909 67.783 24.4929 68.0813 24.7685C68.3825 25.044 68.7447 25.1818 69.168 25.1818ZM76.668 26.1193C76.0259 26.1193 75.479 25.9446 75.0273 25.5952C74.5756 25.2429 74.2305 24.733 73.9918 24.0653C73.7532 23.3949 73.6339 22.5852 73.6339 21.6364C73.6339 20.6932 73.7532 19.8878 73.9918 19.2202C74.2333 18.5497 74.5799 18.0384 75.0316 17.6861C75.4862 17.331 76.0316 17.1534 76.668 17.1534C77.3043 17.1534 77.8484 17.331 78.3001 17.6861C78.7546 18.0384 79.1012 18.5497 79.3398 19.2202C79.5813 19.8878 79.7021 20.6932 79.7021 21.6364C79.7021 22.5852 79.5827 23.3949 79.3441 24.0653C79.1055 24.733 78.7603 25.2429 78.3086 25.5952C77.8569 25.9446 77.31 26.1193 76.668 26.1193ZM76.668 25.1818C77.3043 25.1818 77.7987 24.875 78.1509 24.2614C78.5032 23.6477 78.6793 22.7727 78.6793 21.6364C78.6793 20.8807 78.5984 20.2372 78.4364 19.706C78.2773 19.1747 78.0472 18.7699 77.7461 18.4915C77.4478 18.2131 77.0884 18.0739 76.668 18.0739C76.0373 18.0739 75.5444 18.3849 75.1893 19.0071C74.8342 19.6264 74.6566 20.5028 74.6566 21.6364C74.6566 22.392 74.7362 23.0341 74.8952 23.5625C75.0543 24.0909 75.283 24.4929 75.5813 24.7685C75.8825 25.044 76.2447 25.1818 76.668 25.1818ZM83.4862 21.6364C83.4862 22.7102 83.3455 23.6989 83.0643 24.6023C82.7859 25.5028 82.3867 26.3324 81.8668 27.0909H80.9805C81.185 26.8097 81.3754 26.4631 81.5515 26.0511C81.7305 25.642 81.8867 25.1932 82.0202 24.7045C82.1538 24.2131 82.2575 23.706 82.3313 23.1832C82.408 22.6577 82.4464 22.142 82.4464 21.6364C82.4464 20.9602 82.381 20.2741 82.2504 19.5781C82.1197 18.8821 81.9435 18.2358 81.7219 17.6392C81.5004 17.0426 81.2532 16.5568 80.9805 16.1818H81.8668C82.3867 16.9403 82.7859 17.7713 83.0643 18.6747C83.3455 19.5753 83.4862 20.5625 83.4862 21.6364ZM89.1974 26V17.2727H92.2486C92.8565 17.2727 93.358 17.3778 93.7528 17.5881C94.1477 17.7955 94.4418 18.0753 94.6349 18.4276C94.8281 18.777 94.9247 19.1648 94.9247 19.5909C94.9247 19.9659 94.858 20.2756 94.7244 20.5199C94.5938 20.7642 94.4205 20.9574 94.2045 21.0994C93.9915 21.2415 93.7599 21.3466 93.5099 21.4148V21.5C93.777 21.517 94.0455 21.6108 94.3153 21.7812C94.5852 21.9517 94.8111 22.196 94.9929 22.5142C95.1747 22.8324 95.2656 23.2216 95.2656 23.6818C95.2656 24.1193 95.1662 24.5128 94.9673 24.8622C94.7685 25.2116 94.4545 25.4886 94.0256 25.6932C93.5966 25.8977 93.0384 26 92.3509 26H89.1974ZM90.2543 25.0625H92.3509C93.0412 25.0625 93.5313 24.929 93.821 24.6619C94.1136 24.392 94.2599 24.0653 94.2599 23.6818C94.2599 23.3864 94.1847 23.1136 94.0341 22.8636C93.8835 22.6108 93.669 22.4091 93.3906 22.2585C93.1122 22.1051 92.7827 22.0284 92.402 22.0284H90.2543V25.0625ZM90.2543 21.108H92.2145C92.5327 21.108 92.8196 21.0455 93.0753 20.9205C93.3338 20.7955 93.5384 20.6193 93.6889 20.392C93.8423 20.1648 93.919 19.8977 93.919 19.5909C93.919 19.2074 93.7855 18.8821 93.5185 18.6151C93.2514 18.3452 92.8281 18.2102 92.2486 18.2102H90.2543V21.108ZM99.6101 26.1364C98.9794 26.1364 98.4354 25.9972 97.978 25.7188C97.5234 25.4375 97.1726 25.0455 96.9254 24.5426C96.6811 24.0369 96.5589 23.4489 96.5589 22.7784C96.5589 22.108 96.6811 21.517 96.9254 21.0057C97.1726 20.4915 97.5163 20.0909 97.9567 19.804C98.3999 19.5142 98.9169 19.3693 99.5078 19.3693C99.8487 19.3693 100.185 19.4261 100.518 19.5398C100.85 19.6534 101.153 19.8381 101.425 20.0938C101.698 20.3466 101.915 20.6818 102.077 21.0994C102.239 21.517 102.32 22.0312 102.32 22.642V23.0682H97.2749V22.1989H101.298C101.298 21.8295 101.224 21.5 101.076 21.2102C100.931 20.9205 100.724 20.6918 100.454 20.5241C100.187 20.3565 99.8714 20.2727 99.5078 20.2727C99.1072 20.2727 98.7607 20.3722 98.468 20.571C98.1783 20.767 97.9553 21.0227 97.799 21.3381C97.6428 21.6534 97.5646 21.9915 97.5646 22.3523V22.9318C97.5646 23.4261 97.6499 23.8452 97.8203 24.1889C97.9936 24.5298 98.2337 24.7898 98.5405 24.9688C98.8473 25.1449 99.2038 25.233 99.6101 25.233C99.8743 25.233 100.113 25.196 100.326 25.1222C100.542 25.0455 100.728 24.9318 100.884 24.7812C101.04 24.6278 101.161 24.4375 101.246 24.2102L102.218 24.483C102.116 24.8125 101.944 25.1023 101.702 25.3523C101.461 25.5994 101.163 25.7926 100.808 25.9318C100.452 26.0682 100.053 26.1364 99.6101 26.1364ZM103.85 26V19.4545H104.856V26H103.85ZM104.362 18.3636C104.165 18.3636 103.996 18.2969 103.854 18.1634C103.715 18.0298 103.646 17.8693 103.646 17.6818C103.646 17.4943 103.715 17.3338 103.854 17.2003C103.996 17.0668 104.165 17 104.362 17C104.558 17 104.725 17.0668 104.864 17.2003C105.006 17.3338 105.077 17.4943 105.077 17.6818C105.077 17.8693 105.006 18.0298 104.864 18.1634C104.725 18.2969 104.558 18.3636 104.362 18.3636ZM106.698 19.4545H107.703V26.4773C107.703 26.8807 107.634 27.2301 107.495 27.5256C107.358 27.821 107.151 28.0497 106.873 28.2116C106.597 28.3736 106.249 28.4545 105.828 28.4545C105.794 28.4545 105.76 28.4545 105.726 28.4545C105.692 28.4545 105.658 28.4545 105.624 28.4545V27.517C105.658 27.517 105.689 27.517 105.718 27.517C105.746 27.517 105.777 27.517 105.811 27.517C106.118 27.517 106.343 27.4261 106.485 27.2443C106.627 27.0653 106.698 26.8097 106.698 26.4773V19.4545ZM107.192 18.3636C106.996 18.3636 106.827 18.2969 106.685 18.1634C106.546 18.0298 106.476 17.8693 106.476 17.6818C106.476 17.4943 106.546 17.3338 106.685 17.2003C106.827 17.0668 106.996 17 107.192 17C107.388 17 107.556 17.0668 107.695 17.2003C107.837 17.3338 107.908 17.4943 107.908 17.6818C107.908 17.8693 107.837 18.0298 107.695 18.1634C107.556 18.2969 107.388 18.3636 107.192 18.3636ZM109.545 26V19.4545H110.551V26H109.545ZM110.057 18.3636C109.861 18.3636 109.692 18.2969 109.55 18.1634C109.411 18.0298 109.341 17.8693 109.341 17.6818C109.341 17.4943 109.411 17.3338 109.55 17.2003C109.692 17.0668 109.861 17 110.057 17C110.253 17 110.42 17.0668 110.56 17.2003C110.702 17.3338 110.773 17.4943 110.773 17.6818C110.773 17.8693 110.702 18.0298 110.56 18.1634C110.42 18.2969 110.253 18.3636 110.057 18.3636ZM113.399 22.0625V26H112.393V19.4545H113.365V20.4773H113.45C113.603 20.1449 113.836 19.8778 114.149 19.6761C114.461 19.4716 114.865 19.3693 115.359 19.3693C115.802 19.3693 116.19 19.4602 116.522 19.642C116.855 19.821 117.113 20.0938 117.298 20.4602C117.483 20.8239 117.575 21.2841 117.575 21.8409V26H116.569V21.9091C116.569 21.3949 116.436 20.9943 116.169 20.7074C115.902 20.4176 115.535 20.2727 115.069 20.2727C114.748 20.2727 114.461 20.3423 114.208 20.4815C113.958 20.6207 113.761 20.8239 113.616 21.0909C113.471 21.358 113.399 21.6818 113.399 22.0625ZM122.055 28.5909C121.569 28.5909 121.151 28.5284 120.802 28.4034C120.452 28.2812 120.161 28.1193 119.928 27.9176C119.698 27.7188 119.515 27.5057 119.379 27.2784L120.18 26.7159C120.271 26.8352 120.386 26.9716 120.525 27.125C120.664 27.2812 120.854 27.4162 121.096 27.5298C121.34 27.6463 121.66 27.7045 122.055 27.7045C122.583 27.7045 123.019 27.5767 123.363 27.321C123.707 27.0653 123.879 26.6648 123.879 26.1193V24.7898H123.793C123.719 24.9091 123.614 25.0568 123.478 25.233C123.344 25.4062 123.151 25.5611 122.898 25.6974C122.648 25.831 122.31 25.8977 121.884 25.8977C121.356 25.8977 120.881 25.7727 120.461 25.5227C120.043 25.2727 119.712 24.9091 119.468 24.4318C119.227 23.9545 119.106 23.375 119.106 22.6932C119.106 22.0227 119.224 21.4389 119.46 20.9418C119.695 20.4418 120.023 20.0554 120.444 19.7827C120.864 19.5071 121.35 19.3693 121.901 19.3693C122.327 19.3693 122.665 19.4403 122.915 19.5824C123.168 19.7216 123.362 19.8807 123.495 20.0597C123.631 20.2358 123.737 20.3807 123.81 20.4943H123.913V19.4545H124.884V26.1875C124.884 26.75 124.756 27.2074 124.501 27.5597C124.248 27.9148 123.907 28.1747 123.478 28.3395C123.052 28.5071 122.577 28.5909 122.055 28.5909ZM122.021 24.9943C122.424 24.9943 122.765 24.902 123.043 24.7173C123.322 24.5327 123.533 24.267 123.678 23.9205C123.823 23.5739 123.896 23.1591 123.896 22.6761C123.896 22.2045 123.825 21.7884 123.683 21.4276C123.54 21.0668 123.33 20.7841 123.052 20.5795C122.773 20.375 122.43 20.2727 122.021 20.2727C121.594 20.2727 121.239 20.3807 120.955 20.5966C120.674 20.8125 120.462 21.1023 120.32 21.4659C120.181 21.8295 120.112 22.233 120.112 22.6761C120.112 23.1307 120.183 23.5327 120.325 23.8821C120.469 24.2287 120.683 24.5014 120.964 24.7003C121.248 24.8963 121.6 24.9943 122.021 24.9943ZM128.225 24.8068L128.157 25.267C128.109 25.5909 128.035 25.9375 127.935 26.3068C127.839 26.6761 127.738 27.0241 127.633 27.3509C127.528 27.6776 127.441 27.9375 127.373 28.1307H126.606C126.643 27.9489 126.691 27.7088 126.751 27.4105C126.81 27.1122 126.87 26.7784 126.93 26.4091C126.992 26.0426 127.043 25.6676 127.083 25.2841L127.134 24.8068H128.225ZM140.623 20H139.566C139.503 19.696 139.394 19.429 139.238 19.1989C139.084 18.9688 138.897 18.7756 138.675 18.6193C138.456 18.4602 138.213 18.3409 137.946 18.2614C137.679 18.1818 137.401 18.142 137.111 18.142C136.583 18.142 136.104 18.2756 135.675 18.5426C135.249 18.8097 134.909 19.2031 134.657 19.723C134.407 20.2429 134.282 20.8807 134.282 21.6364C134.282 22.392 134.407 23.0298 134.657 23.5497C134.909 24.0696 135.249 24.4631 135.675 24.7301C136.104 24.9972 136.583 25.1307 137.111 25.1307C137.401 25.1307 137.679 25.0909 137.946 25.0114C138.213 24.9318 138.456 24.8139 138.675 24.6577C138.897 24.4986 139.084 24.304 139.238 24.0739C139.394 23.8409 139.503 23.5739 139.566 23.2727H140.623C140.543 23.7187 140.398 24.1179 140.188 24.4702C139.978 24.8224 139.716 25.1222 139.404 25.3693C139.091 25.6136 138.74 25.7997 138.351 25.9276C137.965 26.0554 137.551 26.1193 137.111 26.1193C136.367 26.1193 135.705 25.9375 135.125 25.5739C134.546 25.2102 134.09 24.6932 133.757 24.0227C133.425 23.3523 133.259 22.5568 133.259 21.6364C133.259 20.7159 133.425 19.9205 133.757 19.25C134.09 18.5795 134.546 18.0625 135.125 17.6989C135.705 17.3352 136.367 17.1534 137.111 17.1534C137.551 17.1534 137.965 17.2173 138.351 17.3452C138.74 17.473 139.091 17.6605 139.404 17.9077C139.716 18.152 139.978 18.4503 140.188 18.8026C140.398 19.152 140.543 19.5511 140.623 20ZM143.2 22.0625V26H142.194V17.2727H143.2V20.4773H143.285C143.438 20.1392 143.668 19.8707 143.975 19.6719C144.285 19.4702 144.697 19.3693 145.211 19.3693C145.657 19.3693 146.048 19.4588 146.383 19.6378C146.718 19.8139 146.978 20.0852 147.163 20.4517C147.35 20.8153 147.444 21.2784 147.444 21.8409V26H146.438V21.9091C146.438 21.3892 146.303 20.9872 146.033 20.7031C145.766 20.4162 145.396 20.2727 144.921 20.2727C144.592 20.2727 144.296 20.3423 144.035 20.4815C143.776 20.6207 143.572 20.8239 143.421 21.0909C143.273 21.358 143.2 21.6818 143.2 22.0625ZM151.943 26.1364C151.352 26.1364 150.833 25.9957 150.387 25.7145C149.944 25.4332 149.598 25.0398 149.348 24.5341C149.1 24.0284 148.977 23.4375 148.977 22.7614C148.977 22.0795 149.1 21.4844 149.348 20.9759C149.598 20.4673 149.944 20.0724 150.387 19.7912C150.833 19.5099 151.352 19.3693 151.943 19.3693C152.534 19.3693 153.051 19.5099 153.494 19.7912C153.94 20.0724 154.287 20.4673 154.534 20.9759C154.784 21.4844 154.909 22.0795 154.909 22.7614C154.909 23.4375 154.784 24.0284 154.534 24.5341C154.287 25.0398 153.94 25.4332 153.494 25.7145C153.051 25.9957 152.534 26.1364 151.943 26.1364ZM151.943 25.233C152.392 25.233 152.761 25.1179 153.051 24.8878C153.341 24.6577 153.555 24.3551 153.694 23.9801C153.833 23.6051 153.903 23.1989 153.903 22.7614C153.903 22.3239 153.833 21.9162 153.694 21.5384C153.555 21.1605 153.341 20.8551 153.051 20.6222C152.761 20.3892 152.392 20.2727 151.943 20.2727C151.494 20.2727 151.125 20.3892 150.835 20.6222C150.545 20.8551 150.331 21.1605 150.191 21.5384C150.052 21.9162 149.983 22.3239 149.983 22.7614C149.983 23.1989 150.052 23.6051 150.191 23.9801C150.331 24.3551 150.545 24.6577 150.835 24.8878C151.125 25.1179 151.494 25.233 151.943 25.233ZM157.45 22.0625V26H156.444V19.4545H157.415V20.4773H157.501C157.654 20.1449 157.887 19.8778 158.2 19.6761C158.512 19.4716 158.915 19.3693 159.41 19.3693C159.853 19.3693 160.241 19.4602 160.573 19.642C160.906 19.821 161.164 20.0938 161.349 20.4602C161.533 20.8239 161.626 21.2841 161.626 21.8409V26H160.62V21.9091C160.62 21.3949 160.487 20.9943 160.219 20.7074C159.952 20.4176 159.586 20.2727 159.12 20.2727C158.799 20.2727 158.512 20.3423 158.259 20.4815C158.009 20.6207 157.812 20.8239 157.667 21.0909C157.522 21.358 157.45 21.6818 157.45 22.0625ZM166.105 28.5909C165.62 28.5909 165.202 28.5284 164.853 28.4034C164.503 28.2812 164.212 28.1193 163.979 27.9176C163.749 27.7188 163.566 27.5057 163.429 27.2784L164.23 26.7159C164.321 26.8352 164.436 26.9716 164.576 27.125C164.715 27.2812 164.905 27.4162 165.147 27.5298C165.391 27.6463 165.711 27.7045 166.105 27.7045C166.634 27.7045 167.07 27.5767 167.414 27.321C167.757 27.0653 167.929 26.6648 167.929 26.1193V24.7898H167.844C167.77 24.9091 167.665 25.0568 167.529 25.233C167.395 25.4062 167.202 25.5611 166.949 25.6974C166.699 25.831 166.361 25.8977 165.935 25.8977C165.407 25.8977 164.932 25.7727 164.512 25.5227C164.094 25.2727 163.763 24.9091 163.519 24.4318C163.277 23.9545 163.157 23.375 163.157 22.6932C163.157 22.0227 163.275 21.4389 163.51 20.9418C163.746 20.4418 164.074 20.0554 164.495 19.7827C164.915 19.5071 165.401 19.3693 165.952 19.3693C166.378 19.3693 166.716 19.4403 166.966 19.5824C167.219 19.7216 167.412 19.8807 167.546 20.0597C167.682 20.2358 167.787 20.3807 167.861 20.4943H167.963V19.4545H168.935V26.1875C168.935 26.75 168.807 27.2074 168.551 27.5597C168.299 27.9148 167.958 28.1747 167.529 28.3395C167.103 28.5071 166.628 28.5909 166.105 28.5909ZM166.071 24.9943C166.475 24.9943 166.816 24.902 167.094 24.7173C167.373 24.5327 167.584 24.267 167.729 23.9205C167.874 23.5739 167.946 23.1591 167.946 22.6761C167.946 22.2045 167.875 21.7884 167.733 21.4276C167.591 21.0668 167.381 20.7841 167.103 20.5795C166.824 20.375 166.48 20.2727 166.071 20.2727C165.645 20.2727 165.29 20.3807 165.006 20.5966C164.725 20.8125 164.513 21.1023 164.371 21.4659C164.232 21.8295 164.162 22.233 164.162 22.6761C164.162 23.1307 164.233 23.5327 164.375 23.8821C164.52 24.2287 164.733 24.5014 165.015 24.7003C165.299 24.8963 165.651 24.9943 166.071 24.9943ZM175.242 28.4545V24.9943H175.157C175.083 25.1136 174.978 25.2642 174.841 25.446C174.705 25.625 174.51 25.7855 174.257 25.9276C174.005 26.0668 173.668 26.1364 173.248 26.1364C172.702 26.1364 172.221 25.9986 171.803 25.723C171.385 25.4446 171.059 25.0526 170.823 24.5469C170.587 24.0384 170.469 23.4375 170.469 22.7443C170.469 22.0568 170.587 21.4602 170.823 20.9545C171.059 20.4489 171.387 20.0582 171.807 19.7827C172.228 19.5071 172.713 19.3693 173.265 19.3693C173.691 19.3693 174.027 19.4403 174.275 19.5824C174.525 19.7216 174.715 19.8807 174.846 20.0597C174.979 20.2358 175.083 20.3807 175.157 20.4943H175.276V19.4545H176.248V28.4545H175.242ZM173.384 25.233C173.787 25.233 174.128 25.1278 174.407 24.9176C174.685 24.7045 174.897 24.4105 175.042 24.0355C175.186 23.6577 175.259 23.2216 175.259 22.7273C175.259 22.2386 175.188 21.8111 175.046 21.4446C174.904 21.0753 174.694 20.7884 174.415 20.5838C174.137 20.3764 173.793 20.2727 173.384 20.2727C172.958 20.2727 172.603 20.3821 172.319 20.6009C172.037 20.8168 171.826 21.1108 171.684 21.483C171.544 21.8523 171.475 22.267 171.475 22.7273C171.475 23.1932 171.546 23.6165 171.688 23.9972C171.833 24.375 172.046 24.6761 172.327 24.9006C172.611 25.1222 172.963 25.233 173.384 25.233ZM178.088 26V19.4545H179.094V26H178.088ZM178.6 18.3636C178.404 18.3636 178.235 18.2969 178.093 18.1634C177.953 18.0298 177.884 17.8693 177.884 17.6818C177.884 17.4943 177.953 17.3338 178.093 17.2003C178.235 17.0668 178.404 17 178.6 17C178.796 17 178.963 17.0668 179.103 17.2003C179.245 17.3338 179.316 17.4943 179.316 17.6818C179.316 17.8693 179.245 18.0298 179.103 18.1634C178.963 18.2969 178.796 18.3636 178.6 18.3636ZM181.942 22.0625V26H180.936V19.4545H181.908V20.4773H181.993C182.146 20.1449 182.379 19.8778 182.692 19.6761C183.004 19.4716 183.408 19.3693 183.902 19.3693C184.345 19.3693 184.733 19.4602 185.065 19.642C185.398 19.821 185.656 20.0938 185.841 20.4602C186.026 20.8239 186.118 21.2841 186.118 21.8409V26H185.112V21.9091C185.112 21.3949 184.979 20.9943 184.712 20.7074C184.445 20.4176 184.078 20.2727 183.612 20.2727C183.291 20.2727 183.004 20.3423 182.751 20.4815C182.501 20.6207 182.304 20.8239 182.159 21.0909C182.014 21.358 181.942 21.6818 181.942 22.0625ZM190.598 28.5909C190.112 28.5909 189.694 28.5284 189.345 28.4034C188.995 28.2812 188.704 28.1193 188.471 27.9176C188.241 27.7188 188.058 27.5057 187.922 27.2784L188.723 26.7159C188.814 26.8352 188.929 26.9716 189.068 27.125C189.207 27.2812 189.397 27.4162 189.639 27.5298C189.883 27.6463 190.203 27.7045 190.598 27.7045C191.126 27.7045 191.562 27.5767 191.906 27.321C192.25 27.0653 192.422 26.6648 192.422 26.1193V24.7898H192.336C192.262 24.9091 192.157 25.0568 192.021 25.233C191.887 25.4062 191.694 25.5611 191.441 25.6974C191.191 25.831 190.853 25.8977 190.427 25.8977C189.899 25.8977 189.424 25.7727 189.004 25.5227C188.586 25.2727 188.255 24.9091 188.011 24.4318C187.77 23.9545 187.649 23.375 187.649 22.6932C187.649 22.0227 187.767 21.4389 188.002 20.9418C188.238 20.4418 188.566 20.0554 188.987 19.7827C189.407 19.5071 189.893 19.3693 190.444 19.3693C190.87 19.3693 191.208 19.4403 191.458 19.5824C191.711 19.7216 191.904 19.8807 192.038 20.0597C192.174 20.2358 192.279 20.3807 192.353 20.4943H192.456V19.4545H193.427V26.1875C193.427 26.75 193.299 27.2074 193.044 27.5597C192.791 27.9148 192.45 28.1747 192.021 28.3395C191.595 28.5071 191.12 28.5909 190.598 28.5909ZM190.564 24.9943C190.967 24.9943 191.308 24.902 191.586 24.7173C191.865 24.5327 192.076 24.267 192.221 23.9205C192.366 23.5739 192.439 23.1591 192.439 22.6761C192.439 22.2045 192.368 21.7884 192.225 21.4276C192.083 21.0668 191.873 20.7841 191.595 20.5795C191.316 20.375 190.973 20.2727 190.564 20.2727C190.137 20.2727 189.782 20.3807 189.498 20.5966C189.217 20.8125 189.005 21.1023 188.863 21.4659C188.724 21.8295 188.654 22.233 188.654 22.6761C188.654 23.1307 188.725 23.5327 188.868 23.8821C189.012 24.2287 189.225 24.5014 189.507 24.7003C189.791 24.8963 190.143 24.9943 190.564 24.9943ZM196.001 26.0682C195.791 26.0682 195.61 25.9929 195.46 25.8423C195.309 25.6918 195.234 25.5114 195.234 25.3011C195.234 25.0909 195.309 24.9105 195.46 24.7599C195.61 24.6094 195.791 24.5341 196.001 24.5341C196.211 24.5341 196.392 24.6094 196.542 24.7599C196.693 24.9105 196.768 25.0909 196.768 25.3011C196.768 25.4403 196.733 25.5682 196.662 25.6847C196.593 25.8011 196.501 25.8949 196.385 25.9659C196.271 26.0341 196.143 26.0682 196.001 26.0682ZM199.306 26.0682C199.096 26.0682 198.915 25.9929 198.765 25.8423C198.614 25.6918 198.539 25.5114 198.539 25.3011C198.539 25.0909 198.614 24.9105 198.765 24.7599C198.915 24.6094 199.096 24.5341 199.306 24.5341C199.516 24.5341 199.696 24.6094 199.847 24.7599C199.998 24.9105 200.073 25.0909 200.073 25.3011C200.073 25.4403 200.037 25.5682 199.966 25.6847C199.898 25.8011 199.806 25.8949 199.689 25.9659C199.576 26.0341 199.448 26.0682 199.306 26.0682Z" fill="white"/>
</svg>
