<svg width="14" height="20" viewBox="0 0 14 20" fill="none" xmlns="http://www.w3.org/2000/svg">
<path d="M1.44923 9.00009H12.9962C13.8582 9.00009 14.3162 7.98009 13.7432 7.33509L7.97023 0.840094C7.87659 0.734399 7.76159 0.649779 7.63282 0.591826C7.50405 0.533873 7.36444 0.503906 7.22323 0.503906C7.08202 0.503906 6.94242 0.533873 6.81365 0.591826C6.68488 0.649779 6.56988 0.734399 6.47623 0.840094L0.701234 7.33509C0.128234 7.98009 0.586234 9.00009 1.44923 9.00009ZM6.47523 19.1591C6.56888 19.2648 6.68388 19.3494 6.81265 19.4074C6.94142 19.4653 7.08102 19.4953 7.22223 19.4953C7.36344 19.4953 7.50305 19.4653 7.63182 19.4074C7.76059 19.3494 7.87559 19.2648 7.96923 19.1591L13.7422 12.6641C14.3162 12.0201 13.8582 11.0001 12.9952 11.0001H1.44923C0.587234 11.0001 0.129234 12.0201 0.702234 12.6651L6.47523 19.1591Z" fill="#666666"/>
</svg>
