<svg width="29" height="12" viewBox="0 0 29 12" fill="none" xmlns="http://www.w3.org/2000/svg">
<path d="M7.17401 0.818182H9.3267V7.4304C9.3267 8.17282 9.14938 8.82244 8.79474 9.37926C8.44342 9.93608 7.95123 10.3703 7.31818 10.6818C6.68513 10.9901 5.94768 11.1442 5.10582 11.1442C4.26065 11.1442 3.52154 10.9901 2.88849 10.6818C2.25545 10.3703 1.76326 9.93608 1.41193 9.37926C1.06061 8.82244 0.884943 8.17282 0.884943 7.4304V0.818182H3.03764V7.24645C3.03764 7.63423 3.12216 7.97893 3.29119 8.28054C3.46354 8.58215 3.70549 8.81913 4.01705 8.99148C4.3286 9.16383 4.69152 9.25 5.10582 9.25C5.52344 9.25 5.88636 9.16383 6.1946 8.99148C6.50616 8.81913 6.74645 8.58215 6.91548 8.28054C7.08783 7.97893 7.17401 7.63423 7.17401 7.24645V0.818182ZM16.6213 3.74645C16.5815 3.34541 16.4108 3.03385 16.1092 2.81179C15.8076 2.58972 15.3983 2.47869 14.8812 2.47869C14.5299 2.47869 14.2333 2.52841 13.9913 2.62784C13.7493 2.72396 13.5637 2.85819 13.4345 3.03054C13.3085 3.20289 13.2456 3.39844 13.2456 3.61719C13.2389 3.79948 13.277 3.95857 13.3599 4.09446C13.4461 4.23035 13.5637 4.34801 13.7129 4.44744C13.862 4.54356 14.0344 4.62808 14.2299 4.70099C14.4255 4.7706 14.6343 4.83026 14.8564 4.87997L15.7711 5.09872C16.2153 5.19815 16.6229 5.33073 16.9941 5.49645C17.3654 5.66217 17.6868 5.866 17.9586 6.10795C18.2304 6.34991 18.4409 6.63494 18.59 6.96307C18.7425 7.29119 18.8204 7.66738 18.8237 8.09162C18.8204 8.71473 18.6613 9.25497 18.3464 9.71236C18.0349 10.1664 17.5841 10.5194 16.9941 10.7713C16.4075 11.0199 15.6999 11.1442 14.8713 11.1442C14.0493 11.1442 13.3334 11.0182 12.7235 10.7663C12.117 10.5144 11.6431 10.1416 11.3017 9.64773C10.9636 9.15057 10.7863 8.53575 10.7697 7.80327H12.8528C12.876 8.14465 12.9738 8.42969 13.1461 8.65838C13.3218 8.88376 13.5555 9.05445 13.8471 9.17045C14.1421 9.28314 14.4752 9.33949 14.8464 9.33949C15.211 9.33949 15.5275 9.28646 15.796 9.1804C16.0678 9.07434 16.2782 8.92685 16.4274 8.73793C16.5765 8.54901 16.6511 8.33191 16.6511 8.08665C16.6511 7.85795 16.5832 7.66572 16.4473 7.50994C16.3147 7.35417 16.1191 7.22159 15.8606 7.11222C15.6054 7.00284 15.2922 6.90341 14.921 6.81392L13.8123 6.53551C12.9539 6.3267 12.2761 6.00024 11.7789 5.55611C11.2818 5.11198 11.0349 4.51373 11.0382 3.76136C11.0349 3.14489 11.1989 2.6063 11.5304 2.1456C11.8651 1.6849 12.3242 1.32528 12.9075 1.06676C13.4908 0.808238 14.1537 0.678977 14.8961 0.678977C15.6518 0.678977 16.3114 0.808238 16.8748 1.06676C17.4416 1.32528 17.8824 1.6849 18.1973 2.1456C18.5121 2.6063 18.6745 3.13991 18.6845 3.74645H16.6213ZM23.881 11H20.2717V0.818182H23.9109C24.935 0.818182 25.8166 1.02202 26.5558 1.42969C27.2949 1.83404 27.8633 2.41572 28.261 3.17472C28.6621 3.93371 28.8626 4.84186 28.8626 5.89915C28.8626 6.95975 28.6621 7.87121 28.261 8.63352C27.8633 9.39583 27.2915 9.98082 26.5458 10.3885C25.8034 10.7962 24.9151 11 23.881 11ZM22.4244 9.15554H23.7915C24.4279 9.15554 24.9632 9.04285 25.3974 8.81747C25.8349 8.58878 26.163 8.2358 26.3817 7.75852C26.6038 7.27794 26.7148 6.65814 26.7148 5.89915C26.7148 5.14678 26.6038 4.53196 26.3817 4.05469C26.163 3.57741 25.8365 3.22609 25.4023 3.00071C24.9682 2.77533 24.4329 2.66264 23.7965 2.66264H22.4244V9.15554Z" fill="white"/>
</svg>
