<svg width="134" height="44" viewBox="0 0 134 44" fill="none" xmlns="http://www.w3.org/2000/svg">
<path d="M4 0.5H130C131.933 0.5 133.5 2.067 133.5 4V40C133.5 41.933 131.933 43.5 130 43.5H4C2.067 43.5 0.5 41.933 0.5 40V4C0.5 2.067 2.067 0.5 4 0.5Z" fill="#2C2C2C" stroke="#363636"/>
<path d="M121.895 21H120.908C120.841 21 120.778 21.0244 120.738 21.0645L117 24.8887L113.262 21.0645C113.223 21.0244 113.159 21 113.092 21H112.105C112.02 21 111.97 21.0723 112.02 21.124L116.659 25.8711C116.828 26.043 117.173 26.043 117.34 25.8711L121.979 21.124C122.031 21.0723 121.981 21 121.895 21Z" fill="#787878"/>
<path d="M20.9148 16.8182H22.1477V23.5597C22.1477 24.2557 21.9837 24.8771 21.6555 25.424C21.3307 25.9676 20.8717 26.3968 20.2784 26.7116C19.6851 27.0232 18.9891 27.179 18.1903 27.179C17.3916 27.179 16.6955 27.0232 16.1023 26.7116C15.509 26.3968 15.0483 25.9676 14.7202 25.424C14.3954 24.8771 14.233 24.2557 14.233 23.5597V16.8182H15.4659V23.4602C15.4659 23.9574 15.5753 24.3999 15.794 24.7876C16.0128 25.1721 16.3243 25.4754 16.7287 25.6974C17.1364 25.9162 17.6236 26.0256 18.1903 26.0256C18.7571 26.0256 19.2443 25.9162 19.652 25.6974C20.0597 25.4754 20.3712 25.1721 20.5866 24.7876C20.8054 24.3999 20.9148 23.9574 20.9148 23.4602V16.8182ZM30.1781 19.3636C30.1184 18.8598 29.8765 18.4688 29.4522 18.1903C29.028 17.9119 28.5076 17.7727 27.8912 17.7727C27.4404 17.7727 27.046 17.8456 26.7079 17.9915C26.3732 18.1373 26.1113 18.3378 25.9224 18.593C25.7368 18.8482 25.644 19.1383 25.644 19.4631C25.644 19.7348 25.7086 19.9685 25.8379 20.1641C25.9705 20.3563 26.1395 20.517 26.345 20.6463C26.5505 20.7723 26.7659 20.8767 26.9913 20.9595C27.2167 21.0391 27.4238 21.1037 27.6127 21.1534L28.6468 21.4318C28.912 21.5014 29.207 21.5975 29.5318 21.7202C29.8599 21.8428 30.1731 22.0102 30.4714 22.2223C30.773 22.4311 31.0216 22.6996 31.2172 23.0277C31.4127 23.3558 31.5105 23.7585 31.5105 24.2358C31.5105 24.786 31.3663 25.2831 31.0779 25.7273C30.7929 26.1714 30.3753 26.5244 29.8251 26.7862C29.2782 27.0481 28.6137 27.179 27.8315 27.179C27.1023 27.179 26.4709 27.0613 25.9373 26.826C25.407 26.5907 24.9894 26.2625 24.6845 25.8416C24.3829 25.4207 24.2122 24.9318 24.1724 24.375H25.4451C25.4783 24.7595 25.6075 25.0777 25.8329 25.3295C26.0616 25.5781 26.35 25.7637 26.698 25.8864C27.0493 26.0057 27.4271 26.0653 27.8315 26.0653C28.3021 26.0653 28.7247 25.9891 29.0993 25.8366C29.4738 25.6809 29.7704 25.4654 29.9892 25.1903C30.2079 24.9119 30.3173 24.5871 30.3173 24.2159C30.3173 23.8778 30.2228 23.6027 30.0339 23.3906C29.845 23.1785 29.5964 23.0062 29.2882 22.8736C28.9799 22.741 28.6468 22.625 28.2889 22.5256L27.036 22.1676C26.2406 21.9389 25.6109 21.6125 25.1468 21.1882C24.6828 20.764 24.4508 20.2088 24.4508 19.5227C24.4508 18.9527 24.6049 18.4555 24.9132 18.0312C25.2247 17.6037 25.6423 17.2723 26.166 17.0369C26.693 16.7983 27.2813 16.679 27.9309 16.679C28.5872 16.679 29.1705 16.7966 29.6809 17.032C30.1913 17.264 30.5957 17.5821 30.894 17.9865C31.1956 18.3909 31.3547 18.8499 31.3713 19.3636H30.1781ZM36.6797 27H33.5376V16.8182H36.8189C37.8066 16.8182 38.6518 17.022 39.3544 17.4297C40.0571 17.834 40.5956 18.4157 40.9702 19.1747C41.3447 19.9304 41.532 20.8352 41.532 21.8892C41.532 22.9498 41.343 23.8629 40.9652 24.6286C40.5874 25.3909 40.0372 25.9775 39.3146 26.3885C38.5921 26.7962 37.7138 27 36.6797 27ZM34.7706 25.9062H36.6001C37.442 25.9062 38.1397 25.7438 38.6932 25.419C39.2467 25.0942 39.6593 24.6319 39.9311 24.032C40.2029 23.4321 40.3388 22.7178 40.3388 21.8892C40.3388 21.0672 40.2045 20.3596 39.9361 19.7663C39.6676 19.1697 39.2666 18.7124 38.733 18.3942C38.1993 18.0727 37.5348 17.9119 36.7393 17.9119H34.7706V25.9062Z" fill="white"/>
</svg>
