<svg width="20" height="22" viewBox="0 0 20 22" fill="none" xmlns="http://www.w3.org/2000/svg">
<path fill-rule="evenodd" clip-rule="evenodd" d="M10 4.11625L17.5 11.6163V16.875C17.5 17.3723 17.3025 17.8492 16.9508 18.2008C16.5992 18.5525 16.1223 18.75 15.625 18.75H4.375C3.87772 18.75 3.40081 18.5525 3.04917 18.2008C2.69754 17.8492 2.5 17.3723 2.5 16.875V11.6163L10 4.11625ZM16.25 3.125V7.5L13.75 5V3.125C13.75 2.95924 13.8158 2.80027 13.9331 2.68306C14.0503 2.56585 14.2092 2.5 14.375 2.5H15.625C15.7908 2.5 15.9497 2.56585 16.0669 2.68306C16.1842 2.80027 16.25 2.95924 16.25 3.125Z" fill="#FAC55B"/>
<path fill-rule="evenodd" clip-rule="evenodd" d="M9.11606 1.87477C9.35047 1.64043 9.66836 1.50879 9.99981 1.50879C10.3313 1.50879 10.6492 1.64043 10.8836 1.87477L19.1923 10.1823C19.3097 10.2996 19.3756 10.4588 19.3756 10.6248C19.3756 10.7907 19.3097 10.9499 19.1923 11.0673C19.075 11.1846 18.9158 11.2506 18.7498 11.2506C18.5838 11.2506 18.4247 11.1846 18.3073 11.0673L9.99981 2.75852L1.69231 11.0673C1.57495 11.1846 1.41578 11.2506 1.24981 11.2506C1.08384 11.2506 0.924671 11.1846 0.807313 11.0673C0.689955 10.9499 0.624023 10.7907 0.624023 10.6248C0.624023 10.4588 0.689955 10.2996 0.807313 10.1823L9.11606 1.87477Z" fill="#FAC55B"/>
<g clip-path="url(#clip0_176_1522)">
<circle cx="15.5179" cy="17.4823" r="3.92857" fill="#FAC55B"/>
<path fill-rule="evenodd" clip-rule="evenodd" d="M11.5894 17.4823C11.5894 16.4404 12.0033 15.4411 12.74 14.7044C13.4768 13.9676 14.476 13.5537 15.5179 13.5537C16.5598 13.5537 17.5591 13.9676 18.2958 14.7044C19.0326 15.4411 19.4465 16.4404 19.4465 17.4823C19.4465 18.5242 19.0326 19.5235 18.2958 20.2602C17.5591 20.997 16.5598 21.4109 15.5179 21.4109C14.476 21.4109 13.4768 20.997 12.74 20.2602C12.0033 19.5235 11.5894 18.5242 11.5894 17.4823V17.4823ZM15.2937 19.1637L17.5555 16.3362L17.147 16.0093L15.2183 18.4194L13.8522 17.2811L13.517 17.6834L15.2937 19.1642V19.1637Z" fill="white"/>
</g>
<defs>
<clipPath id="clip0_176_1522">
<rect width="7.85714" height="7.85714" fill="white" transform="translate(11.5894 13.5537)"/>
</clipPath>
</defs>
</svg>
