<svg width="30" height="26" viewBox="0 0 30 26" fill="none" xmlns="http://www.w3.org/2000/svg">
<path d="M21.3967 0.25C26.2826 0.25 29.1663 3.06151 29.1663 7.87422H23.1723V7.92333C20.3904 7.92333 18.1352 10.122 18.1352 12.8343C18.1352 15.5465 20.3904 17.7452 23.1723 17.7452H29.1663V18.1872C29.1663 22.9385 26.2826 25.75 21.3967 25.75H8.60264C3.71671 25.75 0.833008 22.9385 0.833008 18.1872V7.81283C0.833008 3.06151 3.71671 0.25 8.60264 0.25H21.3967ZM28.1086 9.98592C28.6928 9.98592 29.1663 10.4476 29.1663 11.0172V14.6022C29.1595 15.169 28.6899 15.6269 28.1086 15.6335H23.2856C21.8773 15.652 20.6458 14.7119 20.3263 13.3745C20.1664 12.5442 20.3909 11.6876 20.9399 11.034C21.4888 10.3804 22.3059 9.99677 23.1723 9.98592H28.1086ZM23.8523 11.6434H23.3863C23.1003 11.6401 22.8248 11.7486 22.6213 11.9446C22.4179 12.1407 22.3034 12.408 22.3034 12.6869C22.3033 13.2721 22.7862 13.7483 23.3863 13.7551H23.8523C24.4504 13.7551 24.9352 13.2823 24.9352 12.6992C24.9352 12.1161 24.4504 11.6434 23.8523 11.6434ZM15.5412 5.76252H7.54486C6.95164 5.76248 6.46879 6.22776 6.4619 6.80609C6.4619 7.39124 6.94472 7.86749 7.54486 7.87422H15.5412C16.1393 7.87422 16.6241 7.4015 16.6241 6.81837C16.6241 6.23524 16.1393 5.76252 15.5412 5.76252Z" fill="white"/>
</svg>
