<svg width="32" height="26" viewBox="0 0 32 26" fill="none" xmlns="http://www.w3.org/2000/svg">
<path opacity="0.5" d="M6.09432 11.0599C5.93832 11.1441 5.84107 11.3041 5.84107 11.4782V14.1885H0.489529C0.219309 14.1885 0 14.4027 0 14.6666C0 14.9306 0.219309 15.1448 0.489529 15.1448H5.84107V17.8551C5.84107 18.0298 5.93832 18.1898 6.09432 18.2734C6.25031 18.3582 6.4409 18.3524 6.59168 18.26L11.7716 15.0715C11.9138 14.9835 12 14.8311 12 14.6666C12 14.5022 11.9138 14.3498 11.7716 14.2618L6.59168 11.0733C6.51205 11.0249 6.42132 11 6.3306 11C6.24966 11 6.16807 11.0204 6.09432 11.0599Z" fill="url(#paint0_linear_197_1655)"/>
<path fill-rule="evenodd" clip-rule="evenodd" d="M31.1663 7.87422C31.1663 3.06151 28.2826 0.25 23.3967 0.25H10.6026C5.71671 0.25 2.83301 3.06151 2.83301 7.81283V14.1885H5.84107V11.4782C5.84107 11.3041 5.93832 11.1441 6.09432 11.0599C6.16807 11.0204 6.24966 11 6.3306 11C6.42132 11 6.51205 11.0249 6.59168 11.0733L11.7716 14.2618C11.9138 14.3498 12 14.5022 12 14.6666C12 14.8311 11.9138 14.9835 11.7716 15.0715L6.59168 18.26C6.4409 18.3524 6.25031 18.3582 6.09432 18.2734C5.93832 18.1898 5.84107 18.0298 5.84107 17.8551V15.1448H2.83301V18.1872C2.83301 22.9385 5.71671 25.75 10.6026 25.75H23.3967C28.2826 25.75 31.1663 22.9385 31.1663 18.1872V17.7452H25.1723C22.3904 17.7452 20.1352 15.5465 20.1352 12.8343C20.1352 10.122 22.3904 7.92333 25.1723 7.92333V7.87422H31.1663ZM31.1663 11.0172C31.1663 10.4476 30.6928 9.98592 30.1086 9.98592H25.1723C24.3059 9.99677 23.4888 10.3804 22.9399 11.034C22.3909 11.6876 22.1664 12.5442 22.3263 13.3745C22.6458 14.7119 23.8773 15.652 25.2856 15.6335H30.1086C30.6899 15.6269 31.1595 15.169 31.1663 14.6022V11.0172ZM25.3863 11.6434H25.8523C26.4504 11.6434 26.9352 12.1161 26.9352 12.6992C26.9352 13.2823 26.4504 13.7551 25.8523 13.7551H25.3863C24.7862 13.7483 24.3033 13.2721 24.3034 12.6869C24.3034 12.408 24.4179 12.1407 24.6213 11.9446C24.8248 11.7486 25.1003 11.6401 25.3863 11.6434ZM9.54486 5.76252H17.5412C18.1393 5.76252 18.6241 6.23524 18.6241 6.81837C18.6241 7.4015 18.1393 7.87422 17.5412 7.87422H9.54486C8.94472 7.86749 8.4619 7.39124 8.4619 6.80609C8.46879 6.22776 8.95164 5.76248 9.54486 5.76252Z" fill="#A7A7A7"/>
<defs>
<linearGradient id="paint0_linear_197_1655" x1="0.196721" y1="11" x2="11.9856" y2="13.3134" gradientUnits="userSpaceOnUse">
<stop stop-color="#EDD78F"/>
<stop offset="1" stop-color="#FDBF4A"/>
</linearGradient>
</defs>
</svg>
