<svg width="24" height="23" viewBox="0 0 24 23" fill="none" xmlns="http://www.w3.org/2000/svg">
<path fill-rule="evenodd" clip-rule="evenodd" d="M22.2086 20.8461C22.6916 20.8461 23.0836 21.2381 23.0836 21.7211C23.0836 22.2041 22.6916 22.5961 22.2086 22.5961H13.7467C13.2637 22.5961 12.8717 22.2041 12.8717 21.7211C12.8717 21.2381 13.2637 20.8461 13.7467 20.8461H22.2086ZM16.802 1.26258C16.8603 1.30808 18.8122 2.82475 18.8122 2.82475C19.5215 3.24708 20.0757 4.00192 20.2857 4.89558C20.4945 5.77992 20.3428 6.69225 19.8563 7.46342C19.8531 7.46856 19.8499 7.47364 19.8386 7.48876L19.8298 7.50044C19.7508 7.60451 19.4076 8.03857 17.675 10.2093C17.6589 10.2377 17.6407 10.2644 17.6208 10.2903C17.5915 10.3284 17.5597 10.3635 17.5258 10.3954C17.4076 10.5442 17.2828 10.7006 17.1516 10.8649L16.8857 11.198C16.337 11.8851 15.6862 12.6999 14.9141 13.6664L14.5178 14.1623C13.0272 16.028 11.1182 18.4168 8.67266 21.4763C8.13716 22.1436 7.33449 22.5321 6.47233 22.5426L2.22683 22.5963H2.21516C1.81033 22.5963 1.45799 22.3186 1.36349 21.9231L0.407994 17.8736C0.210828 17.0347 0.406828 16.1691 0.944661 15.4971L11.9347 1.75142C11.9393 1.74675 11.9428 1.74092 11.9475 1.73625C13.1527 0.295416 15.332 0.083083 16.802 1.26258ZM10.7093 6.08483L2.31083 16.5903C2.11133 16.8399 2.03783 17.1619 2.11133 17.4711L2.90583 20.8369L6.45133 20.7926C6.78849 20.7891 7.09999 20.6386 7.30649 20.3819C8.36989 19.0514 9.70639 17.3792 11.0805 15.6597L11.5666 15.0513L12.0536 14.4419C13.3423 12.8292 14.6154 11.2357 15.6807 9.90201L10.7093 6.08483ZM13.295 2.85275L11.8025 4.7175L16.7734 8.53358C17.7302 7.33515 18.3596 6.54583 18.4178 6.47058C18.6092 6.16025 18.6838 5.72158 18.5835 5.29925C18.4808 4.86642 18.2113 4.49892 17.8228 4.26442C17.74 4.20725 15.7742 2.68125 15.7135 2.63342C14.9738 2.04075 13.8947 2.14342 13.295 2.85275Z" fill="#B4B4B4"/>
</svg>
