<svg width="68" height="65" viewBox="0 0 68 65" fill="none" xmlns="http://www.w3.org/2000/svg">
<path d="M37.3565 3.44457L64.5704 29.7298C65.3192 30.4896 65.7284 31.5053 65.7088 32.5561C65.6893 33.6068 65.2427 34.6076 64.4661 35.3407L37.3565 61.7271C36.5752 62.4845 35.5157 62.91 34.4109 62.91C33.3061 62.91 32.2466 62.4845 31.4653 61.7271L4.35572 35.3407C3.59292 34.6003 3.15586 33.602 3.13642 32.5557C3.11698 31.5093 3.51666 30.4964 4.25145 29.7298L31.4653 3.44457C32.2466 2.68719 33.3061 2.26172 34.4109 2.26172C35.5157 2.26172 36.5752 2.68719 37.3565 3.44457Z" fill="#F77E00"/>
<path d="M34.8021 5.5174L60.0871 29.9829C60.4329 30.33 60.7049 30.7398 60.8874 31.1889C61.0699 31.6379 61.1593 32.1174 61.1506 32.6C61.1419 33.0825 61.0352 33.5587 60.8366 34.0013C60.638 34.4439 60.3514 34.8442 59.9932 35.1793L59.9828 35.1894L34.75 59.7055C34.0253 60.409 33.0422 60.8048 32.0166 60.8057C30.9911 60.8067 30.0072 60.4127 29.2811 59.7106L29.2759 59.7055L4.09526 35.1894C3.36965 34.5136 2.95052 33.586 2.92999 32.6107C2.90946 31.6353 3.28922 30.692 3.98578 29.988L3.991 29.9829L29.3281 5.5174C30.8399 4.05149 33.285 4.05149 34.8021 5.5174Z" fill="#FF9800"/>
<path d="M28.6501 9.15584C27.8159 9.71188 11.3938 25.483 11.3938 25.483C11.3938 25.483 10.0383 26.6457 10.9767 27.8588C11.863 28.9709 13.2184 28.4149 13.8962 27.8083C14.5739 27.2017 29.3799 13.1492 30.0056 12.4415C30.3102 12.0479 30.4999 11.5821 30.555 11.093C30.61 10.6038 30.5283 10.1093 30.3184 9.66133C29.9013 8.85255 29.2235 8.75145 28.6501 9.15584Z" fill="#FFBD52"/>
<path d="M9.15206 32.4641C10.1022 32.4641 10.8725 31.7173 10.8725 30.796C10.8725 29.8748 10.1022 29.1279 9.15206 29.1279C8.2019 29.1279 7.43164 29.8748 7.43164 30.796C7.43164 31.7173 8.2019 32.4641 9.15206 32.4641Z" fill="#FFBD52"/>
</svg>
